SplineFontDB: 3.2
FontName: Cooper-Italic
FullName: Cooper* Italic
FamilyName: Cooper*
Weight: Regular
Copyright: 
Version: 0.1
ItalicAngle: -7
UnderlinePosition: -200
UnderlineWidth: 100
Ascent: 1600
Descent: 400
InvalidEm: 0
LayerCount: 2
Layer: 0 0 "Back" 1
Layer: 1 0 "Fore" 0
XUID: [1021 31 -699969567 16487490]
FSType: 0
OS2Version: 0
OS2_WeightWidthSlopeOnly: 0
OS2_UseTypoMetrics: 1
CreationTime: 1460762150
ModificationTime: 1700414321
PfmFamily: 17
TTFWeight: 400
TTFWidth: 5
LineGap: 0
VLineGap: 0
OS2TypoAscent: 2500
OS2TypoAOffset: 0
OS2TypoDescent: -850
OS2TypoDOffset: 0
OS2TypoLinegap: 0
OS2WinAscent: 2500
OS2WinAOffset: 0
OS2WinDescent: 850
OS2WinDOffset: 0
HheadAscent: 2500
HheadAOffset: 0
HheadDescent: -850
HheadDOffset: 0
OS2CapHeight: 1500
OS2XHeight: 1040
OS2FamilyClass: 256
OS2Vendor: 'it* '
OS2UnicodeRanges: 00000001.00000000.00000000.00000000
Lookup: 3 0 0 "'swsh' Swash in Latin lookup 1" { "'swsh' Swash in Latin lookup 1-1"  } ['swsh' ('DFLT' <'dflt' > 'latn' <'dflt' > ) ]
Lookup: 4 0 1 "'liga' Standard Ligatures lookup" { "'liga' Standard Ligatures lookup"  } ['liga' ('DFLT' <'dflt' > 'grek' <'dflt' > 'latn' <'dflt' > ) ]
Lookup: 258 0 0 "'kern' Horizontal Kerning lookup 0" { "'kern' Horizontal Kerning lookup 0-1" [300,0,4] } ['kern' ('DFLT' <'dflt' > 'grek' <'dflt' > 'latn' <'dflt' > ) ]
MarkAttachClasses: 1
DEI: 91125
KernClass2: 12 12 "'kern' Horizontal Kerning lookup 0-1"
 113 A L Agrave Aacute Acircumflex Atilde Adieresis Aring Amacron Abreve Aogonek Lacute uni013B Lslash uni01CD uni0394
 73 D O Q Eth Ograve Oacute Ocircumflex Otilde Odieresis Oslash Dcaron Dcroat
 10 F P F.swsh
 11 K X uni0136
 107 V W Y Yacute Wcircumflex Ycircumflex Ydieresis Wgrave Wacute Wdieresis uni1E86 uni1E88 Ygrave T.swsh Y.swsh
 88 b o ograve oacute ocircumflex otilde odieresis oslash thorn omacron obreve ohungarumlaut
 48 h m n hbar nacute uni0146 ncaron napostrophe eng

StartChar: zero
Encoding: 48 48 0
Width: 1024
VWidth: 1920
Flags: HMW
LayerCount: 2
Fore
SplineSet
147 456 m 260
 147 620.493164062 181.077148438 798.446289062 256.158203125 942 c 4
 347.856445312 1117.32617188 486.25390625 1245 660 1245 c 260
 842 1245 991 1075 991 778 c 260
 991 594.327148438 939.408203125 393.283203125 842.466796875 249 c 4
 735.311523438 89.5146484375 610.837890625 -15 471 -15 c 260
 297 -15 147 172 147 456 c 260
482 64 m 260
 580.00390625 64 645.999023438 143.709960938 705.872070312 267 c 4
 781.578125 422.893554688 830 629.102539062 830 855 c 260
 830 1050 762 1166 654 1166 c 260
 547.110351562 1166 452.427734375 1032.109375 383.01171875 849 c 4
 322.85546875 690.315429688 303 492.912109375 303 333 c 260
 303 170 384 64 482 64 c 260
EndSplineSet
EndChar

StartChar: A
Encoding: 65 65 1
Width: 1622
VWidth: 1920
Flags: HMW
AnchorPoint: "ogonek" 1259 20 basechar 0
AnchorPoint: "bottom" 713 20 basechar 0
AnchorPoint: "top" 923 1400 basechar 0
LayerCount: 2
Fore
SplineSet
482 273 m 2
 480 269 l 2
 476.533203125 262.067382812 475 256 475 245 c 0
 475 219.283203125 483.043945312 210.52734375 495 203.380859375 c 0
 512.583007812 192.872070312 536.629882812 189.493164062 558 179.860351562 c 0
 578.69140625 170.533203125 597 151.655273438 597 100 c 0
 597 -24 436 -29 263 -29 c 0
 72 -29 -26 -3 -26 105 c 0
 -26 139.8828125 -7.6826171875 167.69140625 20 186.149414062 c 0
 56.5078125 210.4921875 104 220 156.854492188 265 c 0
 210.470703125 310.6484375 266.098632812 406.33984375 345 555 c 2
 578 994 l 2
 641.350585938 1113.36035156 665 1183 665 1281 c 0
 665 1412 772 1466 877 1466 c 0
 1036 1466 1133.60546875 1362.60449219 1206 1158 c 0
 1319.18847656 838.102539062 1369.86914062 632.411132812 1445 312 c 0
 1455.24121094 268.326171875 1469.01171875 239.384765625 1488.84765625 223 c 0
 1509.37207031 206.044921875 1534.10839844 206.250976562 1557 193.33984375 c 0
 1580.08105469 180.322265625 1596 161.453125 1596 121 c 0
 1596 44 1553 16 1507 1 c 0
 1453 -17 1272 -23 1179 -23 c 0
 1122.06835938 -23 1041.35253906 -22.5927734375 974 -11.45703125 c 0
 904.356445312 0.0576171875 849 26.3876953125 849 94 c 0
 849 131.560546875 866.606445312 158.801757812 890.532226562 174 c 0
 909.893554688 186.298828125 934.083007812 188.641601562 951 198.471679688 c 0
 966.799804688 207.65234375 977 224.259765625 977 246 c 0
 977 251 976.805664062 255.973632812 975 265 c 2
 974 270 l 2
 969.72265625 291.387695312 952.443359375 307.47265625 911 311 c 0
 864 315 806 316 727 316 c 0
 658 316 601 316 553 308 c 0
 517.149414062 302.024414062 489.200195312 287.400390625 482 273 c 2
805 571 m 0
 828 571 847 570 855 570 c 0
 883 570 900 590 900 618 c 0
 900 632 894.481445312 663.583984375 889 689 c 2
 878 740 l 2
 866.112304688 795.114257812 828 877 802 877 c 0
 778 877 754.095703125 850.657226562 722 792 c 2
 664 686 l 2
 641.435546875 644.76171875 636 618 636 600 c 0
 636 578 658 568 674 568 c 0
 689 568 763 571 805 571 c 0
EndSplineSet
AlternateSubs2: "'swsh' Swash in Latin lookup 1-1" A.swsh
EndChar

StartChar: B
Encoding: 66 66 2
Width: 1433
VWidth: 1920
Flags: HMW
AnchorPoint: "top" 937 1400 basechar 0
AnchorPoint: "bottom" 878 0 basechar 0
LayerCount: 2
Fore
SplineSet
730 198 m 0
 816 198 894 252 894 462 c 0
 894 582 856 626 787 628 c 0
 778.00390625 628.260742188 765 629 753 629 c 0
 706 629 685.369140625 625.944335938 679 585 c 0
 672 540 662.673828125 473.026367188 659 426 c 0
 654 362 650 309 650 269 c 0
 650 228 652 198 730 198 c 0
753 836 m 0
 879 836 913 955 913 1095 c 0
 913 1185 860 1227 798 1227 c 0
 733 1227 726.591796875 1191.20117188 719 1133 c 0
 713 1087 706 1043 701 974 c 0
 697.862304688 930.696289062 697 911.083007812 697 887 c 0
 697 837 739 836 753 836 c 0
558 -18 m 0
 472 -18 271 -25 176 -25 c 0
 63 -25 23 28 23 86 c 0
 23 133.37109375 45.6630859375 157.118164062 76.5908203125 174 c 0
 105.354492188 189.701171875 139.401367188 186.655273438 167.537109375 224 c 0
 210.688476562 281.274414062 222.656874979 415.818207073 242 567 c 2
 280 864 l 2
 290.801491715 948.422185246 294 1016 294 1086 c 0
 294 1161.76367188 291.052734375 1190.06445312 262.772460938 1212 c 0
 238.998046875 1230.44042969 216 1220 187.907226562 1238 c 0
 164.342773438 1253.09863281 151 1276.84863281 151 1309 c 0
 151 1383 200 1430 307 1430 c 0
 375 1430 516 1430 618 1430 c 0
 740 1430 847 1448 966 1448 c 0
 1223 1448 1386 1298 1386 1118 c 0
 1386 992 1317 894 1249 836 c 0
 1215 807 1180 789 1180 770 c 0
 1180 757 1225.09375 740.725585938 1264 716 c 0
 1371 648 1417 577 1417 438 c 0
 1417 199 1244 -30 923 -30 c 0
 804 -30 672 -18 558 -18 c 0
EndSplineSet
AlternateSubs2: "'swsh' Swash in Latin lookup 1-1" B.swsh
EndChar

StartChar: C
Encoding: 67 67 3
Width: 1467
VWidth: 1920
Flags: HMW
AnchorPoint: "top" 925 1400 basechar 0
AnchorPoint: "bottom" 677 0 basechar 0
LayerCount: 2
Fore
SplineSet
688 -29 m 0
 341 -29 82 198 82 528 c 0
 82 1075 512 1429 947 1429 c 0
 1127 1429 1157 1380 1187 1380 c 0
 1213 1380 1235 1415 1273 1415 c 0
 1364 1415 1503 1251 1503 1085 c 0
 1503 923 1386 873 1311 873 c 0
 1268.13476562 873 1236.9453125 883.28125 1213 899.852539062 c 0
 1186.43457031 918.237304688 1168.78515625 944.364257812 1154 972.786132812 c 0
 1113.43652344 1050.75976562 1094.42675781 1146 972 1146 c 0
 757 1146 661 836 661 648 c 0
 661 438 750 312 887 312 c 0
 1022 312 1122.29101562 419.756835938 1179 488 c 0
 1238 559 1280 587 1343 587 c 0
 1408 587 1452 528 1452 446 c 0
 1452 330 1398.76074219 225.19140625 1318 150 c 0
 1289 123 1270 113 1244 113 c 0
 1226 113 1218.93847656 111.8125 1189 110 c 0
 1144.95996094 107.333007812 982 -29 688 -29 c 0
EndSplineSet
EndChar

StartChar: D
Encoding: 68 68 4
Width: 1594
VWidth: 1920
Flags: HMW
AnchorPoint: "top" 844 1400 basechar 0
AnchorPoint: "bottom" 695 0 basechar 0
LayerCount: 2
Fore
SplineSet
817 244 m 0
 864 244 912.837890625 263.823242188 947 309 c 0
 1026.97851562 414.765625 1069 647 1069 877 c 0
 1069 1107 1021 1214 861 1214 c 0
 837 1214 819 1204 808 1196 c 0
 790.189453125 1183.046875 783.625 1170.0390625 780 1133 c 0
 773.171875 1063.22363281 768.517578125 1036.10644531 758.155273438 883 c 0
 751.569335938 785.677734375 739.868164062 597.44921875 726 355 c 0
 724.443359375 327.79296875 720.65625 285.368164062 738.819335938 266 c 0
 756.864257812 246.7578125 785.103515625 244 817 244 c 0
817 -33 m 0
 669 -33 434 -24 333 -24 c 0
 247 -24 247 -30 152 -30 c 0
 79 -30 17 6 17 83 c 0
 17 126.00390625 28.1103515625 150.856445312 44.767578125 167 c 0
 65.2412109375 186.841796875 93.0322265625 196.586914062 121 204.581054688 c 0
 144.98828125 211.4375 167.428710938 227.76953125 181 257 c 0
 207 313 224.624561186 440.359866729 240 560 c 2
 274 849 l 2
 285.765625 940.553710938 317.286132812 1183.12402344 254 1215.59570312 c 0
 233.231445312 1226.25195312 200.56640625 1224.49316406 177.828125 1242 c 0
 154.983398438 1259.58886719 147 1288.53320312 147 1316 c 0
 147 1380 205 1437 262 1437 c 0
 330 1437 390 1429 492 1429 c 0
 649 1429 799 1446 1002 1446 c 0
 1389 1446 1595 1207 1595 797 c 0
 1595 427 1371 49 1026 -15 c 0
 948 -29 897 -33 817 -33 c 0
EndSplineSet
AlternateSubs2: "'swsh' Swash in Latin lookup 1-1" D.swsh
EndChar

StartChar: E
Encoding: 69 69 5
Width: 1385
VWidth: 1920
Flags: HMW
AnchorPoint: "ogonek" 1094 0 basechar 0
AnchorPoint: "top" 868 1400 basechar 0
AnchorPoint: "bottom" 859 0 basechar 0
LayerCount: 2
Fore
SplineSet
499 -21 m 0
 413 -21 211 -27 126 -27 c 0
 65 -27 0 10 0 74 c 0
 0 121.971679688 9.826171875 149.6640625 25.03125 168 c 0
 45.9482421875 193.225585938 77.04296875 200.745117188 106.734375 219 c 0
 123.670898438 229.413085938 140.150390625 243.3203125 154.022460938 266 c 0
 168.133789062 289.0703125 179.546875 321.217773438 186 368 c 0
 208.376953125 530.232421875 225 637 248 835 c 0
 267 996 276 1057 276 1131 c 0
 276 1164 261 1184 240 1199 c 0
 222 1212 199 1222 182 1241 c 0
 167 1258 157 1282 157 1318 c 0
 157 1392 239 1432 346 1432 c 0
 414 1432 634 1426 736 1426 c 0
 858 1426 892 1421 971 1421 c 0
 1094 1421 1163 1441 1210 1441 c 0
 1300 1441 1389 1284 1389 1154 c 0
 1389 1019 1291 983 1245 983 c 0
 1217.77050781 983 1197.03125 989.393554688 1180 1003.38964844 c 0
 1163.79980469 1016.70214844 1150.95410156 1036.89257812 1139.06640625 1065 c 0
 1107.91308594 1138.66503906 1070.76269531 1171.23535156 1018 1178 c 0
 956 1186 922 1179 860 1179 c 0
 785 1179 779 1130 768 1074 c 0
 756 1011 754 979 747 906 c 0
 744 878 748 860 756 848 c 0
 765 835 779 830 792 830 c 0
 823 830 861 833 873 905 c 0
 881 952 887 1014 975 1014 c 0
 1070 1014 1099 907 1099 797 c 0
 1099 739 1092 680 1081 636 c 0
 1041 471 1010 393 916 393 c 0
 873.930664062 393 835.217773438 425.262695312 831.370117188 464 c 0
 828.967773438 488.18359375 837.060546875 516.008789062 835.603515625 538 c 0
 833.461914062 570.323242188 819.043945312 595 771 595 c 0
 726 595 708.352539062 585.958984375 703 541 c 0
 698 499 698.595703125 486.388671875 698 469 c 0
 696.62890625 428.9609375 698 328 698 278 c 0
 698 236 719.508789062 212.088867188 744 211 c 0
 789 209 809 206 865 206 c 0
 920 206 961.231445312 211.477539062 1000 228 c 0
 1045.38574219 247.342773438 1083 302 1109 356 c 0
 1141 422 1186 475 1246 475 c 0
 1317 475 1366 409 1366 311 c 0
 1366 148 1252 -30 1143 -30 c 0
 1107 -30 1047 -23 989 -23 c 0
 872 -23 831 -22 746 -22 c 0
 659 -22 583 -21 499 -21 c 0
EndSplineSet
AlternateSubs2: "'swsh' Swash in Latin lookup 1-1" E.swsh
EndChar

StartChar: F
Encoding: 70 70 6
Width: 1272
VWidth: 1920
Flags: HMW
AnchorPoint: "top" 841 1400 basechar 0
AnchorPoint: "bottom" 931 0 basechar 0
LayerCount: 2
Fore
SplineSet
388 -38 m 0
 220 -38 120 -24 66 10 c 0
 27 34 11 52 11 100 c 0
 11 144 37 177 61 189 c 0
 82 200 111 199 132 211 c 0
 154 223 160 244 171 281 c 0
 190 347 211 426 235 606 c 2
 267 848 l 2
 288 1008 292 1141 263 1171 c 0
 241 1193 207 1189 181 1208 c 0
 158 1225 145 1239 145 1277 c 0
 145 1371 222 1417 319 1417 c 0
 387 1417 571 1409 673 1409 c 0
 795 1409 878 1417 997 1417 c 0
 1070 1417 1164 1428 1211 1428 c 0
 1262 1428 1379 1345 1379 1135 c 0
 1379 1021 1310 978 1243 978 c 0
 1191 978 1165 1000 1146 1028 c 0
 1126 1058 1114 1096 1089 1124 c 0
 1071 1144 1044.89257812 1157.38867188 1003 1161 c 0
 945 1166 917 1165 875 1164 c 0
 774 1162 762 1133 753 1074 c 0
 748 1041 742 988 739 947 c 0
 737 917 735 908 735 878 c 0
 735 863 739 853 744 847 c 0
 752 838 764 836 777 836 c 0
 815 836 847 841 864 905 c 0
 881 967 907 1012 977 1012 c 0
 1023 1012 1093 996 1094 784 c 0
 1094 742 1091 693 1084 634 c 0
 1062 451 988 396 924 396 c 0
 880 396 855 413 841 435 c 0
 824 461 821 495 819 525 c 0
 816 559 814 574 799 583 c 0
 791 588 779 591 759 591 c 0
 741 591 728 588 719 581 c 0
 711 575 707 566 705 552 c 0
 699 502 695 481 691 436 c 2
 682 342 l 2
 677 276 685 239 704 220 c 0
 728 196 767 193 793 179 c 0
 814 168 830 153 830 118 c 0
 830 54 799 15 715 -12 c 0
 647 -34 546 -38 388 -38 c 0
EndSplineSet
AlternateSubs2: "'swsh' Swash in Latin lookup 1-1" F.swsh
EndChar

StartChar: G
Encoding: 71 71 7
Width: 1602
VWidth: 1920
Flags: HMW
AnchorPoint: "top" 778 1400 basechar 0
AnchorPoint: "bottom" 780 0 basechar 0
LayerCount: 2
Fore
SplineSet
713 -39 m 0
 376 -39 84 124 84 554 c 0
 84 961 387 1440 922 1440 c 0
 1102 1440 1111 1395 1151 1395 c 0
 1177 1395 1207 1421 1253 1421 c 0
 1361 1421 1474 1266 1474 1100 c 0
 1474 1033.93359375 1446.68359375 984.131835938 1408.99609375 951 c 0
 1371.98339844 918.4609375 1324.96679688 902 1284 902 c 0
 1222.99902344 902 1188.02050781 924.208984375 1163 955.466796875 c 0
 1124.31835938 1003.79101562 1109.43945312 1073.74316406 1059 1116.69433594 c 0
 1031.94824219 1139.73046875 994.666992188 1155 938 1155 c 0
 793 1155 650 936 650 608 c 0
 650 358 738 277 865 277 c 0
 914.803710938 277 946.84375 293.1484375 966.147460938 320 c 0
 984.052734375 344.90625 991 379.021484375 991 418 c 0
 991 450.762695312 974.680664062 465.724609375 954 475.451171875 c 0
 930.724609375 486.399414062 909 478 879 497.96484375 c 0
 862.022460938 509.263671875 844 524.495117188 844 565 c 0
 844 607.1875 857.068359375 653.428710938 928 688.01953125 c 0
 987.983398438 717.271484375 1090.46777344 735 1262 735 c 0
 1400.43847656 735 1487.8125 719.927734375 1541 695.706054688 c 0
 1596.84472656 670.2734375 1615 634.75390625 1615 596 c 0
 1615 534.845703125 1592.65917969 515.833984375 1564 504.767578125 c 0
 1538.90039062 495.075195312 1508.95410156 491.477539062 1484.92382812 471 c 0
 1468.94433594 457.3828125 1455.58105469 436.30078125 1448 401 c 0
 1428.72753906 311.263671875 1372 223 1272 139 c 0
 1154.92480469 40.6572265625 970 -39 713 -39 c 0
EndSplineSet
AlternateSubs2: "'swsh' Swash in Latin lookup 1-1" G.swsh
EndChar

StartChar: H
Encoding: 72 72 8
Width: 1617
VWidth: 1920
Flags: HMW
AnchorPoint: "top" 923 1400 basechar 0
AnchorPoint: "bottom" 963 0 basechar 0
LayerCount: 2
Fore
SplineSet
197 591 m 2
 235 884 l 2
 267.737304688 1136.42285156 253 1170 227 1188 c 0
 214.157226562 1196.89160156 181.887695312 1203.75 163.391601562 1226 c 0
 153.552734375 1237.8359375 147 1251.22070312 147 1282 c 0
 147 1356 213.950195312 1397.23144531 251 1407 c 0
 312.254882812 1423.15039062 386 1435 517 1435 c 0
 653 1435 736 1431 802 1414 c 0
 853.90625 1400.62988281 882 1348 882 1313 c 0
 882 1276.8515625 869.680664062 1258.54882812 853.693359375 1245 c 0
 839.084960938 1232.62011719 819.915039062 1225.71777344 801 1212.30761719 c 0
 768.134765625 1189.00683594 731.461914062 1150.60742188 719 936 c 0
 716.446289062 892.028320312 720.854492188 877.444335938 739 873 c 0
 769.46875 865.536132812 790 864 842 864 c 0
 910 864 934.791015625 865.354492188 978 868 c 0
 1027 871 1041.10839844 891.900390625 1046 952 c 0
 1053 1038 1053 1078 1053 1144 c 0
 1053 1163.21289062 1044.66503906 1174.04003906 1035.39453125 1183 c 0
 1020.97753906 1196.93457031 1001.4609375 1204.93457031 985.629882812 1222 c 0
 973.700195312 1234.86035156 965 1253.43554688 965 1285 c 0
 965 1328.45214844 993.931640625 1364.84863281 1043 1388.97851562 c 0
 1110.87402344 1422.35546875 1219.10546875 1435 1359 1435 c 0
 1464.40234375 1435 1553.04980469 1432.63964844 1611 1411.75683594 c 0
 1657.296875 1395.07324219 1685 1367.56835938 1685 1319 c 0
 1685 1270.03027344 1670.06152344 1247.01953125 1650.59960938 1233 c 0
 1627 1216 1597.66210938 1210.97363281 1581 1198.49804688 c 0
 1549.47558594 1174.89550781 1543.53125 1129.55175781 1507 827 c 2
 1468 504 l 2
 1450.79882812 361.537109375 1445.52148438 265.18359375 1464.57714844 238 c 0
 1480 216 1521.81054688 210.078125 1545.11621094 188 c 0
 1558.95898438 174.88671875 1565 158.365234375 1565 128 c 0
 1565 54 1490.64746094 16.814453125 1454 6 c 0
 1393 -12 1286 -17 1195 -17 c 0
 1109 -17 947 -17 888 6 c 0
 836.25 26.173828125 814 64 814 109 c 0
 814 151.15234375 827.977539062 172.594726562 846.264648438 188 c 0
 866.255859375 204.840820312 891.327148438 208.555664062 912.9140625 226 c 0
 933.540039062 242.66796875 950.389648438 266.905273438 961 312 c 0
 969 346 972 372 976 404 c 0
 981.109375 444.876953125 986 469 989 517 c 0
 992 560 983.11328125 580.366210938 961 587 c 0
 931 596 915 596 847 596 c 0
 787 596 763.03125 595.75390625 725 591 c 0
 685 586 671 565 665 530 c 0
 655 471 653.670898438 450.038085938 649 408 c 0
 642 345 642.609375 308.97265625 641 280 c 0
 639.524414062 253.436523438 647.525390625 236.436523438 658.533203125 223 c 0
 671.78125 206.828125 692.192382812 199.396484375 707.629882812 187 c 0
 723.48046875 174.271484375 735 160.647460938 735 135 c 0
 735 72.8369140625 702.064453125 26.0869140625 622 3.23828125 c 0
 560.061523438 -14.4384765625 469.918945312 -15 345 -15 c 0
 235.603515625 -15 144.065429688 -14.9150390625 88 8.892578125 c 0
 22.7470703125 36.6015625 2 60.4169921875 2 120 c 0
 2 148 15.1396484375 174.831054688 38 191 c 0
 79 220 115 212 133 260 c 0
 153.749023438 315.331054688 171.051757812 390.921875 197 591 c 2
EndSplineSet
EndChar

StartChar: I
Encoding: 73 73 9
Width: 913
VWidth: 1920
Flags: HMW
AnchorPoint: "ogonek" 346 0 basechar 0
AnchorPoint: "top" 455 1400 basechar 0
AnchorPoint: "bottom" 276 0 basechar 0
LayerCount: 2
Fore
SplineSet
254 646 m 2
 279 872 l 2
 303.918945312 1095.18847656 303.94140625 1173.62402344 268.155273438 1206 c 0
 244.767578125 1227.15917969 198.381835938 1222.66210938 174.493164062 1236 c 0
 153 1248 146 1269.50585938 146 1299 c 0
 146 1332.8828125 168.986328125 1363.58984375 209 1389.63867188 c 0
 268.806640625 1428.57324219 378.405273438 1448 558 1448 c 0
 657.8125 1448 834.331054688 1443 923 1404.55957031 c 0
 956.424804688 1390.06933594 979 1358.33105469 979 1326 c 0
 979 1280.76074219 968.084960938 1257.43066406 939.497070312 1236 c 0
 905.82421875 1210.75683594 860.860351562 1229.15820312 831.112304688 1188 c 0
 797.969726562 1142.14648438 786.874023438 1039.77734375 770 911 c 2
 730 601 l 2
 717.481445312 505.4609375 712 362.396484375 712 313 c 0
 712 286.666015625 713.194335938 255.849609375 728.213867188 238 c 0
 751.114257812 210.784179688 792.231445312 209.465820312 816.53515625 192 c 0
 839.98046875 175.151367188 859 158.001953125 859 113 c 0
 859 61.7841796875 810.73828125 17.1455078125 742 -2.455078125 c 0
 652.900390625 -27.861328125 529.395507812 -28 432 -28 c 0
 245.249023438 -28 142.206054688 -18.955078125 84 4.34765625 c 0
 27.197265625 27.0888671875 13 63.5498046875 13 107 c 0
 13 140.528320312 30.455078125 171.750976562 57.775390625 191 c 0
 89 213 123 207 147 227.43359375 c 0
 169.380859375 246.48828125 185.927734375 300.532226562 198 340 c 0
 219.97265625 411.833007812 237.822265625 501.103515625 254 646 c 2
EndSplineSet
EndChar

StartChar: J
Encoding: 74 74 10
Width: 923
VWidth: 1920
Flags: HMW
AnchorPoint: "top" 524 1400 basechar 0
LayerCount: 2
Fore
SplineSet
254 101 m 2
 355 921 l 2
 376 1091 365 1162 334 1193 c 0
 315 1212 280 1218 262 1233 c 0
 246 1247 239 1258 239 1288 c 0
 239 1337.234375 269 1373 316 1395 c 0
 379 1425 484 1445 637 1445 c 0
 761 1445 877 1433 945 1402 c 0
 1000 1377 1016 1349.38183594 1016 1312 c 0
 1016 1270 998 1248 977 1235 c 0
 948 1216 907 1207 879 1169 c 0
 847 1125 833 1025 811 844 c 2
 735 224 l 2
 674 -269 450 -459 113 -459 c 0
 -201 -459 -303 -353 -303 -209 c 0
 -303 -91.1650390625 -219 17 -71 17 c 0
 212 17 98 -232 165 -232 c 0
 177 -232 196 -221 206 -193 c 0
 222 -150 236 -46 254 101 c 2
EndSplineSet
EndChar

StartChar: K
Encoding: 75 75 11
Width: 1585
VWidth: 1920
Flags: HMW
AnchorPoint: "top" 982 1400 basechar 0
AnchorPoint: "bottom" 942 0 basechar 0
LayerCount: 2
Fore
SplineSet
225 591 m 2
 257 906 l 2
 272.259765625 1053.82910156 281 1136 253.142578125 1171 c 0
 227.483398438 1203.23828125 185 1207 165.047851562 1223 c 0
 151.696289062 1233.70703125 144 1248.79199219 144 1274 c 0
 144 1338 183 1373 238 1395 c 0
 299.483398438 1419.59277344 367 1440 538 1440 c 0
 628.611328125 1440 713.453125 1438.96582031 774 1419.65625 c 0
 830.68359375 1401.57910156 865 1355.9296875 865 1316 c 0
 865 1273.54589844 849.509765625 1257.91601562 824.546875 1239 c 0
 801.55859375 1221.58007812 776.345703125 1210.71679688 757.416015625 1193 c 0
 737.430664062 1174.29589844 725.564453125 1151.16992188 717.721679688 1103 c 0
 713.940429688 1079.77832031 710.864257812 1052.50585938 708 1021 c 0
 699 922 700 887 719 887 c 0
 737 887 760.377929688 901.612304688 790 930 c 2
 934 1068 l 2
 965.015625 1099.87695312 1027 1187 1027 1204 c 0
 1027 1212.05859375 1021.1484375 1218.140625 1013.53125 1226 c 0
 1006.08105469 1233.68652344 996.942382812 1244.20410156 989.938476562 1254 c 0
 983.59375 1262.87402344 979 1280.43847656 979 1298 c 0
 979 1410 1138 1439 1318 1439 c 0
 1525 1439 1590 1401 1590 1299 c 0
 1590 1255.32128906 1568.22363281 1226.25097656 1538 1210.93554688 c 0
 1506.1796875 1194.81152344 1471.99511719 1196.50097656 1437 1191.67285156 c 0
 1414.79101562 1188.60839844 1389.22363281 1168.28710938 1376 1157 c 2
 1096 913 l 2
 1088.18847656 906.33203125 1079 896 1079 879 c 0
 1079 866 1092.23339844 845.681640625 1104 824 c 2
 1374 322 l 2
 1388.33398438 295.586914062 1403.00488281 274.225585938 1417.34472656 257 c 0
 1429.74511719 242.104492188 1441.8984375 230.301757812 1453.37207031 221 c 0
 1479.79296875 199.580078125 1503.56152344 189.51953125 1522 178.39453125 c 0
 1546.02539062 163.8984375 1561 147.595703125 1561 102 c 0
 1561 7 1475 -25 1341 -25 c 2
 1127 -25 l 2
 1094 -25 1058.71679688 -17.3271484375 1032 0 c 0
 995.141601562 23.904296875 977.893554688 53.1083984375 944 122 c 2
 757 506 l 2
 737.350585938 545.940429688 700.21875 570.704101562 680 556 c 0
 669 548 661.271484375 508.326171875 660 474 c 2
 657 390 l 2
 654.038085938 310.021484375 650.9609375 252.1015625 666.333007812 231 c 0
 679.963867188 212.2890625 708.54296875 205.0078125 728 192.73046875 c 0
 747.724609375 180.284179688 762 163.116210938 762 133 c 0
 762 10 559 -28 334 -28 c 0
 248 -28 171 -23 114 -4 c 0
 63.3720703125 12.8759765625 35 53 35 96 c 0
 35 129.551757812 41.7626953125 147.081054688 54.595703125 163 c 0
 80.1923828125 194.751953125 106.548828125 187.788085938 137.364257812 236 c 0
 179.069335938 301.250976562 208.446289062 430.638671875 225 591 c 2
EndSplineSet
EndChar

StartChar: L
Encoding: 76 76 12
Width: 1374
VWidth: 1920
Flags: HMW
AnchorPoint: "top" 683 1390 basechar 0
AnchorPoint: "bottom" 842 0 basechar 0
LayerCount: 2
Fore
SplineSet
382 -11 m 4
 296 -11 232 -24 147 -24 c 4
 64 -24 13 34 13 91 c 4
 13 127.982421875 24.3486328125 158.272460938 50.015625 179 c 4
 77.3671875 201.088867188 115.067382812 204.119140625 146 227.526367188 c 4
 172.74609375 247.764648438 194.43359375 300.536132812 200 324 c 4
 215.396484375 388.907226562 221.954101562 414.87109375 240 574 c 6
 273 879 l 6
 289.041015625 1020.44921875 291 1059 291 1121 c 4
 291 1165.93847656 273.72265625 1183.05859375 252 1195.11230469 c 4
 227.76171875 1208.5625 197.745117188 1211.47851562 175 1220.57714844 c 4
 157.575195312 1227.546875 144 1243.58886719 144 1264 c 4
 144 1319 161.993164062 1383.03710938 219 1398 c 4
 270.217773438 1411.44335938 489 1437 610 1437 c 4
 745.170898438 1437 829.368164062 1428.08398438 881 1410.56738281 c 4
 942.913085938 1389.5625 958 1356.19238281 958 1311 c 4
 958 1247.00195312 926.3984375 1220.99609375 890 1207.33007812 c 4
 848.65625 1191.80761719 815.564453125 1203.72558594 788.315429688 1162 c 4
 752.75390625 1107.54492188 739.005859375 998.583984375 725 792 c 6
 709 542 l 6
 699.064453125 395.453125 697.233398438 297.786132812 719 268 c 4
 738 242 768 230 867 230 c 4
 952 230 996.596679688 246.93359375 1041 280 c 4
 1093.71777344 319.2578125 1112.84179688 378.2421875 1140 422.947265625 c 4
 1163.85058594 462.208007812 1194.35449219 490 1253 490 c 4
 1318 490 1385 440 1385 352 c 4
 1385 290.90625 1371.11523438 186.634765625 1325.86425781 102 c 4
 1287.53320312 30.3076171875 1228.703125 -38 1168 -38 c 4
 1104 -38 1103 -12 1055 -12 c 4
 938 -12 874 -18 789 -18 c 4
 702 -18 466 -11 382 -11 c 4
EndSplineSet
EndChar

StartChar: M
Encoding: 77 77 13
Width: 1909
VWidth: 1920
Flags: HMW
AnchorPoint: "top" 1030 1400 basechar 0
AnchorPoint: "bottom" 731 0 basechar 0
LayerCount: 2
Fore
SplineSet
285 640 m 2
 325 864 l 2
 333.909587695 913.893691092 341 988 341 1057 c 0
 341 1120 321 1145 295 1159 c 0
 262 1177 218 1178 195 1196 c 0
 181 1207 170 1227 170 1258 c 0
 170 1320 223 1381 327 1411 c 0
 399 1431 501 1441 605 1441 c 0
 656 1441 694 1434 716 1426 c 0
 807 1395 816 1335 852 1242 c 2
 946 981 l 2
 972 913 981 839 1020 839 c 0
 1058 839 1103 912 1138 975 c 0
 1213 1111 1250 1183 1321 1300 c 0
 1352 1351 1380 1384 1421 1405 c 0
 1451 1420 1484 1436 1556 1436 c 0
 1642 1436 1734 1436 1840 1419 c 0
 1892.66601562 1410.55371094 1933 1351.01953125 1933 1296 c 0
 1933 1239.57910156 1905.70410156 1207.25390625 1880 1193.75976562 c 0
 1852.34667969 1179.2421875 1815.28125 1176.453125 1790.83984375 1152 c 0
 1757.5234375 1118.66699219 1741.14453125 1015.94335938 1737 912 c 2
 1720 484 l 2
 1718.5078125 447.408203125 1716 402 1716 368 c 0
 1716 339.4921875 1716 247.212890625 1741.79785156 225 c 0
 1754.50292969 214.060546875 1768.17285156 208.639648438 1783 204.580078125 c 0
 1802.48046875 199.24609375 1821.87695312 190.529296875 1838.13085938 171 c 0
 1849.54492188 157.286132812 1857 134.516601562 1857 113 c 0
 1857 54.9716796875 1813.9375 19.6259765625 1745 -1.873046875 c 0
 1647.31835938 -32.3369140625 1497.68457031 -35 1345 -35 c 0
 1244.33007812 -35 1183.00195312 -21.4912109375 1144 -6.4111328125 c 0
 1097.38964844 11.609375 1083 45.06640625 1083 82 c 0
 1083 125.822265625 1098 149 1118 163 c 0
 1133 174 1144 177 1172 185 c 0
 1212 196 1237.38867188 209.581054688 1250 343 c 2
 1269 555 l 2
 1280 648 1267 674 1240 674 c 0
 1215 674 1183.29101562 606.639648438 1156 562 c 2
 1018 333 l 2
 959.0546875 236.58203125 890 138 834 138 c 0
 778 138 737.967773438 230.703125 721 285 c 0
 696 365 662 469 628 567 c 0
 615.120117188 604.123046875 596 656 576 656 c 0
 549 656 535.581054688 633.48828125 522 554 c 2
 488 355 l 2
 481.0390625 314.259765625 480 284 480 256 c 0
 480 216.755859375 495.771484375 196.838867188 528 173.04296875 c 0
 551.858398438 155.426757812 564.697265625 154.37890625 578.483398438 141 c 0
 588.434570312 131.34375 593 116.875976562 593 102 c 0
 593 -31.423828125 398.111328125 -35 302 -35 c 0
 180.553710938 -35 101.604492188 -30.0859375 55 -5.7294921875 c 0
 16.4130859375 14.4365234375 0 48.9306640625 0 94 c 0
 0 132.247070312 37.03515625 166.737304688 59 178.709960938 c 0
 80.9384765625 190.66796875 110.446289062 190.888671875 135.213867188 213 c 0
 178.69140625 251.814453125 213.112304688 346.624023438 231 418 c 0
 247.095703125 482.225585938 273.485072717 575.516407216 285 640 c 2
EndSplineSet
AlternateSubs2: "'swsh' Swash in Latin lookup 1-1" M.swsh
EndChar

StartChar: N
Encoding: 78 78 14
Width: 1713
VWidth: 1920
Flags: HMW
AnchorPoint: "top" 842 1400 basechar 0
AnchorPoint: "bottom" 793 0 basechar 0
LayerCount: 2
Fore
SplineSet
262 551 m 1
 287 688 l 2
 313.256835938 831.887695312 316 1011 316 1077 c 0
 316 1132.31835938 306.854492188 1158.40234375 286 1173 c 0
 256 1194 206.4453125 1185.41113281 177 1206 c 0
 156.708984375 1220.1875 144 1245.75097656 144 1278 c 0
 144 1322 180.484375 1370.93359375 221 1390 c 0
 323 1438 590.547851562 1448.47753906 664 1439 c 0
 726 1431 796.178710938 1382.02929688 876 1265 c 2
 1127 897 l 2
 1146.34863281 868.6328125 1224 745 1255 745 c 0
 1288 745 1292.70703125 782.133789062 1298 888 c 2
 1300 924 l 6
 1304.48632812 1013.72558594 1302.00097656 1136.73144531 1288 1161 c 4
 1258 1213 1209 1181 1167 1214 c 4
 1154.19921875 1224.05761719 1138 1248.74316406 1138 1280 c 4
 1138 1378 1219 1442 1475 1442 c 4
 1698 1442 1806 1426 1806 1314 c 4
 1806 1264.64160156 1788.22265625 1239.83203125 1750.99121094 1218 c 4
 1722 1201 1671.57519531 1202.02929688 1648.13085938 1176 c 4
 1604.55175781 1127.61523438 1599.47265625 1014.78417969 1575 819 c 2
 1528 439 l 2
 1508.84863281 284.158203125 1494.1875 181.254882812 1462.37890625 110 c 0
 1415.31640625 4.57421875 1343.79785156 -28 1271 -28 c 0
 1195 -28 1123.81445312 16.900390625 1086 73 c 2
 691 659 l 2
 662.744140625 700.918945312 632 749 600 749 c 0
 576 749 551.0390625 706.619140625 536 471 c 2
 533 424 l 2
 528.147460938 347.981445312 521.778320312 272.515625 541.639648438 239 c 0
 566.991210938 196.21875 597.173828125 195.58984375 624.799804688 179 c 0
 648.688476562 164.654296875 669 140.140625 669 104 c 0
 669 -4 515 -25 349 -25 c 0
 186 -25 25 -23 25 102 c 0
 25 125.818359375 37.6181640625 158.955078125 60.068359375 176 c 0
 88.3779296875 197.494140625 128.416015625 186.4140625 166.263671875 219 c 0
 200.09375 248.126953125 244.555664062 411.444335938 262 551 c 1
EndSplineSet
AlternateSubs2: "'swsh' Swash in Latin lookup 1-1" N.swsh
EndChar

StartChar: O
Encoding: 79 79 15
Width: 1590
VWidth: 1920
Flags: HMW
AnchorPoint: "bottom" 760 0 basechar 0
AnchorPoint: "top" 968 1400 basechar 0
LayerCount: 2
Fore
SplineSet
92 531 m 256
 92 992 461 1450 976 1450 c 256
 1343 1450 1592 1214 1592 878 c 256
 1592 255 1157 -55 730 -55 c 256
 327 -55 92 166 92 531 c 256
774 224 m 256
 938 224 1044 551 1044 911 c 256
 1044 1079 1022 1170 931 1170 c 256
 805 1170 658 900 658 481 c 256
 658 278 691 224 774 224 c 256
EndSplineSet
EndChar

StartChar: P
Encoding: 80 80 16
Width: 1398
VWidth: 1920
Flags: HMW
AnchorPoint: "top" 703 1400 basechar 0
AnchorPoint: "bottom" 424 0 basechar 0
LayerCount: 2
Fore
SplineSet
774 747 m 0
 807.065429688 747 843.754882812 762.875976562 875.192382812 801 c 0
 918.604492188 853.646484375 952 948.720703125 952 1103 c 0
 952 1173 927 1230 827 1230 c 0
 791 1230 776 1213 772 1202 c 0
 766.271484375 1186.24609375 760.62109375 1160.54492188 747 1033 c 2
 736 930 l 2
 729.15234375 865.876953125 722 802 722 784 c 0
 722 764 731 747 774 747 c 0
689 458 m 2
 683 374 l 6
 678.426395939 309.969543147 687 224 713 197 c 0
 735 174 775 181 802 161 c 0
 824 145 832 125 832 94 c 0
 832 30 780 4 715 -14 c 0
 654 -31 516 -35 425 -35 c 0
 308 -35 204 -32 132 -12 c 0
 68 5 30 35 30 86 c 0
 30 129 40 148 61 166 c 0
 89 189 112 181 144 205 c 0
 175 228 220.582120582 370.738045738 241 572 c 2
 269 848 l 2
 297 1099 291 1180 257 1209 c 0
 234 1229 204 1218 183 1233 c 0
 169 1243 149 1261 149 1303 c 0
 149 1417 273 1442 370 1442 c 0
 438 1442 537 1424 649 1424 c 0
 781 1424 865 1441 1094 1441 c 0
 1241 1441 1457 1336 1457 1066 c 0
 1457 881 1375 757 1259 660 c 0
 1162 579 982 518 827 518 c 0
 756 518 730 517 715 509 c 0
 705 504 692 496 689 458 c 2
EndSplineSet
AlternateSubs2: "'swsh' Swash in Latin lookup 1-1" P.swsh
EndChar

StartChar: Q
Encoding: 81 81 17
Width: 1681
VWidth: 1920
Flags: HMW
AnchorPoint: "top" 890 1400 basechar 0
LayerCount: 2
Fore
SplineSet
1184 26 m 0
 1235 3 1270 -8 1321 -8 c 0
 1367.7109375 -8 1399 10 1420 21.1943359375 c 4
 1428.79589844 25.8837890625 1438.43945312 29.0341796875 1449 31.5595703125 c 0
 1457.96386719 33.703125 1467.78320312 35 1479 35 c 0
 1522 35 1582 -18 1582 -68 c 0
 1582 -187 1411 -395 1143 -395 c 0
 715 -395 599 -41 343 -41 c 0
 263 -41 257 -84 175 -84 c 0
 123 -84 84 -36 84 11 c 0
 84 81 112 126 152 156 c 0
 174.528320312 172.896484375 172.591796875 193.543945312 159 216 c 0
 113 292 80 383 80 512 c 0
 80 964 422 1448 998 1448 c 0
 1347 1448 1598 1241 1598 873 c 0
 1598 540 1470 232 1181.078125 84.2958984375 c 0
 1150.84179688 68.837890625 1142 68 1142 60 c 0
 1142 53 1146.75878906 42.794921875 1184 26 c 0
768 212 m 256
 962 212 1028 571 1028 931 c 256
 1028 1099 1006 1190 915 1190 c 256
 789 1190 652 888 652 469 c 256
 652 266 685 212 768 212 c 256
EndSplineSet
EndChar

StartChar: R
Encoding: 82 82 18
Width: 1607
VWidth: 1920
Flags: HMW
AnchorPoint: "top" 773 1400 basechar 0
AnchorPoint: "bottom" 894 0 basechar 0
LayerCount: 2
Fore
SplineSet
700 556 m 2
 689 452 l 2
 678.09375 348.884765625 681.65625 255.068359375 699.8046875 220 c 0
 720.76953125 179.490234375 741.620117188 182.676757812 768.44921875 161 c 0
 786.141601562 146.705078125 798 126.377929688 798 103 c 0
 798 68.1240234375 780.823242188 35.14453125 735 9.96484375 c 0
 683.1953125 -18.501953125 593.943359375 -37 436 -37 c 0
 283.174804688 -37 185.244140625 -26.5888671875 126 -6.1328125 c 0
 69.251953125 13.4609375 32 40.107421875 32 95 c 0
 32 130.892578125 42.271484375 149.958007812 61.7060546875 163 c 0
 93 184 123 168 157.388671875 225 c 0
 191.724609375 281.912109375 215.750976562 413.515625 241 611 c 2
 269 842 l 2
 289.864257812 1005.19042969 297.147460938 1138.24609375 263.1328125 1183 c 0
 238.677734375 1215.17675781 203 1206 172.016601562 1228 c 0
 156.272460938 1239.1796875 144 1260.05761719 144 1292 c 0
 144 1357 206 1418 333 1418 c 0
 431 1418 479 1415 581 1415 c 0
 733 1415 945 1425 1094 1425 c 0
 1321 1425 1467 1278 1467 1128 c 0
 1467 981 1392 842 1281 780 c 0
 1263.78125 770.381835938 1244 761 1244 743 c 0
 1244 726 1266.43164062 707.522460938 1283 702 c 0
 1334 685 1370.54785156 641.176757812 1391 577 c 0
 1439.50683594 424.788085938 1427.32324219 243.032226562 1461 200 c 0
 1479 177 1500 182 1523 168 c 0
 1546.87597656 153.466796875 1565 132 1565 101 c 0
 1565 45 1493 -43 1303 -43 c 0
 1163 -43 1083.89941406 -17.1103515625 1022 39 c 0
 883 165 953.81640625 393.413085938 883 531 c 0
 848 599 803 601 771 601 c 0
 750 601 735.592773438 599.979492188 725 595 c 0
 715.602539062 590.583007812 702.625 580.81640625 700 556 c 2
806 815 m 0
 931 815 947 1024 947 1114 c 0
 947 1174 898 1220 846 1220 c 4
 821 1220 782 1215 773 1189 c 0
 765.135742188 1166.28125 746.967773438 1099.60253906 741 1025 c 2
 735 938 l 2
 732.450195312 906.124023438 733 871 735 846 c 0
 738 818 758 815 806 815 c 0
EndSplineSet
AlternateSubs2: "'swsh' Swash in Latin lookup 1-1" R.swsh
EndChar

StartChar: S
Encoding: 83 83 19
Width: 1303
VWidth: 1920
Flags: HMW
AnchorPoint: "top" 780 1400 basechar 0
AnchorPoint: "bottom" 640 0 basechar 0
LayerCount: 2
Fore
SplineSet
298 535.33203125 m 0
 311.10546875 519.936523438 321.317382812 500.952148438 330.23046875 480 c 0
 340.782226562 455.194335938 349.512695312 427.631835938 359.06640625 400 c 0
 389.90234375 310.815429688 429.291015625 221 566 221 c 256
 654 221 702 261 702 312 c 256
 702 368 685 416 496 538 c 0
 328.788085938 645.935546875 225 788 225 973 c 256
 225 1243 458 1439 796 1439 c 256
 910 1439 949 1421 987 1421 c 0
 1004 1421 1041 1443 1096 1443 c 0
 1151 1443 1302 1356 1302 1159 c 0
 1302 1108.31640625 1288.89648438 1058.62109375 1259.63867188 1024 c 0
 1235.41210938 995.33203125 1200.109375 977 1152 977 c 0
 1118.45019531 977 1091.9375 983.294921875 1070 993.627929688 c 0
 1027.43652344 1013.67675781 1002.09570312 1048.92773438 976 1082.90332031 c 0
 940.493164062 1129.13183594 903.588867188 1173 820 1173 c 256
 749 1173 727 1136 727 1096 c 256
 727 1015 885.974609375 951.44140625 1023 865 c 0
 1237 730 1276 627 1276 468 c 256
 1276 337.293945312 1206.91601562 165.565429688 1025 60.3515625 c 0
 925.294921875 2.685546875 791.6953125 -35 617 -35 c 256
 440 -35 265.997070312 -4.9970703125 175 86 c 0
 113 148 47 259 47 375 c 0
 47 506 124 575 208 575 c 0
 249.39453125 575 277.303710938 559.645507812 298 535.33203125 c 0
EndSplineSet
EndChar

StartChar: T
Encoding: 84 84 20
Width: 1391
VWidth: 1920
Flags: HMW
AnchorPoint: "top" 802 1400 basechar 0
AnchorPoint: "bottom" 662 0 basechar 0
LayerCount: 2
Fore
SplineSet
486 611 m 6
 523 921 l 6
 543.9765625 1096.74804688 541 1137 527 1148 c 4
 518.248046875 1154.87597656 500.973632812 1157.4296875 484 1155.13085938 c 4
 470.29296875 1153.27539062 435.614257812 1146.86816406 401.353515625 1087 c 4
 355 1006 349.1640625 961.982421875 293 927.216796875 c 4
 274.4296875 915.721679688 252.197265625 909 225 909 c 4
 137 909 89 983 89 1058 c 4
 89 1228 245 1435 338 1435 c 4
 395 1435 415 1420 528 1420 c 6
 1100 1420 l 6
 1213 1420 1232 1438 1289 1438 c 4
 1390 1438 1484 1257 1484 1117 c 4
 1484 1055.38867188 1461.91210938 1000.56933594 1428.56152344 963 c 4
 1399.77734375 930.575195312 1362.60351562 911 1324 911 c 4
 1286.72460938 911 1260.53417969 917.990234375 1239 934.013671875 c 4
 1220.63183594 947.680664062 1205.65234375 967.919921875 1190.07128906 996 c 4
 1141.53515625 1083.47265625 1160.05957031 1129.74707031 1121 1150 c 4
 1097.31152344 1162.28320312 1070.38769531 1165.04101562 1053 1152 c 4
 1029 1134 1016.25878906 1022.83496094 1005 914 c 6
 975 624 l 6
 958.559570312 465.080078125 954.463867188 392.55859375 957 330 c 4
 958.68359375 288.470703125 964.86328125 258.53125 982.954101562 238 c 4
 1002.64746094 215.651367188 1048.10839844 210.646484375 1075 194.314453125 c 4
 1103.55761719 176.970703125 1115 158.190429688 1115 124 c 4
 1115 81.43359375 1093.1328125 8.1044921875 951 -18.91796875 c 4
 869.296875 -34.451171875 766.282226562 -35 664 -35 c 4
 544.755859375 -35 445.608398438 -32.3681640625 372 -13.490234375 c 4
 320.873046875 -0.37890625 237 33.412109375 237 114 c 4
 237 159.838867188 250.416015625 182.734375 275.588867188 199 c 4
 301.893554688 215.997070312 343.380859375 210.366210938 377 227.89453125 c 4
 405.590820312 242.80078125 425.748046875 269.40234375 441 332 c 4
 455.375976562 391.002929688 470.30859375 479.53125 486 611 c 6
EndSplineSet
AlternateSubs2: "'swsh' Swash in Latin lookup 1-1" T.swsh
EndChar

StartChar: U
Encoding: 85 85 21
Width: 1587
VWidth: 1920
Flags: HMW
AnchorPoint: "ogonek" 934 0 basechar 0
AnchorPoint: "top" 958 1400 basechar 0
AnchorPoint: "bottom" 839 0 basechar 0
LayerCount: 2
Fore
SplineSet
1525 889 m 6
 1494 624 l 22
 1474.90625 460.778320312 1439.09472656 276.39453125 1322.3515625 141 c 4
 1222.35546875 25.0283203125 1060.5859375 -55 826 -55 c 4
 634 -55 419 -26 321 70 c 4
 236.569335938 152.70703125 185.580078125 291.1640625 206 468 c 6
 256 911 l 6
 277.481445312 1097.03027344 282.4921875 1140.41992188 233 1168.39453125 c 4
 213.666992188 1179.32226562 191.560546875 1183.015625 174.0078125 1196 c 4
 160.85546875 1205.72949219 144 1221.8203125 144 1268 c 4
 144 1364 234.927734375 1396.33984375 281 1406 c 4
 343 1419 480 1435 571 1435 c 4
 697 1435 764.991210938 1429.94433594 811 1419 c 4
 863.145507812 1406.59570312 930 1373 930 1282 c 4
 930 1252.921875 920.639648438 1228.15625 894.192382812 1207 c 4
 875.784179688 1192.27441406 849.444335938 1192.00488281 824 1172.26171875 c 4
 774.239257812 1133.65039062 757.045898438 972.033203125 748 887 c 6
 713 548 l 6
 703.69140625 460.500976562 700.546875 388.077148438 724.407226562 346 c 4
 754.11328125 293.615234375 801.745117188 270 884 270 c 4
 976.779296875 270 1042.78710938 294.791992188 1089.77929688 339 c 4
 1156.26464844 401.545898438 1184.68457031 502.956054688 1197 628 c 6
 1223 892 l 6
 1241.62304688 1081.09082031 1237.89257812 1147.50097656 1186 1173.64355469 c 4
 1160.72070312 1186.37792969 1128.34277344 1188.73828125 1108.86132812 1203 c 4
 1089.77636719 1216.97070312 1071 1237 1071 1288 c 4
 1071 1383 1173 1435 1409 1435 c 4
 1572 1435 1679 1420 1679 1305 c 4
 1679 1250.86230469 1669.70019531 1226.43457031 1653.51367188 1207 c 4
 1638.1171875 1188.51367188 1611.57519531 1180.40820312 1590 1154.72070312 c 4
 1559.38378906 1118.26953125 1543.484375 1047.01367188 1525 889 c 6
EndSplineSet
EndChar

StartChar: V
Encoding: 86 86 22
Width: 1509
VWidth: 1920
Flags: HMW
AnchorPoint: "top" 911 1400 basechar 0
AnchorPoint: "bottom" 712 0 basechar 0
LayerCount: 2
Fore
SplineSet
1123 1029 m 0
 1150 1098 1153 1136 1153 1157 c 0
 1153 1176.1796875 1145.12988281 1188.84375 1134.04394531 1199 c 0
 1118.828125 1212.93945312 1097.5546875 1222.15234375 1082.25878906 1237 c 0
 1071.01367188 1247.91601562 1063 1261.87695312 1063 1283 c 0
 1063 1387 1135 1435 1348 1435 c 4
 1539 1435 1638 1407 1638 1311 c 0
 1638 1258 1611.72265625 1238.83300781 1592 1227 c 0
 1567 1212 1527.05957031 1208.90039062 1502 1189 c 0
 1468 1162 1447.83496094 1124.80078125 1386 996 c 2
 1157 519 l 2
 1075.31347656 348.849609375 959 155 912 83 c 0
 861 5 810 -39 725 -39 c 0
 616 -39 590.057617188 -3.34765625 527 169 c 0
 409.315429688 490.653320312 372.852539062 658.372070312 302 946 c 0
 263.365234375 1102.83984375 245.662109375 1149.08105469 201 1166.98730469 c 0
 178.877929688 1175.85644531 152.159179688 1180.27832031 133.577148438 1197 c 0
 115.732421875 1213.05761719 105 1230.95019531 105 1263 c 0
 105 1322.81054688 137.572265625 1361.6796875 195 1386.3046875 c 0
 264.313476562 1416.02734375 369.836914062 1425 498 1425 c 0
 745 1425 885 1417 885 1299 c 0
 885 1264.97949219 866.600585938 1237.55957031 843.919921875 1223 c 0
 824.020507812 1210.22558594 799.825195312 1204.65234375 783.870117188 1192 c 0
 767.93359375 1179.36230469 760 1157.77246094 760 1128 c 0
 760 1096 771.434570312 1047.54492188 778 1018 c 0
 800 919 812 878 844 751 c 0
 855.915039062 703.712890625 881 612 903 612 c 0
 930 612 978.349609375 689.393554688 1002 743 c 0
 1047 845 1067.08496094 886.106445312 1123 1029 c 0
EndSplineSet
EndChar

StartChar: W
Encoding: 87 87 23
Width: 2304
VWidth: 1920
Flags: HMW
AnchorPoint: "top" 1384 1400 basechar 0
AnchorPoint: "bottom" 1208 0 basechar 0
LayerCount: 2
Fore
SplineSet
1899 1010 m 0
 1928.68945312 1088.38085938 1943 1126 1943 1167 c 0
 1943 1188.69140625 1934.69140625 1198.61035156 1923.33105469 1209 c 0
 1910.4375 1220.79199219 1893.86230469 1227.48339844 1880 1241.63085938 c 0
 1867.09960938 1254.79589844 1860 1275.71289062 1860 1301 c 0
 1860 1401 1943 1435 2146 1435 c 0
 2377 1435 2436 1416 2436 1328 c 0
 2436 1273.12695312 2406.29980469 1240.81152344 2385 1230.44238281 c 0
 2362.24414062 1219.36425781 2330.49609375 1219.41113281 2312 1208.16503906 c 0
 2268.49707031 1181.71484375 2231.37695312 1121.05175781 2171 1001 c 0
 1968.81347656 598.978515625 1825.99902344 286 1700 95 c 0
 1648.75585938 17.3203125 1599 -30 1515 -30 c 0
 1436 -30 1400.26855469 2.05859375 1351 145 c 0
 1297.62890625 299.84375 1271 398 1231 543 c 0
 1218.92773438 586.763671875 1204 625 1176 625 c 0
 1158 625 1141.58496094 599.775390625 1118 557 c 0
 1016 372 960.287109375 252.849609375 868 115 c 0
 816.490234375 38.0595703125 781 -36 676 -36 c 0
 579 -36 543.8359375 22.9736328125 506 164 c 0
 418 492 375.360351562 659.077148438 292 978 c 0
 255.698242188 1116.88476562 234.88671875 1156.8125 190 1171.12304688 c 0
 176.0859375 1175.55957031 149.254882812 1177.42578125 128 1195.84179688 c 0
 114.046875 1207.93066406 105 1223.44238281 105 1253 c 0
 105 1321 150 1366 206 1390 c 0
 258.616210938 1412.54980469 371 1425 504 1425 c 0
 659.561523438 1425 764.044921875 1425 814 1384.13476562 c 0
 836.560546875 1365.6796875 848 1338.88964844 848 1300 c 0
 848 1279.71386719 845.920898438 1258.96777344 837.073242188 1242 c 0
 824.099609375 1217.11914062 806.608398438 1204.56933594 787 1193.4375 c 0
 767.989257812 1182.64453125 752 1171.16601562 752 1143 c 0
 752 1081 753.662109375 1031.90429688 772 968 c 0
 805 853 816 818 830 766 c 0
 842.548828125 719.389648438 861 657 883 657 c 0
 901 657 935.49609375 697.692382812 964 749 c 0
 1019 848 1043 891 1070 950 c 0
 1083.22460938 978.8984375 1095 1004 1095 1019 c 0
 1095 1055 1082.90917969 1079.52832031 1065 1118 c 0
 1053.19433594 1143.36035156 1041.25585938 1171.54394531 1020.30273438 1189 c 0
 1009.61621094 1197.90136719 995.362304688 1201.19433594 982 1210.49902344 c 0
 964.546875 1222.65234375 955 1239.58007812 955 1274 c 0
 955 1311.74121094 967.661132812 1366.77441406 1039 1400.42382812 c 0
 1093.4609375 1426.11132812 1182.45019531 1435 1334 1435 c 0
 1450.74707031 1435 1540.60058594 1431.29980469 1599 1412.63085938 c 0
 1649.98828125 1396.33105469 1677 1368.62109375 1677 1322 c 0
 1677 1297.99121094 1670.97558594 1273.54003906 1658.90722656 1255 c 4
 1646.43554688 1235.83984375 1627.4765625 1224.89160156 1604 1211.88476562 c 4
 1574.16601562 1195.35644531 1557 1183.95117188 1557 1145 c 0
 1557 1113 1566.40527344 1058.43847656 1573 1028 c 0
 1599 908 1606 872 1631 788 c 0
 1644.88085938 741.359375 1673 654 1705 654 c 0
 1732 654 1770.71386719 738.571289062 1799 790 c 0
 1843 870 1874 944 1899 1010 c 0
EndSplineSet
EndChar

StartChar: X
Encoding: 88 88 24
Width: 1480
VWidth: 1920
Flags: HMW
LayerCount: 2
Fore
SplineSet
911 1087 m 2
 959 1145 l 2
 975 1165 996 1205 996 1226 c 0
 996 1245 993.400390625 1256.83105469 990 1266 c 0
 987.227539062 1273.47460938 983.172851562 1282.06738281 980 1290 c 0
 976 1300 972 1308 972 1326 c 0
 972 1377 1011 1436 1274 1436 c 0
 1415 1436 1503 1399 1503 1321 c 0
 1503 1277.97558594 1480.32617188 1249.30957031 1452 1236.96484375 c 0
 1422.88574219 1224.27636719 1389.74023438 1227.15136719 1351 1215.15917969 c 0
 1269.78710938 1190.02050781 1143.71679688 1028.43945312 1095 963 c 2
 1023 867 l 2
 1019 862 995 833 995 811 c 0
 995 793 1009 764 1015 753 c 2
 1250 326 l 6
 1285 264 1308 241 1337 226 c 4
 1373 208 1391 215 1418 204 c 4
 1441.2265625 194.537109375 1457 177 1457 133 c 4
 1457 65.94921875 1414.03417969 25.34765625 1345 1.31640625 c 4
 1271.91210938 -24.125 1169.58300781 -31 1058 -31 c 4
 739 -31 684 18 684 91 c 4
 684 126 691 149 704 163 c 4
 719 179 736 185 751 191 c 4
 766 197 778 207 778 220 c 4
 778 232 768 265 758 287 c 6
 718 379 l 6
 704 411 680 451 661 451 c 4
 645 451 622.684570312 423.278320312 604 398 c 6
 536 306 l 6
 517.9609375 281.59375 496 240 496 219 c 4
 496 198.3125 503.38671875 186.376953125 512.841796875 176 c 4
 521.239257812 166.784179688 533.267578125 155.796875 539.202148438 147 c 4
 547.16796875 135.19140625 553 119.536132812 553 95 c 4
 553 5 453 -37 250 -37 c 4
 39 -37 -22 -10 -22 92 c 4
 -22 126.701171875 -8.029296875 148.27734375 14 167.612304688 c 4
 33.21875 184.48046875 79.3125 193.03125 109 207.901367188 c 4
 154.744140625 230.813476562 223.569335938 298.481445312 325 413 c 6
 511 636 l 2
 524.340820312 651.0625 533 673 533 691 c 0
 533 714 522 738 513 753 c 2
 307 1102 l 2
 263.497070312 1175.70117188 259.995117188 1181.63378906 198 1202.83984375 c 0
 173.45703125 1211.234375 159.094726562 1216.48925781 143.336914062 1233 c 0
 130.028320312 1246.9453125 120 1265.1953125 120 1293 c 0
 120 1342 151 1372 205 1394 c 0
 290 1428 438 1438 588 1438 c 0
 820 1438 882 1400 882 1336 c 0
 882 1309.42578125 873.703125 1291.16601562 860.971679688 1278 c 0
 847.860351562 1264.44238281 830.860351562 1253.44238281 819 1244.40722656 c 0
 797.430664062 1227.97753906 791 1215.17382812 791 1200 c 0
 791 1179 796 1163 808 1142 c 2
 839 1085 l 2
 847 1071 862 1050 872 1050 c 0
 883 1050 901 1075 911 1087 c 2
EndSplineSet
EndChar

StartChar: Y
Encoding: 89 89 25
Width: 1462
VWidth: 1920
Flags: HMW
AnchorPoint: "top" 949 1400 basechar 0
LayerCount: 2
Fore
SplineSet
987 1061 m 2
 1045 1143 l 2
 1053.91113281 1155.59960938 1061 1179.95507812 1061 1191 c 0
 1061 1206 1056.0234375 1215.03125 1048 1221 c 0
 1037.30175781 1228.95800781 1026.91796875 1237.31152344 1017.2734375 1250 c 0
 1004.05078125 1267.39648438 1000 1279.16601562 1000 1309 c 0
 1000 1403 1123 1441 1309 1441 c 0
 1480 1441 1584 1405 1584 1326 c 0
 1584 1280.6015625 1559 1256 1533 1240 c 0
 1506.18066406 1223.61035156 1488.79589844 1222.76074219 1461 1214.70996094 c 0
 1407.78515625 1199.29785156 1392.69433594 1187.40722656 1347 1132 c 6
 1060 784 l 2
 1032 753 1025.47558594 725.173828125 1022 688 c 0
 999 442 993 348 993 288 c 0
 993 274.497070312 995.380859375 246.095703125 1009 231.057617188 c 0
 1027.12597656 211.043945312 1062.73828125 220.950195312 1096 207.62109375 c 0
 1125 196 1147 169.098632812 1147 133 c 0
 1147 66 1106.95507812 28.4658203125 1053 8 c 0
 995 -14 892 -33 714 -33 c 0
 612 -33 488 -32 406 -4 c 0
 349 15 298 54 298 99 c 0
 298 117.819335938 298 162.875976562 349 191.995117188 c 0
 384.32421875 212.1640625 424.850585938 210.422851562 449 232 c 0
 468.01171875 248.987304688 482.575195312 273.10546875 489 298 c 0
 505 360 506.12109375 394.985351562 536 639 c 0
 542 688 531.345703125 734.237304688 515 758 c 2
 283 1116 l 2
 272.443359375 1132.29003906 257 1168 231 1183 c 0
 204 1198 160.35546875 1185.14355469 132 1220 c 0
 122.041015625 1232.2421875 117 1246 117 1270 c 0
 117 1336.38964844 166.874023438 1378.35546875 223 1398 c 0
 323 1433 476 1435 581 1435 c 0
 683 1435 749 1431 813 1414 c 0
 876 1397 901 1356 901 1311 c 0
 901 1274.32128906 888.9921875 1259.06054688 877.072265625 1248 c 0
 858.734375 1230.984375 838.083984375 1218.08398438 827 1207 c 0
 820 1200 812 1192 812 1178 c 0
 812 1165.95800781 820.102539062 1146.53515625 832 1123 c 2
 878 1032 l 2
 890.693359375 1006.88867188 900 995 912 995 c 0
 934 995 963.577148438 1027.88476562 987 1061 c 2
EndSplineSet
AlternateSubs2: "'swsh' Swash in Latin lookup 1-1" Y.swsh
EndChar

StartChar: Z
Encoding: 90 90 26
Width: 1313
VWidth: 1920
Flags: HMW
AnchorPoint: "top" 629 1400 basechar 0
LayerCount: 2
Fore
SplineSet
433 -26 m 4
 347.014648438 -27.5634765625 269 -33 185 -33 c 0
 102 -33 26 10 26 81 c 0
 26 134 61.744140625 179.615234375 96 231 c 2
 628 1029 l 2
 660.598632812 1077.8984375 668 1102 668 1112 c 0
 668 1139 647.018554688 1156.70898438 598 1157 c 0
 539.829101562 1157.34570312 494.044921875 1157.74511719 453 1146 c 0
 397.362304688 1130.07910156 383.899414062 1096.15039062 360 1050 c 0
 331 994 307 936 233 936 c 0
 145 936 108 971 108 1059 c 0
 108 1239 227 1437 333 1437 c 0
 387 1437 419 1414 467 1414 c 0
 613 1414 646 1414 821 1418 c 0
 906.977539062 1419.96484375 1095 1419 1179 1419 c 0
 1262 1419 1321 1371 1321 1318 c 0
 1321 1274 1312.16992188 1250.44824219 1297 1226 c 2
 764 367 l 2
 752.034179688 347.715820312 743 322 743 303 c 0
 743 275 771 250 826 250 c 0
 878 250 926.020507812 253.888671875 971 262 c 0
 1032 273 1052.55957031 351.56640625 1074 390 c 0
 1111.96875 458.061523438 1133 467 1178 467 c 0
 1243 467 1293 410 1293 312 c 0
 1293 159 1176 -37 1090 -37 c 0
 1026 -37 905 -22 857 -22 c 0
 771 -22 708 -21 433 -26 c 4
EndSplineSet
EndChar

StartChar: a
Encoding: 97 97 27
Width: 1167
VWidth: 1920
Flags: HMW
AnchorPoint: "top" 713 1000 basechar 0
AnchorPoint: "ogonek" 759 0 basechar 0
LayerCount: 2
Fore
SplineSet
1167 242 m 0
 1167 122 879 -14 751 -14 c 0
 671 -14 641 32 641 77 c 0
 641 94.3427734375 642.102539062 114.294921875 638.6328125 131 c 0
 634.388671875 151.428710938 623.3046875 166 595 166 c 0
 557 166 542.634765625 138.483398438 506 104.026367188 c 0
 450.083984375 51.43359375 363.5625 -15 229 -15 c 0
 85 -15 0 110 0 308 c 0
 0 685 272 1029 574 1029 c 0
 649.708984375 1029 702.405273438 989.490234375 741 967.592773438 c 0
 761.549804688 955.93359375 778.1015625 955 792 955 c 0
 808.922851562 955 829.58203125 961.870117188 844 970.556640625 c 0
 872.645507812 987.815429688 898.4765625 1001.52832031 934 1016 c 0
 963.856445312 1028.16308594 997 1036 1054 1036 c 0
 1090 1036 1120 1013 1120 966 c 0
 1120 924 1114.9375 886.240234375 1107 832 c 0
 1089 709 1056 511 1056 371 c 0
 1056 339.407226562 1064.4765625 317.608398438 1075.8515625 307 c 0
 1091.86816406 292.063476562 1098.94140625 303.227539062 1133 292.822265625 c 0
 1140.26074219 290.603515625 1148.30859375 286.088867188 1154 279.368164062 c 0
 1158.12402344 274.498046875 1162.140625 268.282226562 1164.56835938 260 c 0
 1166.08300781 254.833007812 1167 248.879882812 1167 242 c 0
680 813 m 0
 549 813 426 519 426 363 c 0
 426 303 462 299 485 299 c 0
 586 299 724 614 724 763 c 0
 724 786 710 813 680 813 c 0
EndSplineSet
EndChar

StartChar: l
Encoding: 108 108 28
Width: 644
VWidth: 1920
Flags: HMW
AnchorPoint: "top" 356 1400 basechar 0
LayerCount: 2
Fore
SplineSet
77 551 m 2
 119 861 l 6
 144.196289062 1046.97363281 162 1174 117 1174 c 0
 92 1174 86 1172 56 1172 c 0
 20 1172 0 1197 0 1223 c 0
 0 1287 49 1322 135 1361 c 0
 215 1397 372 1436 523 1436 c 0
 589 1436 627 1392 627 1335 c 0
 627 1279 602 1201 586 1078 c 2
 521 572 l 2
 508 468 504 426 504 354 c 0
 504 312 518 303 545 303 c 0
 561.572265625 303 574.614257812 303.580078125 586 304.735351562 c 4
 590.829101562 305.225585938 597.26953125 306 602 306 c 0
 626 306 644 280 644 260 c 0
 644 189 618 135 510 72 c 0
 434 28 306 -17 188 -17 c 0
 131 -17 84 -3 60 20 c 0
 28 51 20 97 20 148 c 0
 20 234 40 275 77 551 c 2
EndSplineSet
EndChar

StartChar: v
Encoding: 118 118 29
Width: 1111
VWidth: 1920
Flags: HMW
LayerCount: 2
Fore
SplineSet
459 -25 m 4
 256 -25 58 61 58 273 c 0
 58 354 85 529 106 624 c 0
 115 664 120 697 120 721 c 0
 120 749 104 761 84 768 c 0
 80 769 77 770 73 771 c 0
 64 773 51 776 47 777 c 0
 40.8645041318 778.533873967 35 780 31 781 c 0
 13 787 0 798 0 820 c 0
 0 857 3 877 34 912 c 0
 68 950 180 981 242 999 c 0
 309 1018 387 1026 455 1026 c 0
 538 1026 570 993 570 937 c 0
 570 915 565 856 554 784 c 0
 536 668 501 479 501 364 c 0
 501 280 539 241 624 241 c 4
 767 241 875 424 875 597 c 4
 875 668 851 755 825 795 c 4
 790 849 773 896 773 925 c 4
 773 963 781 993 837 1016 c 4
 876 1032 910 1033 932 1033 c 4
 963 1033 1016.96191406 1024.3671875 1050 995 c 4
 1095 955 1111 904 1111 724 c 4
 1111 314 797 -25 459 -25 c 4
EndSplineSet
EndChar

StartChar: paragraph
Encoding: 182 182 32
Width: 1727
Flags: HMW
LayerCount: 2
Fore
SplineSet
108 708 m 4
 177 1272 633 1480 1047 1480 c 4
 1311 1480 1467 1401 1530 1347 c 4
 1575 1309 1582 1274 1572 1190 c 4
 1562 1110 1428 188 1408 28 c 4
 1389 -128 1405 -208 1457 -208 c 20
 1509 -208 1584 -162 1616 -162 c 20
 1648 -162 1672 -174 1667 -215 c 4
 1658 -286 1405 -356 1333 -356 c 20
 1261 -356 1227 -284 1235 -215 c 20
 1243 -146 1415 928 1428 1036 c 20
 1441 1144 1419 1192 1378 1248 c 20
 1337 1304 1228 1376 1030 1376 c 4
 782 1376 544 1226 485 746 c 4
 425 256 631 90 825 90 c 4
 1037 90 1084 272 1100 400 c 4
 1143 748 1123 923 1132 1000 c 4
 1140 1068 1166 1100 1208 1100 c 4
 1260 1100 1289 1056 1280 982 c 4
 1268 888 1207 360 1198 288 c 4
 1188 210 1170 144 1141 118 c 4
 1099 81 992 -22 710 -22 c 4
 398 -22 51 244 108 708 c 4
EndSplineSet
EndChar

StartChar: b
Encoding: 98 98 33
Width: 1129
VWidth: 1920
Flags: HMW
LayerCount: 2
Fore
SplineSet
84 598 m 2
 116 800 l 2
 129.362304688 884.3515625 131 1002 131 1114 c 0
 131 1131.71972656 130 1153 111 1153 c 0
 82 1153 68 1153 48 1153 c 0
 28 1153 0 1161 0 1191 c 0
 0 1252 19.1494140625 1291.65722656 74 1323 c 0
 172 1379 268 1415 479 1415 c 0
 562 1415 592 1394 592 1347 c 0
 592 1281 555.692382812 1191.26757812 543 1058 c 2
 531 932 l 2
 526.8984375 888.938476562 535 865 556 865 c 0
 579 865 582.978515625 868.404296875 623 900 c 0
 680 945 762 1021 878 1021 c 0
 1060 1021 1129 827 1129 670 c 0
 1129 464.920898438 1005.7578125 214.888671875 847 102.549804688 c 0
 729.954101562 19.7275390625 593.81640625 -29 428 -29 c 0
 274 -29 171.111328125 2.126953125 112 54 c 0
 63 97 35 170 35 223 c 0
 35 278 45.3701171875 354.146484375 84 598 c 2
483 181 m 0
 503.130859375 181 524.641601562 183.786132812 541 195.791015625 c 0
 634.487304688 264.396484375 683 457.856445312 683 597 c 0
 683 692 663 718 621 718 c 0
 583 718 543.494140625 692.130859375 508 608 c 0
 464.30859375 504.438476562 442 366 442 243 c 0
 442 224.98828125 445.056640625 210.456054688 450.919921875 200 c 0
 457.83984375 187.661132812 468.669921875 181 483 181 c 0
EndSplineSet
EndChar

StartChar: o
Encoding: 111 111 34
Width: 1184
VWidth: 1920
Flags: HMW
AnchorPoint: "bottom" 485 0 basechar 0
AnchorPoint: "top" 711 1000 basechar 0
LayerCount: 2
Fore
SplineSet
0 379 m 256
 0 631.107421875 138.00390625 804.86328125 303 908.864257812 c 0
 440.2421875 995.37109375 589.619140625 1035 723 1035 c 256
 965 1035 1184 903 1184 616 c 256
 1184 225 857 -47 497 -47 c 256
 96 -47 0 195 0 379 c 256
558 176 m 256
 675 176 721 546 721 711 c 256
 721 786 696 810 646 810 c 256
 580.864257812 810 542.75390625 734.627929688 517.028320312 631 c 0
 483.989257812 497.909179688 473 350.2734375 473 261 c 256
 473 236.141601562 479.844726562 215.637695312 492.989257812 201 c 0
 507.36328125 184.9921875 529.270507812 176 558 176 c 256
EndSplineSet
EndChar

StartChar: n
Encoding: 110 110 35
Width: 1288
VWidth: 1920
Flags: HMW
AnchorPoint: "bottom" 529 0 basechar 0
AnchorPoint: "top" 466 1000 basechar 0
LayerCount: 2
Fore
SplineSet
1021 1033 m 4
 1076.56738281 1033 1139.89160156 1010.27734375 1179.90136719 969 c 4
 1218.66992188 929.00390625 1238 874.83203125 1238 789 c 4
 1238 603 1168 430 1168 326 c 0
 1168 299.828125 1174.49316406 294.088867188 1188 286.321289062 c 0
 1201.20507812 278.728515625 1218.24316406 276.84375 1234 272.762695312 c 0
 1243.08398438 270.409179688 1251.7421875 267.327148438 1258.99511719 262 c 4
 1262.9609375 259.086914062 1266.50683594 255.502929688 1269.47070312 251 c 4
 1275.39648438 241.998046875 1279 229.32421875 1279 211 c 4
 1279 158 1229 108 1173 68 c 4
 1110.76074219 23.5439453125 962 -30 848 -30 c 4
 758 -30 693 9 693 75 c 4
 693 229 775 491 775 617 c 4
 775 681 754 698 705 698 c 4
 661 698 602 650 571 534 c 4
 547.1328125 444.689453125 532.825195312 315.45703125 508 138 c 4
 502.23046875 96.7578125 478.28515625 55.59375 437 23.0986328125 c 4
 417.331054688 7.6171875 347.422851562 -28 257 -28 c 4
 195.40234375 -28 124.48046875 -28 82 1.1328125 c 4
 58.734375 17.0888671875 44 41.7822265625 44 80 c 4
 44 148 132 483 132 681 c 4
 132 705 125.071289062 717.12109375 115 723 c 4
 99.2353515625 732.202148438 62.5224609375 728.712890625 51 729.368164062 c 4
 42.1337890625 729.873046875 36.0068359375 730.569335938 31 732 c 4
 25 734 20 737 16 741 c 4
 7 750 0 763 0 789 c 4
 0 861 73.611328125 917.755859375 158 955 c 4
 248.427734375 994.909179688 378 1037 461 1037 c 4
 502 1037 529 1029 551 998 c 4
 568.6015625 973.197265625 565.713867188 944.450195312 575 889 c 4
 578.7109375 866.840820312 590 856 610 856 c 4
 632 856 643.759765625 867.278320312 660 881 c 4
 794.740234375 994.845703125 901 1031 1021 1033 c 4
EndSplineSet
EndChar

StartChar: d
Encoding: 100 100 36
Width: 1214
VWidth: 1920
Flags: HMW
LayerCount: 2
Fore
SplineSet
506 299 m 4
 595 299 728 534 728 729 c 4
 728 776 713 808 668 808 c 4
 575 808 455 549 455 375 c 4
 455 337 466 299 506 299 c 4
0 289 m 4
 0 653 223 1024 530 1024 c 4
 588 1024 624 1010 664 991 c 4
 679 984 688 975 703 975 c 4
 720 975 755 991 762 1048 c 6
 766 1082 l 6
 768 1101 769 1126 759 1142 c 4
 756 1146 753 1152 739 1153 c 4
 726 1154 703 1153 682 1157 c 4
 651 1163 622 1179 622 1220 c 4
 622 1281 668 1324 736 1350 c 4
 837 1389 985 1421 1096 1421 c 4
 1169 1421 1207 1384 1207 1337 c 4
 1207 1221 1187 1177 1150 894 c 6
 1112 606 l 6
 1096 482 1094 415 1094 368 c 4
 1094 336 1098 316 1109 305 c 4
 1119 296 1136.96875 295 1153 295 c 4
 1157.64355469 295 1161.57714844 295.133789062 1165 295.178710938 c 4
 1169.35644531 295.236328125 1172.88574219 295.1484375 1176 294.455078125 c 4
 1189.14257812 291.528320312 1214 275.443359375 1214 231 c 4
 1214 146 1148 108 1050 58 c 4
 995 30 877 -31 773 -31 c 4
 693 -31 671 24 671 69 c 4
 671 125 671 160 627 160 c 4
 589 160 573 130 536 96 c 4
 480 43 372 -27 237 -27 c 4
 63 -27 0 121 0 289 c 4
EndSplineSet
EndChar

StartChar: c
Encoding: 99 99 37
Width: 1047
VWidth: 1920
Flags: HMW
AnchorPoint: "top" 678 1000 basechar 0
AnchorPoint: "bottom" 339 0 basechar 0
LayerCount: 2
Fore
SplineSet
695 1024 m 0
 923 1024 1047 902 1047 767 c 0
 1047 611 940 518 822 518 c 0
 682 518 662.186523438 617.603515625 685 688 c 0
 715 780.573242188 707 805 658 805 c 0
 611.409179688 805 567.53515625 760.637695312 534.51171875 674.000976562 c 0
 508.729492188 606.36328125 488 515.348632812 488 395 c 0
 488 277 539 223 614 223 c 0
 698 223 766 269 837 308 c 0
 864.854492188 323.30078125 886 335 910 335 c 0
 959 335 983 262 983 222 c 0
 983 141 754 -25 464 -25 c 0
 220 -25 0 58 0 312 c 0
 0 541.74609375 95.353515625 717.629882812 220.973632812 831 c 0
 380.826171875 975.263671875 564.623046875 1024 695 1024 c 0
EndSplineSet
EndChar

StartChar: e
Encoding: 101 101 38
Width: 1068
VWidth: 1920
Flags: HMW
AnchorPoint: "ogonek" 502 0 basechar 0
AnchorPoint: "bottom" 428 -11 basechar 0
AnchorPoint: "top" 747 1000 basechar 0
LayerCount: 2
Fore
SplineSet
814 1022 m 0
 887.516601562 1022 960.009765625 1000.62792969 1008 953.810546875 c 1
 1046.08691406 916.654296875 1068 862.729492188 1068 796 c 0
 1068 683 1004 584 940 521 c 0
 870 452 717 364 538 364 c 0
 486 364 474 361 474 331 c 0
 474 308 482.594726562 287.63671875 505 263 c 0
 535.911132812 229.009765625 583 228 637 228 c 0
 718.604492188 228 782.68359375 254.701171875 867 304.764648438 c 0
 891.938476562 319.572265625 909.500976562 330 930 330 c 4
 952 330 967.211914062 320.302734375 985 301 c 0
 1002.22265625 282.310546875 1011 261 1011 247 c 0
 1011 188.399414062 945.659179688 125.041992188 838 69.2802734375 c 1
 743.5703125 20.37109375 618.889648438 -25 446 -25 c 0
 212 -25 0 82 0 316 c 0
 0 509.87890625 74.7890625 663.254882812 174 767.890625 c 0
 348.958007812 952.416015625 562.639648438 1022 814 1022 c 0
484 541.747070312 m 0
 488.142578125 537.111328125 496.353515625 531 508 531 c 0
 565 531 615.536132812 575.552734375 656 652 c 0
 671.55078125 681.379882812 690 727 690 763 c 0
 690 780.288085938 685.870117188 795.423828125 678.788085938 807 c 0
 669.622070312 821.981445312 655.508789062 831 639 831 c 0
 601.157226562 831 558.337890625 808.760742188 520.11328125 745 c 0
 497.288085938 706.92578125 475 642.177734375 475 568 c 0
 475 559.102539062 477.541992188 548.97265625 484 541.747070312 c 0
EndSplineSet
EndChar

StartChar: f
Encoding: 102 102 39
Width: 794
VWidth: 1920
Flags: HMW
LayerCount: 2
Fore
SplineSet
155 590 m 0
 108 590 81 588 57 588 c 0
 29 588 7 597.094726562 7 635 c 0
 7 669 24 830 70 830 c 0
 95 830 127 827 144 827 c 0
 154 827 173 830.982421875 173 851 c 0
 173 875 73 943 73 1066 c 0
 73 1262 264 1422 521 1422 c 0
 689 1422 793 1334 793 1194 c 0
 793 1101 694 1022 613 1022 c 0
 500 1022 456 1146 378 1146 c 0
 350 1146 323 1129 323 1092 c 0
 323 949 589.365234375 1025.73535156 640 861 c 0
 643.168945312 850.69140625 647.73828125 839.75390625 662 835 c 0
 671 832 682 830 698 830 c 0
 715 830 721 831 735 831 c 0
 768 831 794 814 794 792 c 0
 794 759.734375 773.95703125 668.038085938 754.721679688 616 c 4
 744.473632812 588.276367188 737.685546875 580 714 580 c 4
 702 580 689 581 676 581 c 0
 637 581 626.418945312 515.866210938 615 421 c 2
 602 313 l 2
 563.180664062 -9.4970703125 568 -92 568 -208 c 0
 568 -245.215820312 550.876953125 -270.997070312 526 -290 c 0
 454 -345 327 -384 182 -384 c 0
 94 -384 0 -340 0 -273 c 0
 0 -255.467773438 4.291015625 -232.202148438 17.24609375 -211 c 0
 31.103515625 -188.3203125 56.3935546875 -171.741210938 71.28125 -146 c 0
 89.3916015625 -114.686523438 97.896484375 -73.2138671875 104 -45 c 0
 149 163 176.122070312 312.09765625 191 446 c 2
 197 500 l 2
 201.654296875 541.888671875 199 590 155 590 c 0
EndSplineSet
EndChar

StartChar: g
Encoding: 103 103 40
Width: 1152
VWidth: 1920
Flags: HMW
AnchorPoint: "top" 629 1000 basechar 0
LayerCount: 2
Fore
SplineSet
574 464 m 0
 607 464 639 483 657 514 c 0
 699 584 701 721 701 776 c 0
 701 826 675 855 630 855 c 0
 601 855 574 843 554 813 c 0
 517 756 500 648 500 524 c 0
 500 486 526 464 574 464 c 0
40 580 m 0
 40 655 60 747 116 806 c 0
 218 913 359 1019 633 1019 c 0
 701 1019 742 1020 770 1020 c 0
 788 1020 812 1018 825 1018 c 0
 834 1018 851 1021 866 1033 c 0
 904 1063 926 1107 945 1126 c 0
 952 1133 968 1141 983 1141 c 0
 1012 1141 1063 1125 1090 1099 c 0
 1140 1051 1139 1022 1135 1000 c 0
 1127 962 1110 935 1094 913 c 0
 1089 906 1084 896 1088 890 c 0
 1144 802 1152 762 1152 676 c 0
 1152 475 896 303 556 303 c 0
 505 303 424 307 402 307 c 0
 382 307 371 299 366 293 c 0
 362 288 354 278 354 255 c 0
 354 210 400 200 497 200 c 0
 638 200 769 221 878 221 c 0
 1021 221 1096 105 1096 9 c 0
 1096 -94 1038 -192 918 -269 c 0
 805 -342 644 -386 404 -386 c 0
 194 -386 23 -286 23 -181 c 0
 23 -117 51 -101 82 -70 c 0
 87 -65 88 -65 88 -61 c 0
 88 -59 83 -54 80 -50 c 0
 64 -33 0 27 0 113 c 0
 0 202 66 264 162 306 c 0
 174 311 190 321 190 336 c 0
 190 348 180 356 167 366 c 0
 126 396 40 483 40 580 c 0
248 -151 m 0
 248 -199 309 -234 478 -234 c 0
 641 -234 680 -179 680 -148 c 0
 680 -129 664 -122 624 -122 c 0
 542 -122 508 -128 428 -128 c 0
 387 -128 329 -124 292 -109 c 0
 282 -105 276 -103 273 -103 c 0
 268 -103 263 -108 258 -115 c 0
 252 -124 248 -135 248 -151 c 0
EndSplineSet
EndChar

StartChar: i
Encoding: 105 105 41
Width: 653
VWidth: 1920
Flags: HMW
AnchorPoint: "ogonek" 258 10 basechar 0
LayerCount: 2
Fore
SplineSet
60 1158 m 0
 60 1319 333 1420 490 1420 c 0
 597 1420 648 1357 648 1290 c 0
 648 1164 432 1057 245 1057 c 0
 118 1057 60 1092 60 1158 c 0
93 435 m 0
 115.805664062 555.647460938 125 614 125 658 c 4
 125 682 118 694 108 700 c 4
 99 705 89 706 79 706 c 4
 69 706 62 706 54 706 c 4
 46 706 39 707 32 709 c 4
 26 711 21 714 17 718 c 4
 8 727 0 740 0 766 c 4
 0 845.272460938 94.6259765625 901.086914062 202 942.765625 c 0
 316.762695312 987.3125 446.0859375 1015 490 1015 c 0
 571 1015 608 975 608 908 c 0
 608 854 593.7421875 798.0390625 556 548 c 0
 540 442 522 362 522 303 c 0
 522 289 535 277 550 277 c 0
 560.916992188 277 569.665039062 277.862304688 578 279.260742188 c 0
 586.393554688 280.668945312 592.19921875 282 603 282 c 0
 630 282 653 251 653 226 c 0
 653 151 594.139648438 114.8203125 514 64 c 0
 432 12 320 -25 222 -25 c 0
 103 -25 47 38 47 120 c 0
 47 197 62 271 93 435 c 0
EndSplineSet
EndChar

StartChar: h
Encoding: 104 104 42
Width: 1240
VWidth: 1920
Flags: HMW
AnchorPoint: "top" 494 1400 basechar 0
LayerCount: 2
Fore
SplineSet
67 401 m 2
 133 901 l 2
 153.715820312 1057.94140625 154 1125 107 1143 c 0
 74.3154296875 1155.51757812 55 1150 33 1158 c 0
 14.2041015625 1164.83496094 0 1178 0 1212 c 0
 0 1267 28.927734375 1294.10644531 123 1339 c 0
 204.83984375 1378.05664062 365 1406 535 1406 c 0
 587.140625 1406 610 1361 610 1304 c 0
 610 1255 564 969 553 888 c 0
 550.411132812 868.939453125 555 838 582 838 c 0
 601 838 614.923828125 847.196289062 635 865 c 0
 741 959 867 1018 990 1018 c 0
 1071 1018 1205 969 1205 817 c 0
 1205 701 1133 477 1133 343 c 0
 1133 311 1135 299 1144 290 c 0
 1151.51269531 282.487304688 1163.02644842 278.074358176 1173 277 c 0
 1182.28326493 276 1189.41308594 276.680664062 1198 274.455078125 c 0
 1211.22167969 271.029296875 1240 251.443359375 1240 207 c 0
 1240 154 1149.94726562 83.05859375 1070 41 c 0
 1002.31054688 5.3896484375 906 -29 842 -29 c 0
 752 -29 671 -3 671 122 c 0
 671 251 738 478 738 625 c 0
 738 660 720 685 685 685 c 0
 631 685 553.504882812 630.158203125 517 512 c 0
 489.740234375 423.767578125 478.388671875 315.786132812 463 150 c 0
 457.595703125 91.783203125 450.942382812 65.396484375 420 44.4267578125 c 0
 353.484375 -0.6513671875 263.850585938 -28 201 -28 c 0
 129.115234375 -28 75.65234375 -20.9140625 43 -1.001953125 c 0
 20.1669921875 12.921875 7 31.5849609375 7 65 c 0
 7 149 36.2861328125 168.319335938 67 401 c 2
EndSplineSet
EndChar

StartChar: r
Encoding: 114 114 43
Width: 998
VWidth: 1920
Flags: HMW
AnchorPoint: "bottom" 267 0 basechar 0
AnchorPoint: "top" 559 1000 basechar 0
LayerCount: 2
Fore
SplineSet
802 1032 m 0
 911 1032 998 932 998 794 c 0
 998 672 924 568 818 568 c 0
 666 568 698 690 630 690 c 0
 598 690 590.794921875 685.694335938 570 569 c 0
 550.249023438 458.163085938 530 374 528 159 c 0
 527.469726562 102.002929688 507.350585938 51.6640625 462 27 c 0
 405 -4 293.0234375 -26 192 -26 c 0
 131 -26 59 4 59 62 c 0
 59 109 132 453 132 681 c 4
 132 708.124818205 123.414724957 722.520152618 104.000000462 727.000189897 c 4
 91 730 60.3224177723 728.838005377 51 729.368164062 c 0
 42.1337890625 729.873046875 36.0068359375 730.569335938 31 732 c 0
 25 734 20 737 16 741 c 0
 7 750 0 763 0 789 c 0
 0 861 83.611328125 917.755859375 168 955 c 0
 258.427734375 994.909179688 307 1027 380 1027 c 0
 412 1027 445.536132812 1024.6953125 466 994 c 0
 490 958 502.794921875 910.967773438 506 878 c 0
 507.861328125 858.854492188 517 840 546 840 c 0
 573 840 582.249023438 849.907226562 594 876 c 0
 655.717773438 1013.04394531 729 1032 802 1032 c 0
EndSplineSet
EndChar

StartChar: j
Encoding: 106 106 44
Width: 639
VWidth: 1920
Flags: HMW
LayerCount: 2
Fore
SplineSet
51 1158 m 0
 51 1319 324 1420 481 1420 c 0
 588 1420 639 1357 639 1290 c 0
 639 1164 423 1057 236 1057 c 0
 109 1057 51 1092 51 1158 c 0
148 413 m 6
 171 577 185 694 143 704 c 4
 114 711 90 706 73 709 c 4
 62 711 53 714 46 719 c 4
 34 728 29 742 29 768 c 4
 29 884 342 1008 520 1008 c 4
 601 1008 622 971 622 904 c 4
 622 818 579 579 562 424 c 6
 531 134 l 6
 517 1 504 -122 465 -220 c 4
 424 -323 286 -405 176 -405 c 4
 89 -405 0 -372 0 -312 c 4
 0 -292 4 -280 10 -271 c 4
 14 -265 19.671875 -259.551757812 25 -256 c 4
 31 -252 44 -242 52 -227 c 4
 58 -217 62 -203 65 -184 c 4
 79 -93 85 -45 103 88 c 6
 148 413 l 6
EndSplineSet
EndChar

StartChar: k
Encoding: 107 107 45
Width: 1186
VWidth: 1920
Flags: HMW
AnchorPoint: "bottom" 558 0 basechar 0
LayerCount: 2
Fore
SplineSet
503 497 m 0
 503 474 523 468 540 468 c 0
 595 468 722 620 722 692 c 0
 722 712 714 737 671 737 c 0
 564 737 503 532 503 497 c 0
91 591 m 2
 132 921 l 2
 141.86328125 1000.38964844 144 1032 144 1093 c 0
 144 1139 126 1163 104 1163 c 0
 89 1163 67 1159 47 1159 c 0
 27 1159 0 1180 0 1209 c 0
 0 1274 51.748046875 1332.61132812 136 1367 c 0
 234 1407 380 1434 531 1434 c 0
 570 1434 587 1405 587 1369 c 0
 587 1313 576.393554688 1239.60742188 567 1125 c 2
 552 942 l 2
 547.75390625 890.201171875 553 875 570 875 c 0
 580 875 599.7734375 897.295898438 618 911 c 0
 751 1011 861 1041 945 1041 c 0
 1062 1041 1186 964 1186 825 c 0
 1186 671 1086.9296875 588.309570312 966 518 c 0
 952.331054688 510.052734375 939 500 939 492 c 0
 939 478 959.4140625 452.5625 970 439 c 0
 1002 398 1021.19628906 361.41015625 1048 309 c 0
 1056.63964844 292.107421875 1062.10742188 279.390625 1080 273 c 0
 1096.66113281 267.049804688 1110.13574219 260.479492188 1120.84472656 253 c 0
 1124.50585938 250.443359375 1127.84277344 247.780273438 1130.87402344 245 c 0
 1148.78125 228.573242188 1156 208.03515625 1156 181 c 0
 1156 60 877 -28 793 -28 c 0
 760.969726562 -28 725.377929688 -22.482421875 704 -12.0654296875 c 0
 668.936523438 5.01953125 640.224609375 32.9384765625 623 76 c 0
 581 181 579 274 552 277 c 4
 535.103515625 278.876953125 524.947265625 278.380859375 513 276 c 0
 500.212890625 273.452148438 492.13671875 268.030273438 487 257 c 0
 467.7421875 215.646484375 473 174 473 146 c 0
 473 115 446.877929688 62.501953125 425 45 c 0
 385 13 260 -32 169 -32 c 0
 41 -32 10 21 10 50 c 0
 10 152 52.6298828125 282.169921875 91 591 c 2
EndSplineSet
EndChar

StartChar: m
Encoding: 109 109 46
Width: 1901
VWidth: 1920
Flags: HMW
LayerCount: 2
Fore
SplineSet
650 878 m 4
 782.740234375 971.845703125 891 1031 1010 1031 c 4
 1085 1031 1149 1002 1192 890 c 4
 1200.85253906 866.942382812 1210 857 1220 857 c 4
 1231 857 1258.53417969 870.313476562 1269 879 c 4
 1400.19726562 987.889648438 1495 1039 1634 1039 c 4
 1689.56738281 1039 1743.89160156 1020.27734375 1783.90136719 979 c 4
 1822.66992188 939.00390625 1848 877.83203125 1848 792 c 4
 1848 636 1787 477 1787 343 c 4
 1787 314.828125 1796.49316406 301.088867188 1810 293.321289062 c 4
 1823.20507812 285.728515625 1840.24316406 283.84375 1856 279.762695312 c 4
 1865.08398438 277.409179688 1873.7421875 274.327148438 1880.99511719 269 c 4
 1892.88964844 260.263671875 1901 245.490234375 1901 218 c 4
 1901 165 1842 114 1786 74 c 4
 1723.76074219 29.5439453125 1599 -29 1485 -29 c 4
 1375 -29 1312 23 1312 100 c 4
 1312 249 1381 486 1381 653 c 4
 1381 686 1361 702 1334 702 c 4
 1282 702 1226.35546875 674.625976562 1201 579 c 4
 1177.42480469 490.088867188 1170 398 1144 193 c 4
 1137.70996094 143.404296875 1133.19726562 104.112304688 1127 88 c 4
 1117 62 1091.28027344 35.0380859375 1066 23 c 4
 1024 3 924 -27 827 -27 c 4
 737 -27 684 -11 684 55 c 4
 684 209 755 481 755 607 c 4
 755 673 739 690 690 690 c 4
 646 690 595 640 564 524 c 4
 540.1328125 434.689453125 527.46484375 316.600585938 513 138 c 4
 507.23046875 66.7578125 494.28515625 55.59375 441 23.0986328125 c 4
 419.62890625 10.06640625 340.422851562 -28 250 -28 c 4
 191 -28 117 -24 94 -11 c 4
 75.7177734375 -0.6669921875 49 22 49 50 c 4
 49 118 125 483 125 681 c 4
 125 705 118 717 108 723 c 4
 99 728 89 729 79 729 c 4
 69 729 62 729 54 729 c 4
 46 729 39 730 32 732 c 4
 26 734 21 737 17 741 c 4
 8 750 0 763 0 789 c 4
 0 861 94.611328125 917.755859375 151 945 c 4
 240 988 374 1033 457 1033 c 4
 498 1033 522 1029 544 998 c 4
 561.6015625 973.197265625 572 936 577 880 c 4
 578.7109375 860.840820312 589 853 599 853 c 4
 621 853 632.639648438 865.7265625 650 878 c 4
EndSplineSet
EndChar

StartChar: p
Encoding: 112 112 47
Width: 1301
VWidth: 1920
Flags: HMW
AnchorPoint: "top" 852 1000 basechar 0
AnchorPoint: "bottom" 756 0 basechar 0
LayerCount: 2
Fore
SplineSet
186 224 m 2
 225 530 l 2
 229 563 231.239257812 577.81640625 206 567 c 0
 185 558 166.321289062 539.624023438 148 519 c 0
 128.934570312 497.537109375 120 476 99 476 c 0
 68 476 66.69921875 513.795898438 25 595 c 0
 6 632 0 648 0 665 c 0
 0 699 15.5693359375 714.94140625 38 731 c 0
 126 794 167 820 234 861 c 0
 241 865 257 876 258 891 c 0
 266 1048 256 1114 256 1170 c 0
 256 1224 291.110351562 1239.703125 331 1253 c 0
 367 1265 573 1280 644 1280 c 0
 686 1280 713 1257 713 1225 c 0
 713 1179 693 1165 679 1053 c 0
 674 1013 683.217773438 1002.81835938 699 1005 c 0
 763.193359375 1013.87402344 844 1050 953 1050 c 4
 1135 1050 1301 945 1301 698 c 0
 1301 197 981 -38 771 -38 c 0
 724 -38 693.532226562 -34.0595703125 664 -27 c 0
 639.33203125 -21.103515625 620 -19 613 -19 c 0
 591 -19 578.61328125 -38.91796875 578 -61 c 0
 577 -97 578.310546875 -132.579101562 584 -154 c 0
 589.620117188 -175.159179688 601.094726562 -191.46484375 617.954101562 -202 c 0
 632.99609375 -211.399414062 652.936523438 -215.389648438 667.181640625 -227 c 0
 685.262695312 -241.737304688 699 -262.30859375 699 -289 c 0
 699 -367 596 -392 498 -392 c 0
 289 -392 205.736328125 -363.052734375 149 -345 c 0
 61 -317 30 -258 30 -222 c 0
 30 -193.491210938 42.4541015625 -171.946289062 53.08203125 -159 c 0
 66.7060546875 -142.404296875 83.837890625 -134.147460938 106.96484375 -111 c 0
 125.633789062 -92.314453125 146.646484375 -63.6669921875 159 0 c 0
 172 67 172.888671875 121.129882812 186 224 c 2
658 175 m 0
 757 175 853 439 853 562 c 0
 853 650 830.892578125 690.241210938 792 725 c 0
 764.01171875 750.013671875 732 752 707 752 c 0
 674 752 663 737 660 710 c 2
 605 251 l 2
 602.38671875 229.193359375 604.439453125 208.93359375 617 195 c 0
 628.711914062 182.006835938 633 175 658 175 c 0
EndSplineSet
EndChar

StartChar: q
Encoding: 113 113 48
Width: 1229
VWidth: 1920
Flags: HMW
AnchorPoint: "bottom" 255 0 basechar 0
LayerCount: 2
Fore
SplineSet
716 821 m 0
 673 821 619.737304688 764.609375 572 678 c 0
 490.740234375 530.571289062 468 443 468 361 c 0
 468 340.974265095 471.214435733 323.487127703 479.683080416 311.000001025 c 0
 488.166301075 298.491381882 501.921833022 291 523 291 c 0
 598 291 791 566 791 720 c 0
 791 784 763 821 716 821 c 0
850 979 m 0
 876 979 899.204101562 988.591796875 919 1000 c 0
 978 1034 1074 1063 1112 1063 c 0
 1172 1063 1208 1028 1208 979 c 0
 1208 931 1192.65527344 897.838867188 1182 831 c 0
 1171 762 1147.91601562 597.27734375 1138 491 c 2
 1099 73 l 2
 1090.67285156 -16.2490234375 1092.46972656 -72.87890625 1096 -107 c 0
 1098.35058594 -129.720703125 1106.015625 -150.301757812 1118.74023438 -163 c 0
 1138.42578125 -182.643554688 1167.49316406 -178.047851562 1188 -190.75 c 0
 1209.50878906 -204.071289062 1229 -227.8203125 1229 -257 c 0
 1229 -304.0546875 1192.50683594 -336.896484375 1127 -356.905273438 c 0
 1073.59765625 -373.217773438 1000.91308594 -381 913 -381 c 0
 770.873046875 -381 661.640625 -365.645507812 591 -335.473632812 c 0
 530.209960938 -309.508789062 498 -272.5703125 498 -225 c 0
 498 -191.193359375 520.58984375 -165.309570312 532.353515625 -158 c 0
 550.79296875 -146.541992188 573.255859375 -150.458007812 598 -141.275390625 c 0
 621.525390625 -132.544921875 634.90234375 -123.297851562 650 -65 c 0
 663.28125 -13.7158203125 680 70 680 119 c 0
 680 135 676 160 662 160 c 0
 647 160 635 154 612 128 c 0
 542 48 405 -27 281 -27 c 0
 79 -27 0 150 0 317 c 0
 0 758 381 1042 621 1042 c 0
 678 1042 733.922851562 1026.91699219 767 1007 c 4
 797.3125 988.747070312 826 979 850 979 c 0
EndSplineSet
EndChar

StartChar: s
Encoding: 115 115 49
Width: 932
VWidth: 1920
Flags: HMW
AnchorPoint: "bottom" 374 0 basechar 0
AnchorPoint: "top" 400 1000 basechar 0
LayerCount: 2
Fore
SplineSet
204.254298532 253.000000807 m 0
 207.329848208 244.14585481 210.978477185 235.518357579 216.510742188 228 c 0
 230.000976562 209.66796875 252.760742188 198 300 198 c 256
 352 198 376 223 376 253 c 256
 376 290 317.359375 348.223632812 258 414 c 0
 184 496 130 588 130 689 c 256
 130 912 345 1035 576 1035 c 256
 781 1035 932 970 932 864 c 0
 932 746 865 703 820 703 c 0
 786 703 755.065429688 714.377929688 735 752 c 0
 711 797 692 808 652 808 c 256
 617 808 595 795 595 760 c 256
 595 715 650.333007812 674.453125 745 578 c 0
 851 470 885 413 885 333 c 256
 885 152 728 -45 390 -45 c 256
 260.09765625 -45 157.3515625 -19.7587890625 90 24.5146484375 c 0
 31.7734375 62.7890625 -0 115.288085938 0 178 c 0
 0 258 38 324 121 324 c 0
 169.591951129 324 187.68858649 300.690738529 204.254298532 253.000000807 c 0
EndSplineSet
EndChar

StartChar: t
Encoding: 116 116 50
Width: 805
Flags: HMW
AnchorPoint: "bottom" 363 0 basechar 0
LayerCount: 2
Fore
SplineSet
561 358 m 0
 561 313 577 296 618 296 c 0
 639.254882812 296 648.294921875 300.279296875 659 303.770507812 c 0
 676.336914062 309.424804688 692.61328125 319.452148438 707 328 c 0
 714.9140625 332.702148438 729 342 736 342 c 0
 769 342 787 284 787 249 c 0
 787 184 657 89 581 47 c 0
 490.973632812 -2.751953125 393 -39 267 -39 c 0
 165 -39 97 27 97 149 c 0
 97 322 162 723 162 762 c 0
 162 781 152.055664062 786 143 786 c 0
 131 786 117 779 85 779 c 0
 57 779 36 788 21 799 c 0
 9.111328125 807.717773438 0 819 0 839 c 0
 0 892 7.830078125 939.09375 59 981 c 0
 66.96484375 987.5234375 87 1001 111 1001 c 0
 137 1001 150.247070312 1006.29589844 169 1012 c 0
 195.94140625 1020.1953125 209.453125 1038.33398438 214 1056 c 0
 220.470703125 1081.14257812 226.525390625 1114.77636719 240 1155 c 0
 253.484375 1195.25195312 272.798828125 1229.22460938 294 1248 c 0
 311.381835938 1263.39257812 334.948242188 1283.49511719 419 1302 c 0
 458.259765625 1310.64355469 521 1316 589 1316 c 0
 626 1316 656 1290 656 1259 c 0
 656 1233 649.201171875 1210.76367188 641 1157 c 0
 633.606445312 1108.53027344 629 1081 629 1054 c 0
 629 1033 635.010742188 1020.22167969 657 1019 c 0
 675 1018 701.649414062 1019.41503906 718 1020 c 0
 733.182617188 1020.54296875 739 1022 753 1022 c 0
 789 1022 805 997 805 960 c 0
 805 943.207756823 797.288085938 923.366210938 792.399414062 904 c 0
 788.263671875 887.614257812 788.28515625 870.569335938 784 857 c 0
 772 819 751 809 728 809 c 0
 708 809 695 809 667 809 c 0
 621 809 603 777 595 724 c 0
 571.04296875 565.283203125 561 479 561 358 c 0
EndSplineSet
EndChar

StartChar: u
Encoding: 117 117 51
Width: 1286
VWidth: 1920
Flags: HMW
AnchorPoint: "ogonek" 706 10 basechar 0
AnchorPoint: "top" 448 1000 basechar 0
LayerCount: 2
Fore
SplineSet
265 -22 m 0
 64 -22 60 135.958007812 60 215 c 0
 60 401 118 564 118 668 c 0
 118 680.526367188 116.512695312 688.372070312 113.48046875 694 c 0
 110.177734375 700.130859375 105.041992188 703.62890625 98 707.678710938 c 0
 81.642578125 717.083984375 48.029296875 718.8125 34 724.64453125 c 0
 23.2958984375 729.094726562 14.6953125 736.631835938 9.529296875 743 c 0
 2.7392578125 751.369140625 0 759.67578125 0 778 c 0
 0 861 52.2470703125 893.672851562 113 926 c 0
 222 984 324 1024 438 1024 c 0
 481.524414062 1024 514.524414062 1014.87890625 537 997.994140625 c 0
 561 979.96484375 573 953.08203125 573 919 c 0
 573 765 511 530 511 404 c 0
 511 340 532 323 581 323 c 0
 625 323 689.41015625 372.01953125 724 487 c 0
 750.8671875 576.310546875 766.174804688 695.54296875 781 873 c 0
 784.466796875 914.499023438 783.90625 940.333007812 828 968.901367188 c 0
 876 1000 917 1020 1029 1032 c 4
 1090.24707031 1038.5625 1145.51953125 1044 1184 1022.8671875 c 0
 1208.72753906 1009.28710938 1222 982.217773438 1222 944 c 0
 1222 921.670898438 1213.58984375 862.708007812 1202.29199219 800 c 0
 1179.18457031 671.741210938 1146 503.982421875 1146 371 c 0
 1146 337 1158.08496094 327.137695312 1168 321 c 0
 1189 308 1213.47753906 307.287109375 1225 306.631835938 c 0
 1233.86621094 306.126953125 1239.99316406 305.430664062 1245 304 c 0
 1259.76074219 299.080078125 1286 284.026367188 1286 246 c 0
 1286 168.283203125 1187.68261719 120.196289062 1092 70.3115234375 c 0
 988.1640625 16.17578125 880.354492188 -13 835 -13 c 0
 794 -13 763 5 741 36 c 0
 723.3984375 60.802734375 729.286132812 79.5498046875 720 135 c 0
 716.2890625 157.159179688 692 164 672 164 c 0
 650 164 630.274414062 148.393554688 613 136 c 0
 468.259765625 32.154296875 385.016601562 -22 265 -22 c 0
EndSplineSet
EndChar

StartChar: w
Encoding: 119 119 52
Width: 1771
VWidth: 1920
Flags: HMW
AnchorPoint: "bottom" 745 0 basechar 0
AnchorPoint: "top" 1036 880 basechar 0
LayerCount: 2
Fore
SplineSet
359 -35 m 0
 280.061316103 -35 189.566322989 -23.2880352152 129.000002366 41.490634221 c 0
 87.4610941114 85.9185469437 60 155.307914455 60 263 c 0
 60 344 75 502 96 597 c 0
 105 637 110 670 110 694 c 0
 110 722 94 734 74 741 c 0
 70 742 67 743 63 744 c 0
 54 746 41 749 37 750 c 0
 30.8642578125 751.534179688 24.73046875 753.244140625 21 755 c 0
 4 763 0 778 0 800 c 0
 0 837 3 857 34 892 c 0
 68 930 180 972 242 990 c 0
 309 1009 387 1026 455 1026 c 0
 538 1026 570 993 570 937 c 0
 570 915 565 856 554 784 c 0
 536 668 501 479 501 364 c 0
 501 317.996908616 505.152765789 287.468333962 515.297579115 267.999999847 c 0
 526.852386428 245.825826486 546.180621113 238 576 238 c 0
 633 238 663.424804688 265.594726562 696 316 c 0
 741.337890625 386.153320312 756 434 773 551 c 0
 791.616210938 679.122070312 795.423107245 739.77208104 796 794 c 0
 797 888 832 938 890 968 c 0
 965.142372684 1006.86674449 1039 1023 1179 1023 c 0
 1238 1023 1260 998 1260 941 c 0
 1260 869 1229.05800151 697.987721407 1214 627 c 0
 1200 561 1176 397 1176 301 c 0
 1176 248 1213 208 1318 208 c 0
 1370.68275449 208 1415 246.317382812 1448.703125 292 c 0
 1506.48144531 370.317382812 1535 487.735080602 1535 597 c 0
 1535 772.017193141 1438 832.739257812 1438 916 c 0
 1438 954 1445 982 1494 1005 c 0
 1532.16015625 1022.91210938 1567 1024 1589 1024 c 0
 1620 1024 1669.96191406 1015.3671875 1703 986 c 0
 1748 946 1771 894 1771 724 c 0
 1771 531.116030447 1706.32128906 305.677734375 1587.20019531 166 c 0
 1476.90136719 36.66796875 1364.50097656 -42 1142 -42 c 0
 1005 -42 920 -12 817 91 c 0
 797.764623945 110.235376055 790 129 777 129 c 0
 760 129 701.498046875 77.6083984375 637 35 c 0
 594.610880325 6.99709777218 469.803710938 -35 359 -35 c 0
EndSplineSet
EndChar

StartChar: x
Encoding: 120 120 53
Width: 1065
VWidth: 1920
Flags: HMW
LayerCount: 2
Fore
SplineSet
196 640 m 0
 183 640 176 635 169 628 c 0
 163 622 153 613 145 609 c 0
 136 604 124 602 106 602 c 0
 67 602 25 633 25 695 c 0
 25 728 31 756 41 781 c 0
 57 820 96 863 116 881 c 0
 177 936 359 1045 449 1045 c 0
 489 1045 512 1034 537 1001 c 0
 551 982 565 960 578 936 c 0
 592 910 606 881 620 851 c 0
 627 837 650 839 660 851 c 0
 673 867 686 882 700 900 c 0
 792 1017 845 1054 892 1054 c 0
 985 1054 1065 919 1065 788 c 0
 1065 734 1005 678 966 678 c 0
 943 678 928 684 918 692 c 0
 909 699 903 707 896 714 c 0
 888 722 880 729 866 729 c 0
 843 729 825 717 784 657 c 0
 775 644 772 636 761 614 c 0
 757 607 751 594 756 586 c 0
 788 532 802 496 832 442 c 0
 843 421 857 408 874 408 c 0
 883 408 889 414 897 422 c 0
 903 428 911 434 922 438 c 0
 931 442 941 444 956 444 c 0
 1005 444 1052 405 1052 352 c 0
 1052 171 755 -35 662 -35 c 0
 622 -35 584 -17 558 16 c 0
 540 38 515 80 492 123 c 0
 479 147 468 172 456 192 c 0
 443 213 410 210 386 188 c 0
 351 156 320 106 282 63 c 0
 233 6 179 -41 125 -41 c 0
 52 -41 0 62 0 213 c 0
 0 277 32 360 91 360 c 0
 108 360 120 356 130 351 c 0
 140 345 148 337 154 330 c 0
 164 319 172 308 188 308 c 0
 207 308 221 325 246 348 c 0
 295 394 303 407 322 447 c 0
 325 454 326 455 321 465 c 0
 302 502 282 538 263 570 c 0
 240 610 218 640 196 640 c 0
EndSplineSet
EndChar

StartChar: y
Encoding: 121 121 54
Width: 1195
VWidth: 1920
Flags: HMW
AnchorPoint: "top" 774 1000 basechar 0
LayerCount: 2
Fore
SplineSet
0 -113 m 0
 0 20 101 100 202 100 c 0
 351 100 374 -59 349 -132 c 0
 340.495570124 -156.832935237 368 -189 395 -189 c 0
 433 -189 454 -176 472 -143 c 0
 497.505338519 -96.2402127143 500 -58 500 -21 c 0
 500 32 463.091808352 175.450393178 447 214 c 0
 356 432 283 634 202 634 c 0
 184.867659788 634 173.89578148 627.434729861 164 618.721876151 c 0
 154.244572164 610.132598408 140.016482621 596.223713399 133 590.925123008 c 0
 119.997568832 581.10616377 112.083984375 576 87 576 c 0
 52 576 8 624 8 666 c 0
 8 835 394 1041 474 1041 c 0
 524 1041 577.488915492 1012.62755783 617 936 c 0
 683 808 718 682 804 458 c 0
 820.192514523 415.824148219 841 334 873 334 c 0
 894 334 925.840899476 385.784593119 938 435 c 0
 959 520 962 650 933 725 c 0
 907.754882812 790.2890625 853 814 853 887 c 0
 853 975 929 1033 1018 1033 c 0
 1113 1033 1195 964 1195 826 c 0
 1195 723 1181.80209035 533.374193206 1122 348 c 0
 1063.73873094 167.402036204 966 -20 833 -159 c 0
 741.531163257 -254.595250431 567 -392 338 -392 c 0
 161 -392 0 -264 0 -113 c 0
EndSplineSet
EndChar

StartChar: z
Encoding: 122 122 55
Width: 1001
VWidth: 1920
Flags: HMW
AnchorPoint: "top" 470 1060 basechar 0
LayerCount: 2
Fore
SplineSet
5 556 m 0
 5 802 105 1038 269 1038 c 0
 443 1038 487 946 586 946 c 0
 715 946 777 1053 867 1053 c 0
 934 1053 963 1022 963 971 c 0
 963 911 930 881 897 839 c 0
 860 792 585 468 537 420 c 0
 528 411 517 398 517 389 c 0
 517 377 541 363 571 349 c 0
 750 267 621 149 733 149 c 0
 775 149 808 216 808 262 c 0
 808 277.249491139 801.273949351 291.642680785 789.000000915 301.870868672 c 0
 785.329625726 304.929484018 774.17894012 312.990160791 765.000001296 316.735890092 c 0
 753.625569553 321.377553261 740.672165388 324 727 324 c 0
 682 324 649 370 649 436 c 0
 649 532 737 580 819 580 c 0
 921 580 1001 485 1001 310 c 0
 1001 -25 841 -208 649 -208 c 0
 520 -208 396 -124 313 -49 c 0
 278 -18 234 -4 204 -4 c 0
 178 -4 145 -23 87 -23 c 0
 29 -23 0 21 0 63 c 0
 0 95 10 125 49 166 c 0
 131 253 266 415 338 505 c 0
 387 567 435 623 435 631 c 0
 435 641 427 645 411 647 c 0
 370 652 340 658 317 664 c 0
 267 677 250 689 231 689 c 0
 201 689 177 665 177 639 c 0
 177 625 192 621 211 616 c 0
 228 612 249 608 266 596 c 0
 285 583 299 561 299 521 c 0
 299 449 233 386 155 386 c 0
 110 386 69 403 42 436 c 0
 19 464 5 504 5 556 c 0
EndSplineSet
EndChar

StartChar: period
Encoding: 46 46 56
Width: 569
VWidth: 1920
Flags: HMW
LayerCount: 2
Back
Fore
SplineSet
135 98 m 0
 135 160 185 210 247 210 c 0
 309 210 359 160 359 98 c 0
 359 36 309 -14 247 -14 c 0
 185 -14 135 36 135 98 c 0
EndSplineSet
EndChar

StartChar: comma
Encoding: 44 44 57
Width: 569
VWidth: 1920
Flags: HMW
LayerCount: 2
Fore
SplineSet
135 -178 m 4
 135 -163 154 -152 175 -139 c 4
 201 -123 269 -64 269 -34 c 4
 269 10.205078125 144 0.1982421875 144 103 c 4
 144 170 194 213 261 213 c 4
 329 213 386 162 386 60 c 4
 386 -98 219 -218 165 -218 c 4
 153 -218 135 -192 135 -178 c 4
EndSplineSet
EndChar

StartChar: uniFB00
Encoding: 64256 64256 58
Width: 1024
VWidth: 1920
Flags: HMW
LayerCount: 2
Fore
SplineSet
201 757 m 4
 144 757 128 730 104 730 c 4
 86 730 80 734 80 762 c 4
 80 784 103 850 129 850 c 4
 154 850 162 840 209 840 c 4
 219 840 223 840 222 869 c 4
 219 953 196 999 196 1082 c 4
 196 1297 384 1420 541 1420 c 4
 669 1420 769 1321 769 1271 c 4
 769 1168 728 1146 687 1146 c 4
 624.475585938 1146 589.655273438 1185 589.655273438 1221 c 4
 589.655273438 1257.765625 601.245117188 1255.49902344 601.245117188 1283 c 4
 601.245117188 1314 566.378431768 1334 503 1334 c 4
 395 1334 310 1260 310 1163 c 4
 310 1070 339.087890625 1020.25585938 359 851 c 4
 361.013671875 833.887695312 372.625 830 403.611328125 830 c 6
 709 830 l 6
 719 830 723 830 722 859 c 4
 719 943 709 999 709 1082 c 4
 709 1297 854 1420 961 1420 c 4
 1019 1420 1079 1381 1079 1331 c 4
 1079 1278 1038 1252 997 1252 c 4
 934 1252 921 1315 863 1315 c 4
 835 1315 810 1240 810 1203 c 4
 810 1090 847 1031 859 861 c 4
 861 831 869 835 884 834 c 4
 918 831 937 830 956 830 c 4
 1003 830 1003 846 1017 846 c 4
 1030 846 1034 837 1034 825 c 4
 1034 776 1009 730 966 730 c 4
 933 730 908 742 875 742 c 4
 866 742 863 728 861 712 c 6
 826 363 l 6
 803 139 780 -58 757 -269 c 4
 753 -306 746 -337 718 -351 c 4
 698 -361 669 -365 624 -365 c 4
 536 -365 520 -351 520 -314 c 4
 520 -295 534 -286 550 -286 c 4
 560 -286 563 -289 569 -289 c 4
 580 -289 601 -284 607 -249 c 4
 639 -44 669 100 703 496 c 6
 723 718 l 6
 725 741 725 749 701 749 c 4
 697.736328125 749 568.819335938 742 375 742 c 4
 366 742 363 728 361 712 c 6
 326 363 l 6
 303 139 280 -58 257 -269 c 4
 253 -306 246 -337 218 -351 c 4
 198 -361 169 -365 124 -365 c 4
 36 -365 20 -351 20 -314 c 4
 20 -295 34 -286 50 -286 c 4
 60 -286 63 -289 69 -289 c 4
 80 -289 101 -284 107 -249 c 4
 139 -44 169 100 203 496 c 6
 223 726 l 6
 225 749 225 757 201 757 c 4
EndSplineSet
LCarets2: 1 0
Ligature2: "'liga' Standard Ligatures lookup" f f
EndChar

StartChar: uniFB01
Encoding: 64257 64257 59
Width: 1024
VWidth: 1920
Flags: HMW
LayerCount: 2
Fore
SplineSet
201 757 m 4
 144 757 128 730 104 730 c 4
 86 730 80 734 80 762 c 4
 80 784 103 850 129 850 c 4
 154 850 162 840 209 840 c 4
 219 840 223 840 222 869 c 4
 219 953 216 999 216 1082 c 4
 216 1297 404 1420 561 1420 c 4
 759 1420 897 1311 897 1191 c 4
 897 1088 848 1057 797 1057 c 4
 744 1057 710 1095 710 1131 c 4
 710 1198 771 1215 771 1243 c 4
 771 1274 726 1353 553 1353 c 4
 445 1353 330 1260 330 1163 c 4
 330 1070 339 1020 359 851 c 4
 361 834 373 830 404 830 c 6
 709 830 l 6
 730 830 804 835 815 835 c 4
 846 835 853 805 853 778 c 4
 853 724 834 679 796 429 c 4
 780 323 758 202 758 143 c 4
 758 108 780 85 815 85 c 4
 875 85 905 194 908 238 c 4
 910 269 922 287 939 287 c 4
 958 287 979 271 979 246 c 4
 979 210 954 96 871 30 c 4
 837 3 796 -25 738 -25 c 4
 649 -25 610 39 610 121 c 4
 610 198 622 271 658 435 c 4
 684 555 698 644 698 688 c 4
 698 731 685 745 661 745 c 4
 640 745 620 745 601 745 c 4
 545 743 467 742 375 742 c 4
 366 742 363 728 361 712 c 6
 326 363 l 6
 303 139 280 -58 257 -269 c 4
 253 -306 246 -337 218 -351 c 4
 198 -361 169 -365 124 -365 c 4
 36 -365 20 -351 20 -314 c 4
 20 -295 34 -286 50 -286 c 4
 60 -286 63 -289 69 -289 c 4
 80 -289 101 -284 107 -249 c 4
 139 -44 169 100 203 496 c 6
 223 726 l 6
 225 749 225 757 201 757 c 4
EndSplineSet
LCarets2: 1 0
Ligature2: "'liga' Standard Ligatures lookup" f i
EndChar

StartChar: uniFB02
Encoding: 64258 64258 60
Width: 1089
VWidth: 1920
Flags: HMW
LayerCount: 2
Fore
SplineSet
359 861 m 4
 361 847 369 835 384 834 c 4
 418 831 442 830 476 830 c 4
 523 830 523 841 537 841 c 4
 550 841 554 832 554 820 c 4
 554 771 529 730 486 730 c 4
 453 730 408 742 375 742 c 4
 366 742 363 728 361 712 c 6
 326 363 l 6
 304 139 280 -58 257 -269 c 0
 253 -306 246 -337 218 -351 c 0
 198 -361 169 -365 124 -365 c 0
 36 -365 20 -351 20 -314 c 0
 20 -295 34 -286 50 -286 c 0
 60 -286 63 -289 69 -289 c 0
 80 -289 101 -284 107 -249 c 0
 139 -44 169 100 203 496 c 2
 223 726 l 2
 225 749 225 757 201 757 c 0
 144 757 128 730 104 730 c 0
 86 730 80 734 80 762 c 0
 80 784 103 850 129 850 c 0
 154 850 162 840 209 840 c 0
 219 840 223 840 222 869 c 0
 219 953 216 999 216 1082 c 0
 216 1297 404 1420 561 1420 c 4
 762 1420 811 1416 892 1416 c 4
 918 1416 936 1407 936 1380 c 4
 936 1324 918 1316 898 1164 c 6
 826 604 l 6
 811 490 782 272 782 170 c 4
 782 118 803 99 838 99 c 4
 892 99 957 191 1000 331 c 4
 1008 357 1005 390 1034 390 c 4
 1058 390 1076 373 1076 353 c 4
 1076 272 1011 115 858 9 c 4
 825 -14 794 -30 756 -30 c 4
 717 -30 684 -3 648 33 c 4
 630 51 622 85 622 105 c 4
 622 191 648 265 688 591 c 6
 726 901 l 6
 748 1083 758 1204 758 1272 c 4
 758 1324 758 1324 718 1335 c 4
 684 1344 632 1355 553 1355 c 4
 445 1355 330 1260 330 1163 c 4
 330 1070 340 978 359 861 c 4
EndSplineSet
LCarets2: 1 0
Ligature2: "'liga' Standard Ligatures lookup" f l
EndChar

StartChar: uniFB03
Encoding: 64259 64259 61
Width: 1459
VWidth: 1920
Flags: HMW
LayerCount: 2
Fore
SplineSet
201 757 m 4
 144 757 128 730 104 730 c 4
 86 730 80 734 80 762 c 4
 80 784 103 850 129 850 c 4
 154 850 162 840 209 840 c 4
 219 840 223 840 222 869 c 4
 219 953 196 999 196 1082 c 4
 196 1297 374 1420 531 1420 c 4
 633.891601562 1420 728.690917305 1356.03004114 757.999998687 1304.96298194 c 4
 771.179172592 1282.00007685 771.179172592 1282.00007685 789.999997146 1302.72981671 c 4
 859.169703055 1378.91510845 960.26221591 1420 1051 1420 c 4
 1249 1420 1387 1311 1387 1191 c 4
 1387 1088 1338 1057 1287 1057 c 4
 1234 1057 1200 1095 1200 1131 c 4
 1200 1198 1261 1215 1261 1243 c 4
 1261 1274 1216 1353 1043 1353 c 4
 935 1353 820 1260 820 1163 c 4
 820 1070 829 1020 849 851 c 4
 851 834 863 830 894 830 c 6
 1199 830 l 6
 1220 830 1294 835 1305 835 c 4
 1336 835 1343 805 1343 778 c 4
 1343 724 1324 679 1286 429 c 4
 1270 323 1248 202 1248 143 c 4
 1248 108 1270 85 1305 85 c 4
 1365 85 1395 194 1398 238 c 4
 1400 269 1412 287 1429 287 c 4
 1448 287 1469 271 1469 246 c 4
 1469 210 1444 96 1361 30 c 4
 1327 3 1286 -25 1228 -25 c 4
 1139 -25 1100 39 1100 121 c 4
 1100 198 1112 271 1148 435 c 4
 1174 555 1188 644 1188 688 c 4
 1188 731 1175 745 1151 745 c 4
 1130 745 1110 745 1091 745 c 4
 1035 743 957 742 865 742 c 4
 856 742 853 728 851 712 c 6
 816 363 l 6
 793 139 770 -58 747 -269 c 4
 743 -306 736 -337 708 -351 c 4
 688 -361 659 -365 614 -365 c 4
 526 -365 510 -351 510 -314 c 4
 510 -295 524 -286 540 -286 c 4
 550 -286 553 -289 559 -289 c 4
 570 -289 591 -284 597 -249 c 4
 629 -44 659 100 693 496 c 6
 713 717 l 6
 715 740 715 748 691 748 c 4
 637.839430431 748 532.881718651 742.000000005 375 742 c 4
 366 742 363 728 361 712 c 6
 326 363 l 6
 303 139 280 -58 257 -269 c 4
 253 -306 246 -337 218 -351 c 4
 198 -361 169 -365 124 -365 c 4
 36 -365 20 -351 20 -314 c 4
 20 -295 34 -286 50 -286 c 4
 60 -286 63 -289 69 -289 c 4
 80 -289 101 -284 107 -249 c 4
 139 -44 169 100 203 496 c 6
 223 726 l 6
 225 749 225 757 201 757 c 4
687 1146 m 4
 624.475585938 1146 589.655273438 1185 589.655273438 1221 c 4
 589.655273438 1257.765625 601.245117188 1255.49902344 601.245117188 1283 c 4
 601.245117188 1314 566.378431768 1334 503 1334 c 4
 395 1334 310 1260 310 1163 c 4
 310 1070 339.087890625 1020.25585938 359 851 c 4
 361.013671875 833.887695312 372.625 830 403.611328125 830 c 6
 693.608398438 830 l 6
 720.221679688 830 712.828996175 844.959110937 712 869 c 4
 709 953 706 999 706 1082 c 4
 706 1096.41677166 709.474609375 1116.26757812 714.469726562 1129 c 4
 723.1015625 1151 710.101782169 1146 687 1146 c 4
EndSplineSet
LCarets2: 2 0 0
Ligature2: "'liga' Standard Ligatures lookup" f f i
EndChar

StartChar: uniFB04
Encoding: 64260 64260 62
Width: 1599
VWidth: 1920
Flags: HMW
LayerCount: 2
Fore
SplineSet
816 363 m 2
 794 139 770 -58 747 -269 c 0
 743 -306 736 -337 708 -351 c 0
 688 -361 659 -365 614 -365 c 0
 526 -365 510 -351 510 -314 c 0
 510 -295 524 -286 540 -286 c 0
 550 -286 553 -289 559 -289 c 0
 570 -289 591 -284 597 -249 c 0
 629 -44 659 100 693 496 c 2
 713 717 l 2
 715 740 715 748 691 748 c 0
 637.839430431 748 532.881718651 742.000000005 375 742 c 0
 366 742 363 728 361 712 c 2
 326 363 l 2
 303 139 280 -58 257 -269 c 0
 253 -306 246 -337 218 -351 c 0
 198 -361 169 -365 124 -365 c 0
 36 -365 20 -351 20 -314 c 0
 20 -295 34 -286 50 -286 c 0
 60 -286 63 -289 69 -289 c 0
 80 -289 101 -284 107 -249 c 0
 139 -44 169 100 203 496 c 2
 223 726 l 2
 225 749 225 757 201 757 c 0
 144 757 128 730 104 730 c 0
 86 730 80 734 80 762 c 0
 80 784 103 850 129 850 c 0
 154 850 162 840 209 840 c 0
 219 840 223 840 222 869 c 0
 219 953 196 999 196 1082 c 0
 196 1297 374 1420 531 1420 c 0
 633.891601562 1420 728.690917305 1356.03004114 757.999998687 1304.96298194 c 0
 771.179172592 1282.00007685 771.179172592 1282.00007685 789.999997146 1302.72981671 c 0
 859.169703055 1378.91510845 960.262695312 1420 1051 1420 c 0
 1252 1420 1321 1416 1402 1416 c 0
 1428 1416 1446 1407 1446 1380 c 0
 1446 1324 1428 1316 1408 1164 c 2
 1336 604 l 2
 1321 490 1292 272 1292 170 c 0
 1292 118 1313 99 1348 99 c 0
 1402 99 1467 191 1510 331 c 0
 1518 357 1515 390 1544 390 c 0
 1568 390 1586 373 1586 353 c 0
 1586 272 1521 115 1368 9 c 0
 1335 -14 1304 -30 1266 -30 c 0
 1227 -30 1194 -3 1158 33 c 0
 1140 51 1132 85 1132 105 c 0
 1132 191 1158 265 1198 591 c 2
 1236 901 l 2
 1258 1083 1268 1204 1268 1272 c 0
 1268 1324 1268 1324 1228 1335 c 0
 1194 1344 1122 1355 1043 1355 c 4
 935 1355 820 1260 820 1163 c 0
 820 1070 830 978 849 861 c 0
 851 847 859 835 874 834 c 0
 908 831 932 830 966 830 c 0
 1013 830 1013 841 1027 841 c 0
 1040 841 1044 832 1044 820 c 0
 1044 771 1019 730 976 730 c 0
 943 730 898 742 865 742 c 0
 856 742 853 728 851 712 c 2
 816 363 l 2
687 1146 m 0
 624.475585938 1146 589.655273438 1185 589.655273438 1221 c 0
 589.655273438 1257.765625 601.245117188 1255.49902344 601.245117188 1283 c 0
 601.245117188 1314 566.378431768 1334 503 1334 c 0
 395 1334 310 1260 310 1163 c 0
 310 1070 339.087890625 1020.25585938 359 851 c 0
 361.013671875 833.887695312 372.625 830 403.611328125 830 c 2
 693.608398438 830 l 2
 720.221679688 830 712.828996175 844.959110937 712 869 c 0
 709 953 706 999 706 1082 c 0
 706 1096.41677166 709.474609375 1116.26757812 714.469726562 1129 c 0
 723.1015625 1151 710.101782169 1146 687 1146 c 0
EndSplineSet
Ligature2: "'liga' Standard Ligatures lookup" f f l
EndChar

StartChar: quotesingle
Encoding: 39 39 63
Width: 569
VWidth: 1920
Flags: HMW
LayerCount: 2
Fore
SplineSet
329 979 m 4
 306 979 303 994 303 1024 c 4
 303 1054.78417969 312.543945312 1094.77050781 312.543945312 1160 c 4
 312.543945312 1213.70019531 305 1281.82910156 305 1342 c 4
 305 1407 377 1453 444 1453 c 4
 489 1453 514 1435 514 1400 c 4
 514 1341.19433594 435.352539062 1217.45410156 410.293945312 1127 c 4
 374.833984375 999 354.833984375 979 329 979 c 4
EndSplineSet
EndChar

StartChar: quoteright
Encoding: 8217 8217 66
Width: 569
VWidth: 1920
Flags: HMW
LayerCount: 2
Fore
SplineSet
270 1025 m 4
 270 1040 287.241210938 1046.18066406 307 1061 c 4
 355 1097 394 1150 394 1180 c 4
 394 1224.20507812 286 1204.19824219 286 1317 c 4
 286 1384 326 1425 393 1425 c 4
 461 1425 512 1376 512 1284 c 4
 512 1126 381 976 317 976 c 4
 296 976 270 1004 270 1025 c 4
EndSplineSet
EndChar

StartChar: quoteleft
Encoding: 8216 8216 67
Width: 569
VWidth: 1920
Flags: HMW
LayerCount: 2
Fore
SplineSet
498 1420 m 4
 498 1405 480.758789062 1398.81933594 461 1384 c 4
 413 1348 374 1295 374 1265 c 4
 374 1220.79492188 482 1240.80175781 482 1128 c 4
 482 1061 442 1020 375 1020 c 4
 307 1020 256 1069 256 1161 c 4
 256 1319 387 1469 451 1469 c 4
 472 1469 498 1441 498 1420 c 4
EndSplineSet
EndChar

StartChar: hyphen
Encoding: 45 45 71
Width: 569
Flags: HMW
LayerCount: 2
Fore
SplineSet
53 346 m 4
 53 370 60 423 68 453 c 4
 73.287109375 472.825195312 85 476 106 476 c 4
 169 476 255 469 308 469 c 4
 400 469 422 477 477 477 c 4
 496 477 509 460 509 441 c 4
 509 417 504 378 496 347 c 4
 491.193500336 328.3748138 473 321 454 321 c 4
 404 321 312 324 176 324 c 4
 152 324 97 318 82 318 c 4
 68 318 53 328 53 346 c 4
EndSplineSet
EndChar

StartChar: exclam
Encoding: 33 33 73
Width: 569
VWidth: 1920
Flags: HMW
LayerCount: 2
Fore
SplineSet
125 98 m 4
 125 160 175 210 237 210 c 4
 299 210 349 160 349 98 c 4
 349 36 299 -14 237 -14 c 4
 175 -14 125 36 125 98 c 4
333 1259 m 4
 353 1366 388 1431 455 1431 c 4
 515 1431 539 1378 539 1301 c 4
 539 1189.91015625 360 603 338.7890625 486 c 4
 329.418945312 434.313476562 320.91015625 389 285 389 c 4
 258.08984375 389 255.599609375 433.594726562 259.2109375 486 c 4
 265 570 312.588867188 1149.80175781 333 1259 c 4
EndSplineSet
EndChar

StartChar: question
Encoding: 63 63 74
Width: 858
VWidth: 1920
Flags: HMW
LayerCount: 2
Fore
SplineSet
265 98 m 4
 265 160 315 210 377 210 c 4
 439 210 489 160 489 98 c 4
 489 36 439 -14 377 -14 c 4
 315 -14 265 36 265 98 c 4
345 350 m 4
 289 350 257 380 257 424 c 4
 257 628 662 845 662 1092 c 4
 662 1209 541 1308 467 1308 c 4
 363 1308 308 1212 308 1127 c 4
 308 1064 328 1046 386 1046 c 4
 415 1046 439 1030 439 1007 c 4
 439 957 415 913 346 913 c 4
 267 913 187 999 187 1079 c 4
 187 1249 362 1434 570 1434 c 4
 688 1434 829 1271 829 1110 c 4
 829 899 385 628 385 489 c 4
 385 466 397 450 422 450 c 4
 462 450 476 507 511 507 c 4
 537 507 554 489 554 461 c 4
 554 380 431 350 345 350 c 4
EndSplineSet
EndChar

StartChar: ampersand
Encoding: 38 38 75
Width: 1695
Flags: HMW
LayerCount: 2
Fore
SplineSet
918 415 m 0
 849 415 795 464 809 576 c 0
 856 955 1360 998 1374 1112 c 0
 1377 1135 1361 1153 1338 1153 c 0
 1322 1153 1314 1152 1302 1150 c 0
 1288 1148 1280 1144 1269 1144 c 0
 1247 1144 1233 1155 1236 1178 c 0
 1254 1325 1414 1384 1540 1384 c 0
 1686 1384 1803 1265 1784 1107 c 0
 1728 650 1003 661 989 550 c 0
 985 517 1002 497 999 471 c 0
 995 437 966 415 918 415 c 0
912 1131 m 0
 885 1131 867 1144 847 1163 c 0
 839 1170 831 1178 822 1184 c 0
 801 1198 775 1208 742 1208 c 0
 677 1208 634 1139 626 1075 c 0
 608 931 619 876 667 876 c 0
 685 876 661 866 657 833 c 0
 654 805 682 804 668 804 c 0
 624 804 595 809 574 635 c 0
 546 411 691 237 884 237 c 4
 1027 237 1182 352 1199 490 c 0
 1215 618 1110 619 966 656 c 1
 1381 729 l 1
 1506 712 1606 614 1591 493 c 0
 1552 172 1170 -45 711 -45 c 0
 242 -45 -16 192 17 463 c 0
 64 844 490 967 681 967 c 0
 801 967 824 908 817 851 c 0
 811 804 753 693 553 693 c 0
 313 693 189 835 217 1065 c 0
 246 1305 507 1457 760 1457 c 0
 943 1457 1070 1368 1055 1244 c 0
 1047 1180 971 1131 912 1131 c 0
EndSplineSet
EndChar

StartChar: one
Encoding: 49 49 76
Width: 797
VWidth: 1920
Flags: HMW
LayerCount: 2
Fore
SplineSet
348 591 m 2
 386 997 l 2
 388.182617188 1020.32324219 387 1041 368 1041 c 0
 316 1041 227 969 197 969 c 0
 177 969 165 983 165 1003 c 0
 165 1028 174.69921875 1053.79003906 257 1101 c 0
 409.315429688 1188.37304688 575.888671875 1218 619 1218 c 0
 643 1218 659 1208 659 1183 c 0
 659 1162 640.8125 1147.76074219 594 1134 c 0
 577.317382812 1129.09570312 571.232421875 1122.30664062 568.98828125 1111 c 0
 560.391601562 1067.68554688 551.657226562 1014.01367188 538 894 c 2
 505 604 l 2
 476.15625 350.520507812 466 184.846679688 466 136 c 0
 466 85 488 78 534 78 c 0
 588 78 620 92 649 92 c 0
 667 92 678 81 678 65 c 0
 678 29 643 -15 344 -15 c 0
 64 -15 34 21 34 58 c 0
 34 75 48 87 66 87 c 0
 94 87 149 73 196 73 c 0
 245 73 269 84 280 110 c 0
 304 168 321.5859375 308.787109375 348 591 c 2
EndSplineSet
EndChar

StartChar: two
Encoding: 50 50 77
Width: 1024
Flags: HMW
LayerCount: 2
Fore
SplineSet
238 909 m 0
 219 909 202 920 202 949 c 0
 202 1051 347 1255 653 1255 c 0
 829 1255 955 1156 955 984 c 0
 955 772 729 529 466 269 c 0
 414.14453125 217.736328125 376 184 376 172 c 0
 376 156 401 155 454 155 c 18
 756 155 l 2
 833 155 836.67578125 181.052734375 842 222 c 0
 848.274414062 270.255859375 858 283 882 283 c 0
 909 283 918 267 918 233 c 0
 918 199.383789062 901.208007812 123.9140625 876.298828125 57 c 0
 832 -62 822.146484375 -81 789 -81 c 0
 766 -81 758 -64 758 -53 c 0
 758 -34 765 -32 765 -16 c 0
 765 -2 744 0 722 0 c 2
 281 0 l 18
 254 0 182 -8 151 -8 c 0
 126 -8 111 -2 111 13 c 0
 111 43 128 48 164 84 c 16
 200 120 272 192 456 376 c 0
 640 560 782 766 782 936 c 0
 782 1076 713 1167 583 1167 c 0
 433 1167 329.509765625 1063.13574219 299 980 c 0
 277.97265625 922.704101562 265 909 238 909 c 0
EndSplineSet
EndChar

StartChar: three
Encoding: 51 51 78
Width: 1026
Flags: HMW
LayerCount: 2
Fore
SplineSet
232 925 m 0
 207 925 187 939 187 969 c 0
 187 1116.07617188 387.9609375 1274 596 1274 c 0
 841 1274 918 1115 918 980 c 0
 918 905 859 795 798 725 c 0
 786 711 760 686 760 679 c 0
 760 669 779.637695312 657.12890625 798 646 c 0
 897 586 953 505 953 388 c 0
 953 51 639 -163 398 -163 c 0
 187 -163 105 -66 105 -28 c 0
 105 -10 115 17 143 17 c 0
 156 17 171.844726562 4.7978515625 190 -9 c 0
 240 -47 332 -77 412 -77 c 0
 592 -77 763 113 763 345 c 0
 763 483.8203125 658 565 630.58984375 565 c 0
 597.983398438 565 579 531 533 531 c 0
 509.8046875 531 490 547 490 579 c 0
 490 616 522.860351562 614.559570312 540 623 c 0
 672 688 749 800 749 943 c 0
 749 1086 651 1173 535 1173 c 0
 439 1173 304 1103 278 995 c 0
 270.561523438 964.102539062 274 925 232 925 c 0
EndSplineSet
EndChar

StartChar: four
Encoding: 52 52 79
Width: 1026
Flags: HMW
LayerCount: 2
Fore
SplineSet
672 535 m 4
 672 573 707 824 712 888 c 4
 715.426757812 931.866210938 719 993 699 993 c 4
 684 993 664 969 645 946 c 6
 377 630 l 6
 346 593 306 550 306 524 c 4
 306 498 360 493 395 493 c 12
 485 493 568 494 622 494 c 4
 660 494 672 507 672 535 c 4
605 345 m 6
 199 345 l 6
 150 345 95 347 95 384 c 6
 95 386 l 6
 95 424 131 449 157 480 c 14
 760 1175 l 6
 803.705078125 1225.37402344 842 1304 882 1304 c 4
 908 1304 913 1280 913 1267 c 4
 913 1231 898.59765625 1180.58203125 894 1141 c 6
 825 547 l 6
 821.458007812 521.350585938 818 506 836 506 c 4
 866 506 884 526 906 526 c 4
 918 526 923 505 923 483 c 4
 923 426.5 901 341 869 341 c 4
 851 341 833 342 817 342 c 4
 811 342 804 339 804 329 c 6
 771 16 l 6
 766.609375 -25.642578125 780 -64 780 -76 c 4
 780 -92 771 -102 747 -112 c 4
 714 -126 640 -134 619 -134 c 4
 605 -134 589 -126 589 -94 c 4
 589 -72 602.950195312 -45.6689453125 610 18 c 6
 642 307 l 6
 644.41796875 328.83984375 634 345 605 345 c 6
EndSplineSet
EndChar

StartChar: five
Encoding: 53 53 80
Width: 912
Flags: HMW
LayerCount: 2
Fore
SplineSet
358 1248 m 2
 771 1248 l 2
 826 1248 834 1268 843 1291 c 0
 852.453125 1315.15820312 856 1330 875 1330 c 0
 894 1330 901 1318 901 1288 c 0
 901 1257.78515625 897.938476562 1239.80859375 886.286132812 1207 c 0
 877.662109375 1182.72167969 865.202148438 1152.07519531 838 1109 c 0
 830.323242188 1096.84375 823 1093 802 1093 c 2
 386 1093 l 2
 374 1093 370.25390625 1090.2421875 367 1079 c 2
 296 845 l 2
 293.13671875 835.563476562 287.950195312 823 300 823 c 0
 618 823 852 669 852 379 c 0
 852 129.2109375 635.934570312 -163 321 -163 c 0
 217 -163 104.999023438 -117.397460938 80 -83 c 0
 55.8896484375 -49.826171875 79 -15 109 -15 c 0
 139 -15 192 -80 339 -80 c 0
 505 -80 714 51 714 315 c 0
 714 569 494 674 190 664 c 0
 156.154296875 662.88671875 161.038085938 676.06640625 178 731 c 2
 333 1233 l 2
 336.616210938 1244.71289062 342 1248 358 1248 c 2
EndSplineSet
EndChar

StartChar: six
Encoding: 54 54 81
Width: 1026
Flags: HMW
LayerCount: 2
Fore
SplineSet
317 422 m 4
 317 203 383 47 545 47 c 4
 717 47 813 262 813 491 c 4
 813 710 727 829 575 829 c 4
 443 829 317 641 317 422 c 4
144 457 m 4
 144 821 336 1155 618 1348 c 4
 667.856445312 1382.12207031 734 1409 782 1409 c 4
 819 1409 839 1396.99902344 839 1378 c 4
 839 1359.06640625 816.224609375 1346.39355469 796 1342.78222656 c 4
 756.5390625 1335.73535156 728.529296875 1323.7109375 686 1300.14550781 c 4
 539.8359375 1219.15820312 458.809570312 1102.61132812 375 863 c 4
 370.708007812 850.729492188 367 842 367 835 c 4
 367 827 372 822 379 822 c 4
 387 822 400 829 415 842 c 4
 470 891 544 939 656 939 c 4
 848 939 979 802 979 553 c 4
 979 365.331054688 880.869140625 157.627929688 741.9140625 51 c 4
 681.693359375 4.7900390625 614.12109375 -20 538 -20 c 4
 316 -20 144 133 144 457 c 4
EndSplineSet
EndChar

StartChar: seven
Encoding: 55 55 82
Width: 1024
Flags: HMW
LayerCount: 2
Fore
SplineSet
365 1252 m 0
 409 1252 771 1263 815 1265 c 0
 858.955078125 1266.99804688 927 1270 965 1270 c 8
 1003 1270 1022 1251 1022 1224 c 0
 1022 1184 999.532226562 1155.75878906 983 1117 c 10
 460 -112 l 2
 436.423828125 -166.737304688 429 -179 387 -179 c 0
 302 -179 260 -171 260 -135 c 0
 260 -103.877929688 281.641601562 -91.5927734375 299.413085938 -86 c 0
 322.911132812 -78.6044921875 328.470703125 -66.9765625 339 -46 c 10
 817 978 l 2
 828.718847346 1003.10481105 848 1038 848 1054 c 0
 848 1070 823 1070 791 1070 c 0
 749 1070 423 1055 349 1055 c 0
 305 1055 285 1027 285 1001 c 0
 285 912 250.591796875 912 230 912 c 0
 204 912 176 929 176 985 c 0
 176 1057 185.798828125 1093.60839844 198 1154 c 0
 223.823242188 1281.81347656 252 1308 276 1308 c 0
 301.637695312 1308 315.24609375 1298.17675781 322 1283.78320312 c 0
 331.162109375 1264.2578125 343.637695312 1252 365 1252 c 0
EndSplineSet
EndChar

StartChar: eight
Encoding: 56 56 83
Width: 1024
Flags: HMW
LayerCount: 2
Fore
SplineSet
296 1063 m 0
 296 1227 427 1415 646 1415 c 0
 780 1415 926 1320 926 1170 c 0
 926 1027 798 910 697 849 c 0
 673.495117188 834.803710938 667 830 667 825 c 0
 667 818 673.935546875 811.872070312 684 803 c 0
 895 617 947 549 947 396 c 0
 947 238 802 -15 468 -15 c 0
 416.930664062 -15 361.232421875 -7.2734375 322 8.9248046875 c 0
 190.059570312 63.400390625 121 201.172851562 121 320 c 0
 121 462 203.580078125 629.676757812 414 770 c 0
 427.645507812 779.099609375 442 786 442 791 c 0
 442 795 427.8203125 806.111328125 404 835 c 0
 357 892 296 981 296 1063 c 0
476 720 m 0
 338 636 216 491 216 317 c 0
 216 144 337 46 489 46 c 0
 701 46 817 196 817 330 c 0
 817 484 681 589 538 713 c 0
 514.108398438 733.716796875 507 735 502 735 c 0
 497 735 489.260742188 728.071289062 476 720 c 0
690 933 m 0
 752 972 834 1068 834 1176 c 0
 834 1284 742 1352 654 1352 c 0
 500 1352 423 1244 423 1140 c 0
 423 1077 462 984 570 905 c 0
 588.581054688 891.408203125 594 883 600 883 c 0
 609 883 635 898 690 933 c 0
EndSplineSet
EndChar

StartChar: nine
Encoding: 57 57 84
Width: 1026
Flags: HMW
LayerCount: 2
Fore
SplineSet
847 882 m 0
 847 1101 749 1187 627 1187 c 0
 495 1187 336 1002 336 753 c 0
 336 544 421 465 573 465 c 0
 705 465 847 633 847 882 c 0
990 826 m 0
 990 502 778 145 536 -48 c 0
 488.766601562 -85.669921875 414 -124 366 -124 c 0
 329 -124 309 -107.999023438 309 -89 c 0
 309 -70.06640625 331.775390625 -57.3935546875 352 -53.7822265625 c 0
 391.4609375 -46.7353515625 428.650390625 -27.275390625 466 3.8544921875 c 0
 599.1640625 114.841796875 685.190429688 215.388671875 749 415 c 0
 751.049804688 421.412109375 755 433 755 442 c 0
 755 449 753 454 747 454 c 0
 739 454 724.55859375 441.2578125 707 432 c 0
 652 403 606 371 494 371 c 0
 322 371 165 522 165 721 c 0
 165 1040 399 1264 641 1264 c 0
 863 1264 990 1090 990 826 c 0
EndSplineSet
EndChar

StartChar: figuredash
Encoding: 8210 8210 85
Width: 1829
Flags: HMW
LayerCount: 2
Fore
SplineSet
53 346 m 4
 53 370 60 423 68 453 c 4
 73.287109375 472.825195312 85 476 106 476 c 4
 169 476 1525 469 1578 469 c 4
 1670 469 1682 477 1737 477 c 4
 1756 477 1769 460 1769 441 c 4
 1769 417 1764 378 1756 347 c 4
 1751.19335938 328.375 1733 321 1714 321 c 4
 1664 321 312 324 176 324 c 4
 152 324 97 318 82 318 c 4
 68 318 53 328 53 346 c 4
EndSplineSet
EndChar

StartChar: slash
Encoding: 47 47 86
Width: 700
Flags: HMW
LayerCount: 2
Fore
SplineSet
63 -112 m 0
 41 -160 19 -186 -13 -186 c 0
 -46 -186 -65 -170 -65 -145 c 0
 -65 -109.772460938 -27 -61 23 40 c 0
 247 485 466 936 677 1396 c 0
 699 1444 721 1470 753 1470 c 4
 786 1470 805 1455 805 1429 c 0
 805 1393.77246094 767 1345 717 1244 c 0
 493 799 274 348 63 -112 c 0
EndSplineSet
EndChar

StartChar: endash
Encoding: 8211 8211 87
Width: 1119
Flags: HMW
LayerCount: 2
Fore
SplineSet
53 346 m 0
 53 370 60 423 68 453 c 0
 73.287109375 472.825195312 85 476 106 476 c 0
 169 476 785 469 838 469 c 0
 930 469 942 477 997 477 c 0
 1016 477 1029 460 1029 441 c 0
 1029 417 1024 378 1016 347 c 0
 1011.19335938 328.375 993 321 974 321 c 0
 924 321 312 324 176 324 c 0
 152 324 97 318 82 318 c 0
 68 318 53 328 53 346 c 0
EndSplineSet
EndChar

StartChar: emdash
Encoding: 8212 8212 88
Width: 1829
Flags: HMW
LayerCount: 2
Fore
SplineSet
53 346 m 0
 53 370 60 423 68 453 c 0
 73.287109375 472.825195312 85 476 106 476 c 0
 169 476 1525 469 1578 469 c 0
 1670 469 1682 477 1737 477 c 0
 1756 477 1769 460 1769 441 c 0
 1769 417 1764 378 1756 347 c 0
 1751.19335938 328.375 1733 321 1714 321 c 0
 1664 321 312 324 176 324 c 0
 152 324 97 318 82 318 c 0
 68 318 53 328 53 346 c 0
EndSplineSet
EndChar

StartChar: uni2015
Encoding: 8213 8213 89
Width: 1829
Flags: HMW
LayerCount: 2
Fore
SplineSet
53 346 m 0
 53 370 60 423 68 453 c 0
 73.287109375 472.825195312 85 476 106 476 c 0
 169 476 1525 469 1578 469 c 0
 1670 469 1682 477 1737 477 c 0
 1756 477 1769 460 1769 441 c 0
 1769 417 1764 378 1756 347 c 0
 1751.19335938 328.375 1733 321 1714 321 c 0
 1664 321 312 324 176 324 c 0
 152 324 97 318 82 318 c 0
 68 318 53 328 53 346 c 0
EndSplineSet
EndChar

StartChar: numbersign
Encoding: 35 35 90
Width: 1163
Flags: HMW
LayerCount: 2
Fore
SplineSet
889 1200 m 4
 916 1200 930 1185 930 1155 c 4
 930 1135 912 1098 900 1042 c 14
 662 -52 l 22
 651 -101 618 -126 596 -126 c 4
 571 -126 555 -111 555 -75 c 4
 555 -40 599 -4 622 100 c 14
 798 898 l 22
 826.96484375 1029.33105469 831 1114 831 1140 c 4
 831 1180 861 1200 889 1200 c 4
539 1200 m 4
 566 1200 580 1185 580 1155 c 4
 580 1135 562 1098 550 1042 c 14
 312 -52 l 22
 301 -101 268 -126 246 -126 c 4
 221 -126 205 -111 205 -75 c 4
 205 -40 249 -4 272 100 c 14
 448 898 l 22
 476.96484375 1029.33105469 481 1114 481 1140 c 4
 481 1180 511 1200 539 1200 c 4
131 738 m 4
 131 762 157 815 185 845 c 4
 199 860 212 868 233 868 c 4
 296 868 892 853 945 853 c 4
 1037 853 1056 869 1111 869 c 4
 1130 869 1143 852 1143 833 c 4
 1143 809 1120 758 1103 727 c 4
 1094 710 1080 701 1061 701 c 4
 1033 701 984 720 921 720 c 6
 341 720 l 6
 261 720 174 710 159 710 c 4
 145 710 131 720 131 738 c 4
71 318 m 4
 71 342 97 395 125 425 c 4
 139 440 152 448 173 448 c 4
 236 448 832 433 885 433 c 4
 977 433 996 449 1051 449 c 4
 1070 449 1083 432 1083 413 c 4
 1083 389 1060 338 1043 307 c 4
 1034 290 1020 281 1001 281 c 4
 973 281 924 300 861 300 c 6
 281 300 l 6
 201 300 114 290 99 290 c 4
 85 290 71 300 71 318 c 4
EndSplineSet
EndChar

StartChar: underscore
Encoding: 95 95 91
Width: 1024
VWidth: 2048
Flags: HMW
LayerCount: 2
Fore
SplineSet
430 -452 m 6
 104 -452 39 -459 -37 -459 c 4
 -64 -459 -77 -456 -74 -435 c 6
 -66 -375 l 6
 -63 -354 -50 -351 -23 -351 c 4
 53 -351 116 -358 442 -358 c 6
 463 -358 l 6
 789 -358 885 -351 961 -351 c 4
 988 -351 1001 -354 998 -375 c 6
 990 -435 l 6
 987 -456 974 -459 947 -459 c 4
 871 -459 777 -452 451 -452 c 6
 430 -452 l 6
EndSplineSet
EndChar

StartChar: dollar
Encoding: 36 36 92
Width: 1136
VWidth: 1920
Flags: HMW
LayerCount: 2
Fore
SplineSet
661 26 m 6
 658.311156948 3.08081398929 660 -46 660 -58 c 4
 660 -127 610 -125 556 -125 c 4
 508 -125 458 -129 438 -129 c 4
 398 -129 382 -107 382 -86 c 4
 382 -54 400.05389984 -46.8969838676 413 72 c 6
 538 1220 l 6
 542.544110095 1261.73310712 544 1313 544 1335 c 4
 544 1391 626 1397 687 1397 c 4
 781 1397 817 1392 817 1340 c 4
 817 1328 810.793856004 1302.81429641 808 1279 c 6
 661 26 l 6
277 340 m 0
 292 306 319 275 350 253 c 0
 386 228 427 206 474 206 c 256
 582 206 633 250 633 281 c 256
 633 347 613 373 428 472 c 0
 284 549 159 673 159 848 c 256
 159 1076 427 1265 674 1265 c 256
 848 1265 1032 1210 1094 1158 c 0
 1128 1129 1135 1086 1135 1059 c 0
 1135 977 1057 881 989 881 c 0
 972 881 953 889 938 902 c 0
 913 924 895 949 876 969 c 0
 869 976 862 983 855 989 c 0
 822 1016 776 1037 719 1037 c 256
 652 1037 607 1004 607 954 c 256
 607 876 693 850 833 779 c 0
 1023 682 1104 597 1104 418 c 256
 1104 197 854 -15 584 -15 c 256
 437 -15 243 19 131 92 c 0
 85 122 47 151 47 237 c 0
 47 378 134 435 177 435 c 0
 217 435 252 395 277 340 c 0
EndSplineSet
EndChar

StartChar: at
Encoding: 64 64 93
Width: 1538
VWidth: 1920
Flags: HMW
LayerCount: 2
Fore
SplineSet
90 412 m 0
 90 944 556 1187 909 1187 c 0
 1284 1187 1468 944 1468 662 c 0
 1468 382 1264 137 976 137 c 0
 904 137 863 153 854 210 c 0
 852.440374265 219.877629653 850.059117478 233.229700764 847 254 c 0
 845.387367227 264.949192208 839 270 829 270 c 0
 816 270 802.726414984 256.372816094 794 247 c 0
 740 189 686 144 589 144 c 0
 475 144 420 237 420 355 c 0
 420 612 617 869 809 869 c 0
 855 869 895.712912119 846.191391921 926 826 c 0
 932 822 940 818 953 818 c 0
 964.512695312 818 977.086914062 820.2734375 998 832.805664062 c 0
 1015.5703125 843.333984375 1027.31277484 850.933285158 1040 857.16245152 c 0
 1066.12554756 869.989557527 1090.34387585 876 1133 876 c 0
 1159 876 1170 859 1170 838 c 0
 1170 816 1166 780 1159 727 c 0
 1144 610 1126 506 1126 406 c 0
 1126 376 1139 360 1160 360 c 0
 1219 360 1298 495 1298 652 c 0
 1298 884 1168 1044 918 1044 c 4
 637 1044 269 767 269 402 c 4
 269 106 483 -72 752 -72 c 0
 942 -72 1074 0 1169 82 c 0
 1178 90 1191 98 1204 98 c 0
 1234 98 1290 33 1290 10 c 0
 1290 -10 1273 -23 1260 -34 c 0
 1157 -119 988 -221 751 -221 c 0
 412 -221 90 8 90 412 c 0
875 718 m 0
 817 718 719 529 719 423 c 0
 719 393 731 361 754 361 c 0
 805 361 905 549 905 678 c 0
 905 701 894 718 875 718 c 0
EndSplineSet
EndChar

StartChar: braceleft
Encoding: 123 123 95
Width: 750
Flags: HMW
LayerCount: 2
Fore
SplineSet
206 594 m 0
 196 513 251 505 258 363 c 0
 261 290 251 -51 253 -108 c 0
 255 -165 262 -181 286 -191 c 0
 321 -205 376 -210 434 -210 c 0
 512 -210 554 -205 589 -205 c 0
 619 -205 630 -221 626 -254 c 0
 622 -288 609 -300 581 -308 c 0
 545 -319 488 -336 381 -336 c 0
 294 -336 191 -312 145 -303 c 0
 98 -294 76 -273 81 -234 c 0
 86 -195 143 222 159 351 c 0
 169 430 78 490 92 604 c 4
 106 718 209 758 219 837 c 0
 235 966 280 1383 285 1422 c 0
 290 1461 316 1482 365 1491 c 0
 414 1500 522 1524 609 1524 c 0
 716 1524 770 1507 803 1496 c 0
 829 1488 838 1476 834 1442 c 0
 830 1409 815 1393 785 1393 c 0
 750 1393 690 1398 612 1398 c 0
 554 1398 517 1393 478 1379 c 0
 451 1369 441 1353 425 1296 c 0
 409 1239 335 898 314 825 c 0
 273 683 216 675 206 594 c 0
EndSplineSet
EndChar

StartChar: bar
Encoding: 124 124 96
Width: 428
VWidth: 1920
Flags: HMW
LayerCount: 2
Fore
SplineSet
261 146 m 6
 261 -180 268 -244 268 -320 c 4
 268 -347 265 -360 244 -360 c 6
 184 -360 l 6
 163 -360 160 -347 160 -320 c 4
 160 -244 167 -180 167 146 c 6
 167 863 l 6
 167 1189 160 1284 160 1360 c 4
 160 1387 163 1400 184 1400 c 6
 244 1400 l 6
 265 1400 268 1387 268 1360 c 4
 268 1284 261 1189 261 863 c 6
 261 146 l 6
EndSplineSet
EndChar

StartChar: braceright
Encoding: 125 125 97
Width: 750
Flags: HMW
LayerCount: 2
Fore
SplineSet
644 594 m 0
 654 675 599 683 592 825 c 0
 589 898 599 1239 597 1296 c 0
 595 1353 588 1369 564 1379 c 0
 529 1393 474 1398 416 1398 c 0
 338 1398 296 1393 261 1393 c 0
 231 1393 220 1409 224 1442 c 0
 228 1476 241 1488 269 1496 c 0
 305 1507 362 1524 469 1524 c 0
 556 1524 659 1500 705 1491 c 0
 752 1482 774 1461 769 1422 c 0
 764 1383 707 966 691 837 c 0
 681 758 772 698 758 584 c 4
 744 470 641 430 631 351 c 0
 615 222 570 -195 565 -234 c 0
 560 -273 534 -294 485 -303 c 0
 436 -312 328 -336 241 -336 c 0
 134 -336 80 -319 47 -308 c 0
 21 -300 12 -288 16 -254 c 0
 20 -221 35 -205 65 -205 c 0
 100 -205 160 -210 238 -210 c 0
 296 -210 333 -205 372 -191 c 0
 399 -181 409 -165 425 -108 c 0
 441 -51 515 290 536 363 c 0
 577 505 634 513 644 594 c 0
EndSplineSet
EndChar

StartChar: bracketleft
Encoding: 91 91 98
Width: 740
Flags: HMW
LayerCount: 2
Fore
SplineSet
219 837 m 6
 235 966 280 1383 285 1422 c 4
 290 1461 316 1482 365 1491 c 4
 414 1500 522 1524 609 1524 c 4
 716 1524 770 1507 803 1496 c 4
 829 1488 839 1481 836 1457 c 4
 832 1424 819 1423 789 1423 c 4
 661 1423 571 1423 532 1410 c 4
 505 1401 495 1384 479 1327 c 4
 463 1270 401 999 367 725 c 6
 335 463 l 6
 301 189 297 -82 299 -139 c 4
 301 -196 307 -213 332 -222 c 4
 367 -235 457 -235 585 -235 c 4
 615 -235 628 -236 624 -269 c 4
 621 -293 609 -300 581 -308 c 4
 545 -319 488 -336 381 -336 c 4
 294 -336 191 -312 145 -303 c 4
 98 -294 76 -273 81 -234 c 4
 86 -195 143 222 159 351 c 6
 219 837 l 6
EndSplineSet
EndChar

StartChar: bracketright
Encoding: 93 93 99
Width: 740
Flags: HMW
LayerCount: 2
Fore
SplineSet
621 351 m 6
 605 222 560 -195 555 -234 c 4
 550 -273 524 -294 475 -303 c 4
 426 -312 318 -336 231 -336 c 4
 124 -336 70 -319 37 -308 c 4
 11 -300 1 -293 4 -269 c 4
 8 -236 21 -235 51 -235 c 4
 179 -235 269 -235 308 -222 c 4
 335 -213 345 -196 361 -139 c 4
 377 -82 439 189 473 463 c 6
 505 725 l 6
 539 999 543 1270 541 1327 c 4
 539 1384 533 1401 508 1410 c 4
 473 1423 383 1423 255 1423 c 4
 225 1423 212 1424 216 1457 c 4
 219 1481 231 1488 259 1496 c 4
 295 1507 352 1524 459 1524 c 4
 546 1524 649 1500 695 1491 c 4
 742 1482 764 1461 759 1422 c 4
 754 1383 697 966 681 837 c 6
 621 351 l 6
EndSplineSet
EndChar

StartChar: parenleft
Encoding: 40 40 100
Width: 682
Flags: HMW
LayerCount: 2
Fore
SplineSet
56 744 m 4
 56 828 83.517434658 903.738370878 171 1042 c 4
 321.208984375 1279.39746094 422 1434 505 1434 c 4
 553 1434 632 1407 686 1386 c 4
 712.245117188 1375.79296875 724 1355 724 1331 c 4
 724 1308 711 1276 681 1276 c 4
 646 1276 597 1309 510 1309 c 4
 448 1309 418.260719568 1211.27179501 297 968 c 4
 263.158393041 900.107375741 256.00390625 794.704101562 250 734 c 4
 232 552 202 244 217 10 c 4
 227.152906927 -148.385348063 228 -184 290 -184 c 4
 337 -184 415 -141 450 -141 c 4
 470 -141 476 -152 476 -175 c 4
 476 -229 451 -260 424 -268 c 4
 389.737218307 -278.151935316 249 -326 201 -326 c 4
 148 -326 125.137715402 -272.208384035 101 -64 c 4
 70.9469572563 195.233127941 56 660 56 744 c 4
EndSplineSet
EndChar

StartChar: parenright
Encoding: 41 41 101
Width: 682
Flags: HMW
LayerCount: 2
Fore
SplineSet
680 764 m 0
 680 660 524.052734375 215.233398438 425 -44 c 0
 350.186557561 -239.796138841 348 -266 295 -266 c 0
 247 -266 106.262695312 -251.15234375 72 -241 c 4
 45 -233 38 -209 38 -155 c 0
 38 -132 46 -121 66 -121 c 0
 101 -121 149 -154 226 -154 c 0
 288 -154 296.522015443 -122.920744406 339 30 c 0
 404 264 496 556 496 754 c 0
 496 815.000285547 491.641109409 917.770955691 476 992 c 0
 424.739257812 1235.27148438 417 1339 355 1339 c 0
 268 1339 250 1286 215 1286 c 0
 185 1286 172 1328 172 1351 c 0
 172 1375 173.754882812 1395.79296875 200 1406 c 0
 254 1427 333 1454 381 1454 c 0
 464 1454 518.791015625 1299.39746094 609 1062 c 0
 667.1171875 909.055664062 680 848 680 764 c 0
EndSplineSet
EndChar

StartChar: backslash
Encoding: 92 92 102
Width: 700
Flags: HMW
LayerCount: 2
Fore
SplineSet
541 -112 m 0
 443 348 336 799 221 1244 c 0
 196 1345 175 1375.77246094 175 1411 c 0
 175 1448 199 1470 232 1470 c 0
 264 1470 288 1444 299 1396 c 0
 397 936 504 485 619 40 c 0
 644 -61 664 -95 664 -131 c 4
 664 -168.3359375 641 -186 608 -186 c 0
 576 -186 552 -160 541 -112 c 0
EndSplineSet
EndChar

StartChar: asterisk
Encoding: 42 42 103
Width: 1080
VWidth: 1920
Flags: HMW
LayerCount: 2
Fore
SplineSet
618 1027.88483451 m 0
 648.164908939 1026.77390295 687.115075779 1018 748 1018 c 0
 802 1018 870 1026 930 1026 c 0
 995 1026 1041 954 1041 887 c 0
 1041 842 1023 817 988 817 c 0
 929 817 805 896 715 921 c 0
 668.471858558 933.722538675 636.214086878 944.463081551 614 954.230269355 c 0
 600.732269476 960.063883694 600.732269476 960.063883694 608.60910277 947 c 0
 624.283671248 921.003418388 635.407655559 882.273863535 667 826 c 0
 694 779 734 724 764 672 c 0
 796 616 758 539 700 506 c 0
 661 483 630 486 613 517 c 0
 583 568 590 715 566 806 c 0
 554.032526897 852.781940311 547.325675005 886.017781004 544.687089346 910 c 0
 543.133981525 924.116264057 543.133981525 924.116264057 534.288151014 909 c 0
 518.928384667 882.752347651 491.783232424 852.935182294 460 799 c 0
 433 752 405 690 375 638 c 0
 343 582 257 577 199 611 c 0
 160 633 147 662 165 692 c 0
 194 743 325 811 392 877 c 0
 425.560444429 909.853908757 450.634613705 931.975175408 470 946.27355366 c 0
 482.363404312 955.402038299 482.363404312 955.402038299 463 956.115165493 c 0
 432.835091061 957.226097048 393.884924221 966 333 966 c 0
 279 966 211 958 151 958 c 0
 86 958 40 1030 40 1097 c 0
 40 1142 58 1167 93 1167 c 0
 152 1167 276 1088 366 1063 c 0
 409.149320661 1051.20135763 440.025612858 1041.10730255 462 1031.91336212 c 0
 478.592520405 1024.97115968 478.592520405 1024.97115968 468.428012561 1044 c 0
 454.649396876 1069.79476368 442.872678107 1106.57054212 414 1158 c 0
 387 1205 347 1260 317 1312 c 0
 285 1368 323 1445 381 1478 c 0
 420 1501 451 1498 468 1467 c 0
 498 1416 491 1269 515 1178 c 0
 526 1135 532.555555556 1103.44444444 535.592592593 1080 c 0
 538.038261185 1061.12063148 538.038261185 1061.12063148 549.124085144 1079 c 0
 564.820670773 1104.31566802 590.819247665 1133.78417786 621 1185 c 0
 648 1232 676 1294 706 1346 c 0
 738 1402 824 1407 882 1373 c 0
 921 1351 934 1322 916 1292 c 0
 887 1241 756 1173 689 1107 c 0
 656.01431636 1074.70875181 631.226722705 1052.78567624 612 1038.4679724 c 0
 598.740770278 1028.5941251 598.740770278 1028.5941251 618 1027.88483451 c 0
EndSplineSet
EndChar

StartChar: plus
Encoding: 43 43 104
Width: 1222
Flags: HMW
LayerCount: 2
Fore
SplineSet
657 456 m 2
 657 280 664 166 664 90 c 0
 664 63 661 50 640 50 c 2
 580 50 l 2
 559 50 556 63 556 90 c 0
 556 166 563 280 563 456 c 2
 563 533 l 2
 563 709 556 854 556 930 c 0
 556 957 559 970 580 970 c 2
 640 970 l 2
 661 970 664 957 664 930 c 0
 664 854 657 709 657 533 c 2
 657 456 l 2
130 478 m 4
 130 502 141 515 169 545 c 4
 183 560 196 568 217 568 c 4
 280 568 841 553 894 553 c 4
 986 553 1005 569 1060 569 c 4
 1079 569 1092 552 1092 533 c 4
 1092 509 1084 498 1067 467 c 4
 1058 450 1044 441 1025 441 c 4
 997 441 948 460 885 460 c 6
 340 460 l 6
 260 460 174 450 159 450 c 4
 145 450 130 460 130 478 c 4
EndSplineSet
EndChar

StartChar: uni2768
Encoding: 10088 10088 105
Width: 2954
Flags: HMW
LayerCount: 2
Fore
SplineSet
433 -241 m 0
 277 -241 100 -162 100 45 c 0
 100 262 322 423 667 489 c 0
 715 498 768 508 825 519 c 1
 680 565 529 685 529 856 c 0
 529 1081 727 1215 971 1250 c 1
 905 1297 857 1357 857 1435 c 0
 857 1568 968 1643 1097 1643 c 0
 1196 1643 1264 1584 1264 1544 c 0
 1264 1504 1234 1478 1189 1478 c 0
 1153 1478 1139 1518 1089 1518 c 0
 1049 1518 1002 1479 1002 1415 c 0
 1002 1343 1073 1291 1140 1259 c 1
 1371 1251 1585 1152 1739 1031 c 1
 1768 1063 1795 1094 1819 1122 c 0
 1951 1278 2170 1437 2374 1437 c 0
 2508 1437 2640 1368 2714 1309 c 1
 2714 1511 l 2
 2714 1545.69871855 2770.90164932 1548 2786 1548 c 0
 2796.29111218 1548 2854 1546.46353978 2854 1512 c 2
 2854 43 l 2
 2854 12.3080414971 2803.99965783 2 2780 2 c 0
 2760 2 2714 12.2333984375 2714 38 c 2
 2714 447 l 1
 2671 340 2566 152 2326 152 c 0
 2065 152 1752 447 1533 686 c 1
 1432 589 1234 454 682 363 c 0
 403 317 235 178 235 34 c 0
 235 -50 307 -131 442 -131 c 0
 577 -131 640 -39 642 37 c 0
 643 74 665 119 705 119 c 0
 745 119 770 88 770 22 c 0
 770 -104 639 -241 433 -241 c 0
1827 953 m 1
 2037 764 2244 622 2450 622 c 0
 2588 622 2670 699 2714 760 c 1
 2714 1122 l 1
 2628 1264 2510 1290 2368 1290 c 0
 2215 1290 2062 1191 1939 1065 c 0
 1909 1035 1871 996 1827 953 c 1
1164 600 m 0
 1218 617 1267 635 1306 654 c 0
 1352 677 1407 716 1463 763 c 1
 1263 973 1098 1056 930 1056 c 0
 770 1056 642 988 642 830 c 0
 642 692 800 580 1000 580 c 0
 1079 580 1129 589 1164 600 c 0
EndSplineSet
EndChar

StartChar: uni2698
Encoding: 9880 9880 107
Width: 1981
Flags: HMW
LayerCount: 2
Fore
SplineSet
202 -146 m 0
 150 -146 100 -100 100 -14 c 0
 100 72 172 138 268 138 c 0
 334 138 374 126 454 91 c 0
 648 6 875 -85 1073 -85 c 0
 1170 -85 1306 -11 1306 81 c 0
 1306 177 1271 215 1244 215 c 0
 1214 215 1163 44 1044 44 c 0
 854 44 716 167 565 192 c 0
 463 209 279 248 279 417 c 0
 279 548 350 546 350 585 c 0
 350 624 113 618 113 858 c 0
 113 1018 148 1043 205 1130 c 0
 262 1217 295 1275 337 1365 c 0
 379 1455 483 1509 564 1509 c 0
 669 1509 691 1412 728 1412 c 0
 765 1412 761 1584 1006 1584 c 0
 1201 1584 1230 1489 1365 1464 c 0
 1505 1438 1600 1345 1600 1240 c 0
 1600 1165 1584 1157 1584 1124 c 0
 1584 1099 1657 1092 1726 1047 c 0
 1795 1002 1873 891 1873 790 c 0
 1873 689 1814 635 1747 558 c 0
 1689 491 1706 378 1646 291 c 0
 1602 227 1558 204 1518 204 c 0
 1481 204 1457 205 1428 205 c 0
 1410 205 1398 202 1398 194 c 0
 1398 173 1427 154 1427 95 c 0
 1427 5.0966796875 1392 -9.740234375 1392 -42 c 0
 1392 -54 1399 -63 1417 -63 c 0
 1423 -63 1431 -61 1441 -59 c 0
 1596 -20 1674 57 1750 142 c 0
 1774 170 1794 189 1822 189 c 0
 1850 189 1881 171 1881 123 c 0
 1881 95 1868 60 1830 26 c 0
 1695 -94 1520 -212 1162 -212 c 0
 854 -212 613 -102 363 -7 c 0
 331 5 312 10 288 10 c 0
 254 10 248 0 248 -20 c 0
 248 -40 268 -52 268 -84 c 0
 268 -116 254 -146 202 -146 c 0
846 978 m 0
 770 978 738 1089 707 1180 c 0
 676 1271 644 1342 551 1342 c 0
 438 1342 410 1203 351 1129 c 0
 292 1055 259 977 259 879 c 0
 259 781 331 731 441 731 c 0
 561 731 633 792 707 792 c 0
 761 792 804 766 804 716 c 0
 804 666 787 607 697 604 c 0
 587 600 447 573 447 443 c 0
 447 313 624 340 684 312 c 0
 788 263 914 170 984 170 c 0
 1044 170 1119 226 1119 319 c 0
 1119 432 1013 575 1013 631 c 0
 1013 667 1037 697 1086 697 c 0
 1165 697 1192 672 1208 611 c 0
 1218 572 1226 532 1259 477 c 0
 1294 418 1352 341 1434 341 c 0
 1546 341 1573 442 1584 493 c 0
 1595 545 1623 614 1671 688 c 0
 1700 733 1722 764 1722 803 c 0
 1722 842 1692 876 1658 908 c 0
 1624 940 1578 969 1537 969 c 0
 1496 969 1469 941 1419 908 c 0
 1376 880 1305 835 1252 835 c 0
 1211 835 1181 865 1181 904 c 0
 1181 963 1264 996 1343 1034 c 0
 1422 1072 1471 1098 1471 1193 c 0
 1471 1288 1331 1317 1233 1366 c 0
 1135 1415 1106 1452 1002 1452 c 0
 898 1452 858 1382 858 1319 c 0
 858 1256 878 1206 917 1165 c 0
 946 1134 964 1117 964 1066 c 0
 964 1015 912 978 846 978 c 0
EndSplineSet
EndChar

StartChar: uni2769
Encoding: 10089 10089 108
Width: 2954
Flags: HMW
LayerCount: 2
Fore
SplineSet
2521 -241 m 0
 2315 -241 2184 -104 2184 22 c 0
 2184 88 2209 119 2249 119 c 0
 2289 119 2311 74 2312 37 c 0
 2314 -39 2377 -131 2512 -131 c 0
 2647 -131 2719 -50 2719 34 c 0
 2719 178 2551 317 2272 363 c 0
 1720 454 1522 589 1421 686 c 1
 1202 447 889 152 628 152 c 0
 388 152 283 340 240 447 c 1
 240 38 l 2
 240 12.2333984375 194 2 174 2 c 0
 150 2 100 12.3076171875 100 43 c 2
 100 1512 l 2
 100 1546.46386719 157.708984375 1548 168 1548 c 0
 183.098632812 1548 240 1545.69824219 240 1511 c 2
 240 1309 l 1
 314 1368 446 1437 580 1437 c 0
 784 1437 1003 1278 1135 1122 c 0
 1159 1094 1186 1063 1215 1031 c 1
 1369 1152 1583 1251 1814 1259 c 1
 1881 1291 1952 1343 1952 1415 c 0
 1952 1479 1905 1518 1865 1518 c 0
 1815 1518 1801 1478 1765 1478 c 0
 1720 1478 1690 1504 1690 1544 c 0
 1690 1584 1758 1643 1857 1643 c 0
 1986 1643 2097 1568 2097 1435 c 0
 2097 1357 2049 1297 1983 1250 c 1
 2227 1215 2425 1081 2425 856 c 0
 2425 685 2274 565 2129 519 c 1
 2186 508 2239 498 2287 489 c 0
 2632 423 2854 262 2854 45 c 0
 2854 -162 2677 -241 2521 -241 c 0
1127 953 m 1
 1083 996 1045 1035 1015 1065 c 0
 892 1191 739 1290 586 1290 c 0
 444 1290 326 1264 240 1122 c 1
 240 760 l 1
 284 699 366 622 504 622 c 0
 710 622 917 764 1127 953 c 1
1790 600 m 0
 1825 589 1875 580 1954 580 c 0
 2154 580 2312 692 2312 830 c 0
 2312 988 2184 1056 2024 1056 c 0
 1856 1056 1691 973 1491 763 c 1
 1547 716 1602 677 1648 654 c 0
 1687 635 1736 617 1790 600 c 0
EndSplineSet
EndChar

StartChar: uni2767
Encoding: 10087 10087 109
Width: 2933
Flags: HMW
LayerCount: 2
Fore
SplineSet
353 505 m 0
 213 505 100 618 100 773 c 0
 100 958 244 1079 439 1079 c 0
 540 1079 625 1050 723 982 c 1
 719 1013 716 1049 716 1086 c 0
 716 1252 864 1414 1122 1414 c 0
 1450 1414 1565 1122 1791 872 c 0
 2000 641 2175 448 2381 448 c 0
 2587 448 2721 616 2721 794 c 0
 2721 972 2583 1070 2457 1070 c 0
 2341 1070 2285 1020 2257 950 c 0
 2248 928 2247 904 2207 904 c 0
 2177 904 2158 913 2158 949 c 0
 2158 1045 2293 1166 2459 1166 c 0
 2695 1166 2833 1006 2833 802 c 0
 2833 618 2688 357 2448 330 c 1
 2397.47460938 127.8984375 2231.04589844 -65 1891 -65 c 4
 1531 -65 1329 80 1192 227 c 2
 694 761 l 2
 573 890 466 947 366 947 c 0
 266 947 196 867 196 771 c 0
 196 665 253 581 351 581 c 0
 392 581 403 560 403 539 c 0
 403 518 383 505 353 505 c 0
884 848 m 1
 910 824 937 797 966 768 c 2
 1451 284 l 2
 1570 167 1724 66 1933 66 c 0
 2079.59730552 66 2280.09960938 97.298828125 2354 319 c 1
 2098 331 1857.46355404 486.984141678 1681 698 c 2
 1395 1040 l 2
 1275.0025961 1183.49339907 1157 1278 1017 1278 c 0
 897 1278 815 1158 815 1064 c 0
 815 1002 841 924 884 848 c 1
EndSplineSet
EndChar

StartChar: bullet
Encoding: 8226 8226 110
Width: 569
Flags: HMW
LayerCount: 2
Fore
SplineSet
138 811 m 4
 138 861 183.456054688 882.947265625 240 900 c 4
 303 919 321 977 385 977 c 4
 428.102539062 977 520 903.655273438 520 717 c 12
 520 639 500 584 439 584 c 4
 407 584 395.287109375 617.942382812 374 669 c 4
 349.818359375 727 337.818359375 741 216 741 c 4
 168 741 138 771 138 811 c 4
EndSplineSet
EndChar

StartChar: equal
Encoding: 61 61 111
Width: 1124
Flags: HMW
LayerCount: 2
Fore
SplineSet
551 318 m 2
 325 318 216 311 140 311 c 0
 113 311 100 314 100 335 c 2
 100 395 l 2
 100 416 113 419 140 419 c 0
 216 419 325 412 551 412 c 2
 572 412 l 2
 798 412 908 419 984 419 c 0
 1011 419 1024 416 1024 395 c 2
 1024 335 l 2
 1024 314 1011 311 984 311 c 0
 908 311 798 318 572 318 c 2
 551 318 l 2
551 608 m 6
 325 608 216 601 140 601 c 4
 113 601 100 604 100 625 c 6
 100 685 l 6
 100 706 113 709 140 709 c 4
 216 709 325 702 551 702 c 6
 572 702 l 6
 798 702 908 709 984 709 c 4
 1011 709 1024 706 1024 685 c 6
 1024 625 l 6
 1024 604 1011 601 984 601 c 4
 908 601 798 608 572 608 c 6
 551 608 l 6
EndSplineSet
EndChar

StartChar: A.swsh
Encoding: 1114112 -1 112
Width: 2017
VWidth: 1920
Flags: HMW
LayerCount: 2
Fore
SplineSet
489 48 m 0
 1142 48 1106 1415 1828 1415 c 0
 1911 1415 1921 1381.60058594 1921 1328 c 0
 1921 1210 1865 1072 1843 894 c 2
 1807 604 l 2
 1776 348 1757 169 1778 113 c 0
 1787 89 1801 86 1821 86 c 0
 1865 86 1884 105 1913 105 c 0
 1937 105 1945 87.1953125 1945 74 c 0
 1945 31 1903 16 1856 7 c 0
 1798 -4 1724 -15 1633 -15 c 0
 1547 -15 1475 -14 1429 -5 c 0
 1381 4 1355 12 1355 45 c 0
 1355 72.1171875 1373 85 1401 85 c 0
 1424 85 1445 72 1482 72 c 0
 1501 72 1520 82 1534 108 c 0
 1557 152 1609 340 1609 415 c 0
 1609 463.5078125 1606 460 1566 464 c 0
 1502 471 1420 478 1361 478 c 0
 1310 478 1207 470 1147 464 c 0
 1107 460 1107 460 1086 423 c 0
 949 175 832 -36 492 -36 c 0
 260 -36 60 61 60 338 c 0
 60 685 275 778 395 778 c 0
 481 778 544 721 544 664 c 0
 544 607 511 558 445 558 c 0
 380 558 350 651 308 651 c 0
 264 651 142 589 142 358 c 0
 142 120 302 48 489 48 c 0
1629 594 m 2
 1667 901 l 2
 1679 997 1704 1187 1704 1233 c 0
 1704 1272.11523438 1704 1280 1688 1280 c 0
 1477 1275 1251 770 1174 596 c 0
 1159 562 1158 561 1184 565 c 0
 1224 570 1306 579 1361 579 c 0
 1444 579 1548 569 1586 569 c 0
 1614 569 1627 576 1629 594 c 2
EndSplineSet
EndChar

StartChar: B.swsh
Encoding: 1114113 -1 113
Width: 1829
VWidth: 1920
Flags: HMW
LayerCount: 2
Fore
SplineSet
809 9 m 0
 723 9 687 -5 592 -5 c 0
 519 -5 508 10.833984375 508 38 c 0
 508 90 562 83 628 93 c 0
 699 104 713 179 763 590 c 2
 802 900 l 2
 825 1085 835 1196 835 1254 c 0
 835 1292.01315562 832 1317 731 1317 c 0
 514 1317 217 1158 217 827 c 4
 217 694.66796875 263 644 307 644 c 0
 349 644 390 737 465 737 c 0
 514 737 541 700.427734375 541 653 c 0
 541 575 464 517 378 517 c 0
 258 517 136 577.826171875 136 827 c 0
 136 1188 489 1401 744 1401 c 0
 812 1401 822 1400 924 1400 c 0
 1046 1400 1167 1408 1286 1408 c 0
 1543 1408 1690 1318 1690 1098 c 0
 1690 1001.25292969 1628 901 1553 843 c 0
 1515 814 1470 802 1470 783 c 0
 1470 769.847053562 1512 752 1556 740 c 0
 1688 702 1741 598.036132812 1741 458 c 0
 1741 221 1503 -7 1172 -7 c 0
 1053 -7 923 9 809 9 c 0
1188 772 m 0
 1394 772 1499 921.06640625 1499 1042 c 0
 1499 1208 1408 1327 1246 1327 c 0
 1081 1327 1048 1293 1036 1234 c 0
 1017 1147 1005 1072 994 984 c 0
 989 941 978 864.020824299 978 840 c 0
 978 783 980 772 1188 772 c 0
1171 69 m 0
 1367 69 1536 197 1536 400 c 0
 1536 621.650390625 1438 693 1298 693 c 0
 1239 693 1104 688 1057 688 c 0
 980 688 955 665 950 624 c 0
 944 579 934 503 928 456 c 0
 910 312 900 203 910 153 c 0
 918 117 963 69 1171 69 c 0
EndSplineSet
EndChar

StartChar: D.swsh
Encoding: 1114114 -1 114
Width: 2017
VWidth: 1920
Flags: HMW
LayerCount: 2
Fore
SplineSet
1134 -13 m 0
 986 -13 844 6 743 6 c 0
 657 6 611 -5 516 -5 c 0
 443 -5 433 15 433 42 c 0
 433 80 466 97 504 97 c 0
 523 97 546 94 570 94 c 0
 590 94 614 104 630 131 c 0
 663 187 683 314 717 590 c 2
 756 900 l 2
 799 1247 769 1317 711 1317 c 0
 688 1317 661 1313 645 1313 c 0
 445 1289 196 1130 196 837 c 0
 196 695 243 644 287 644 c 0
 329 644 370 737 435 737 c 0
 491 737 522 702 522 645 c 0
 522 570 444 517 358 517 c 0
 238 517 115 578 115 837 c 0
 115 1176 469 1401 724 1401 c 0
 792 1401 802 1400 904 1400 c 0
 1039 1400 1219 1408 1360 1408 c 0
 1727 1408 2032 1240 2032 827 c 0
 2032 447.998046875 1729 69 1376 5 c 0
 1296 -9 1214 -13 1134 -13 c 0
1193 77 m 0
 1290 77 1385 77 1482 124 c 0
 1697 228 1827 474 1827 737 c 0
 1827 1040 1699 1329 1329 1329 c 0
 1155 1329 1047 1310 1034 1301 c 0
 1015 1288 1004 1245 996 1208 c 0
 976 1111 957 999 943 888 c 0
 918 686 889 401 867 195 c 0
 864 171 866 129 886 120 c 0
 923 103 1019 77 1193 77 c 0
EndSplineSet
EndChar

StartChar: E.swsh
Encoding: 1114115 -1 115
Width: 1702
VWidth: 1920
Flags: HMW
LayerCount: 2
Fore
SplineSet
789 -1 m 0
 703 -1 671 -3 586 -3 c 0
 515 -3 486 14 486 49 c 0
 486 78.2744140625 508 89 534 89 c 0
 554 89 576 83 605 83 c 0
 658 83 665 135 707 378 c 0
 735 542 748 622 772 820 c 0
 795 1005 816 1196 816 1254 c 0
 816 1292.01269531 812 1317 711 1317 c 0
 494 1317 196 1179.28808594 196 799 c 0
 196 702 243 644 287 644 c 0
 329 644 370 737 435 737 c 0
 501 737 521 691.427734375 521 644 c 0
 521 568 444 517 358 517 c 0
 238 517 114 590 114 797 c 0
 114 1196.38964844 469 1401 724 1401 c 0
 792 1401 894 1401 996 1401 c 0
 1118 1401 1291 1396 1410 1396 c 0
 1523 1396 1568 1426 1605 1426 c 0
 1638 1426 1674 1322 1674 1212 c 0
 1674 1136.77246094 1632 1095 1614 1095 c 0
 1594 1095 1588 1134 1572 1183 c 0
 1552 1246 1519 1296 1438 1309 c 0
 1377 1319 1258 1319 1196 1319 c 0
 1061 1319 1038 1313 1024 1244 c 0
 1010 1180 980 1021 958 838 c 0
 952 791 962 773 988 763 c 0
 1016 753 1061 750 1126 750 c 0
 1260 750 1324 794 1332 858 c 0
 1334 874 1334 885 1336 901 c 0
 1338 914 1346 926 1364 926 c 0
 1421 926 1420 840 1405 716 c 0
 1387 570 1358 495 1314 495 c 0
 1291 495 1293 524 1293 564 c 0
 1293 610.389648438 1289 672 1157 672 c 0
 962 672 954 668 941 613 c 0
 930 564 923 521 914 446 c 0
 898 315 889 215 889 135 c 0
 889 112.977284454 891 109 916 103 c 0
 962 91 1068 80 1164 80 c 0
 1249 80 1306 81 1361 95 c 0
 1420 110 1470 150 1510 203 c 0
 1557 266 1569 314 1590 314 c 0
 1611 314 1634 277.327148438 1634 249 c 0
 1634 175 1493 -27 1447 -27 c 0
 1413 -27 1407 -3 1359 -3 c 0
 1242 -3 1131 -3 1046 -3 c 0
 959 -3 873 -1 789 -1 c 0
EndSplineSet
EndChar

StartChar: F.swsh
Encoding: 1114116 -1 116
Width: 1730
VWidth: 1920
Flags: HMW
LayerCount: 2
Fore
SplineSet
802 590 m 2
 841 900 l 2
 860 1059 882 1239 839 1259 c 0
 777 1288 683 1314 549 1314 c 0
 422 1314 205 1204 205 916 c 0
 205 764 286 673 410 673 c 4
 472 673 477 786 552 786 c 0
 608 786 638 758.475585938 638 704 c 0
 638 622 540 566 454 566 c 0
 274 566 124 657 124 916 c 0
 124 1283 423 1430 678 1430 c 0
 886 1430 1117 1379 1441 1379 c 0
 1494 1379 1564 1384 1595 1394 c 0
 1655 1413 1660 1445 1693 1445 c 0
 1734 1445 1742 1414 1742 1384 c 0
 1742 1278 1559 1238 1254 1238 c 0
 1089 1238 1083 1233 1070 1174 c 0
 1053 1100 1034 976 1027 918 c 0
 1023 888 1009 828 1009 798 c 0
 1009 766 1010 762 1043 754 c 0
 1067 748 1112 745 1193 745 c 0
 1304 745 1403 782 1443 782 c 0
 1469 782 1475 764 1475 743 c 0
 1475 714 1454 659 1454 623 c 0
 1454 599 1455 589 1455 557 c 0
 1455 518 1431 499 1405 499 c 0
 1345 499 1376 621 1304 654 c 0
 1282 664 1253 665 1214 665 c 0
 1132 665 1068 660 1037 660 c 0
 1007 660 997 646 994 622 c 0
 988 572 979 511 970 436 c 2
 956 328 l 2
 917 11 879 -51 850 -127 c 0
 791 -282 672 -369 515 -369 c 0
 348 -369 224 -252 224 -151 c 0
 224 -88 278 -37 339 -37 c 0
 397 -37 422 -83 422 -126 c 0
 422 -137 418 -157 418 -170 c 0
 418 -228 440 -296 550 -296 c 0
 658 -296 713 -183 734 -15 c 0
 743 60 763 274 802 590 c 2
EndSplineSet
EndChar

StartChar: G.swsh
Encoding: 1114117 -1 117
Width: 1588
VWidth: 1920
Flags: HMW
LayerCount: 2
Fore
SplineSet
751 -42 m 0
 376 -42 107 234 107 599 c 0
 107 996 423 1448 954 1448 c 0
 1234 1448 1274 1338 1344 1338 c 0
 1400 1338 1389 1357 1437 1357 c 0
 1477 1357 1497 1231 1483 1115 c 0
 1469 1003 1418 940 1363 940 c 0
 1308 940 1333 1016 1329 1069 c 0
 1315 1226 1143 1369 926 1369 c 0
 504 1369 311 969 311 657 c 0
 311 329 507 53 813 53 c 0
 1090 53 1186 193 1186 381 c 0
 1186 408.166015625 1186 464 1143 464 c 0
 1112 464 1072 444 1047 444 c 0
 1022 444 1009 453.796875 1009 476 c 0
 1009 494 1025 514 1054 525 c 0
 1097 541 1183 557 1304 557 c 0
 1334 557 1425 553 1479 545 c 0
 1522 538 1541 526.227539062 1541 491 c 0
 1541 456 1520 450 1501 450 c 0
 1481 450 1468 455 1450 455 c 0
 1432 455 1411 450 1399 354 c 2
 1379 184 l 2
 1332 -199 1099 -379 932 -379 c 0
 798 -379 741 -326 741 -267 c 4
 741 -219.618164062 778 -188 824 -188 c 0
 917 -188 890 -292 957 -292 c 0
 1096 -292 1154 -94 1181 120 c 1
 1120 14 950 -42 751 -42 c 0
EndSplineSet
EndChar

StartChar: M.swsh
Encoding: 1114118 -1 118
Width: 2788
VWidth: 1920
Flags: HMW
LayerCount: 2
Fore
SplineSet
1252 1314 m 0
 1227 1314 1183 1300 1154 1300 c 0
 1134 1300 1120 1310.90039062 1120 1330 c 0
 1120 1367 1159 1383 1197 1391 c 0
 1261 1404 1324 1410 1415 1410 c 0
 1436 1410 1511 1408 1533 1403 c 0
 1569 1395 1580 1378 1588 1351 c 2
 1755 441 l 2
 1777 365 1792 352 1810 352 c 0
 1825 352 1842 369 1884 441 c 2
 2362 1340 l 2
 2379 1372 2390 1387 2428 1396 c 0
 2457 1403 2523 1410 2565 1410 c 0
 2651 1410 2712 1407 2748 1403 c 0
 2800 1397 2811 1378.1796875 2811 1355 c 0
 2811 1325 2789 1310 2767 1310 c 0
 2748 1310 2723 1315 2690 1315 c 0
 2600 1315 2528 1231 2544 794 c 2
 2555 504 l 2
 2566 184 2603 82 2678 82 c 0
 2703 82 2721 93 2750 93 c 0
 2770 93 2782 80.099609375 2782 60 c 0
 2782 26 2743 6 2705 0 c 0
 2642 -10 2580 -15 2489 -15 c 0
 2403 -15 2303 -5 2257 6 c 0
 2206 18 2195 32 2195 55 c 0
 2195 77.1171875 2217 94 2245 94 c 0
 2268 94 2285 83 2322 83 c 0
 2382 83 2395 190 2381 591 c 2
 2369 941 l 2
 2365 1043 2370 1068 2341 1068 c 0
 2317 1068 2293 1018 2266 969 c 2
 1774 46 l 2
 1744 -10 1728 -19 1716 -19 c 0
 1702 -19 1683 -10 1670 45 c 2
 1428 1071 l 2
 1401 1186 1385 1175 1374 1124 c 0
 1218 387 884 -36 448 -36 c 0
 216 -36 44 79 44 358 c 0
 44 697.173828125 324 808 444 808 c 0
 530 808 580 755.427734375 580 698 c 0
 580 641 538 588 472 588 c 0
 407 588 384 681 342 681 c 0
 298 681 144 596.33203125 144 364 c 4
 144 136 279 58 466 58 c 0
 783 58 1145 384 1309 1261 c 0
 1313 1281 1313 1281 1299 1293 c 0
 1279 1311 1263 1314 1252 1314 c 0
EndSplineSet
EndChar

StartChar: N.swsh
Encoding: 1114119 -1 119
Width: 2595
VWidth: 1920
Flags: HMW
LayerCount: 2
Fore
SplineSet
1227 1314 m 0
 1202 1314 1168 1307 1139 1307 c 0
 1119 1307 1106 1318.90039062 1106 1337 c 0
 1106 1374 1154 1388 1192 1396 c 0
 1256 1409 1358 1410 1419 1410 c 0
 1485 1410 1508 1393 1532 1359 c 2
 2234 386 l 2
 2254 358 2269 345 2290 345 c 0
 2314 345 2324 410 2346 586 c 2
 2382 876 l 2
 2424 1223 2403 1323 2338 1323 c 0
 2313 1323 2277 1312 2248 1312 c 0
 2228 1312 2217 1325.90039062 2217 1344 c 0
 2217 1387 2279 1415 2475 1415 c 0
 2698 1415 2738 1376 2738 1339 c 0
 2738 1317.8828125 2717 1301 2689 1301 c 0
 2666 1301 2660 1311 2623 1311 c 0
 2563 1311 2511 1240 2461 829 c 2
 2425 539 l 2
 2380 175 2330 -35 2278 -35 c 0
 2242 -35 2232 -19 2213 8 c 2
 1534 970 l 2
 1500 1018 1500 1018 1477 970 c 0
 1193 367 861 -36 458 -36 c 0
 226 -36 56 78.6103515625 56 358 c 4
 56 684 334 808 454 808 c 0
 550 808 590 748.427734375 590 696 c 0
 590 640 548 588 482 588 c 0
 407 588 394 681 352 681 c 0
 308 681 150 599.33203125 150 367 c 4
 150 142 289 58 476 58 c 0
 769 58 1122 378 1417 1079 c 0
 1432 1115 1432 1115 1416 1137 c 2
 1366 1207 l 2
 1311 1285 1286 1314 1227 1314 c 0
EndSplineSet
EndChar

StartChar: P.swsh
Encoding: 1114120 -1 120
Width: 1717
VWidth: 1920
Flags: HMW
LayerCount: 2
Fore
SplineSet
942 607 m 2
 929 504 l 2
 886 157 880 97 955 97 c 0
 980 97 1020 114 1049 114 c 0
 1069 114 1081 103.16015625 1081 79 c 0
 1081 40 1056 23 989 5 c 0
 926 -12 857 -15 766 -15 c 0
 680 -15 590 -3 544 8 c 0
 493 20 484 47.8203125 484 67 c 0
 484 96 505 108 533 108 c 0
 556 108 582 96 619 96 c 0
 679 96 703 180 753 591 c 2
 790 898 l 2
 817 1117 827 1232 810 1288 c 0
 804 1308 778 1318 711 1318 c 0
 494 1318 196 1170 196 835 c 0
 196 686 243 645 287 645 c 0
 329 645 371 738 436 738 c 0
 502 738 523 699.427734375 523 642 c 0
 523 583 445 518 359 518 c 0
 239 518 115 575.826171875 115 835 c 0
 115 1188 469 1402 724 1402 c 0
 792 1402 802 1398 904 1398 c 0
 1106 1398 1146 1407 1265 1407 c 0
 1542 1407 1706 1308.00878906 1706 1086 c 0
 1706 761 1388 612 1154 612 c 0
 1013 612 978 637 961 637 c 0
 951 637 945 632 942 607 c 2
1147 689 m 0
 1313 689 1508 770 1508 1033 c 0
 1508 1174.55664062 1437 1329 1235 1329 c 0
 1070 1329 1049 1294 1035 1262 c 0
 1025 1239 1004 1119 995 1044 c 2
 986 968 l 2
 980 916 962 769 961 744 c 0
 961 716 1029 689 1147 689 c 0
EndSplineSet
EndChar

StartChar: R.swsh
Encoding: 1114121 -1 121
Width: 1952
VWidth: 1920
Flags: HMW
LayerCount: 2
Fore
SplineSet
1155 756 m 0
 1321 756 1496 831.396484375 1496 1093 c 0
 1496 1243 1437 1328 1235 1328 c 0
 1070 1328 1049 1293 1035 1261 c 0
 1025 1238 1004 1118 995 1043 c 2
 986 968 l 2
 980 916 967 809 966 784 c 0
 966 756 1037 756 1155 756 c 0
944 626 m 2
 929 504 l 2
 886 157 880 97 955 97 c 0
 980 97 1020 114 1049 114 c 0
 1069 114 1081 100.16015625 1081 82 c 0
 1081 38 1056 23 989 5 c 0
 926 -12 857 -15 766 -15 c 0
 680 -15 590 -3 544 8 c 0
 493 20 484 42.8203125 484 68 c 0
 484 93 505 108 533 108 c 0
 556 108 582 96 619 96 c 0
 679 96 703 180 753 591 c 2
 791 900 l 2
 820 1135 828 1243 806 1284 c 0
 795 1304 767 1317 711 1317 c 0
 494 1317 196 1170 196 827 c 0
 196 694.66796875 243 644 287 644 c 0
 329 644 370 737 435 737 c 0
 491 737 522 702.427734375 522 645 c 0
 522 580 444 517 358 517 c 0
 238 517 115 577.826171875 115 827 c 0
 115 1184 469 1401 724 1401 c 0
 792 1401 822 1397 904 1397 c 0
 1106 1397 1177 1416 1296 1416 c 0
 1573 1416 1712 1346 1712 1136 c 0
 1712 937.854492188 1594 811 1475 744 c 0
 1457 734 1439 727 1438 719 c 0
 1437 712 1445 704 1460 697 c 0
 1518 670 1584 618 1611 516 c 0
 1655 349 1645 104 1771 104 c 0
 1831 104 1828 171 1868 171 c 0
 1895 171 1902 157.256835938 1902 136 c 0
 1902 51 1775 -22 1685 -22 c 0
 1595 -22 1555 6 1507 68 c 0
 1431 164 1409 423 1358 562 c 0
 1324 657 1212 662 1160 662 c 0
 1019 662 980 655 963 655 c 0
 953 655 947 651 944 626 c 2
EndSplineSet
EndChar

StartChar: T.swsh
Encoding: 1114122 -1 122
Width: 1662
VWidth: 1920
Flags: HMW
LayerCount: 2
Fore
SplineSet
841 1281 m 0
 757 1305 683 1314 549 1314 c 0
 422 1314 206 1211 206 906 c 0
 206 761.66796875 276 673 410 673 c 0
 472 673 477 786 552 786 c 0
 618 786 639 747.475585938 639 700 c 0
 639 624 540 566 454 566 c 0
 274 566 125 654.874023438 125 906 c 0
 125 1287 423 1430 678 1430 c 0
 986 1430 1430 1319 1574 1319 c 0
 1658 1319 1660 1405 1699 1405 c 0
 1730 1405 1738 1377.265625 1738 1357 c 0
 1738 1284 1669 1158 1494 1158 c 0
 1333 1158 1154 1233 1117 1233 c 0
 1087 1233 1077 1225 1070 1171 c 2
 1000 604 l 2
 969 348 952 176 973 120 c 0
 982 96 997 86 1035 86 c 0
 1089 86 1119 111 1148 111 c 0
 1172 111 1180 93.1953125 1180 80 c 0
 1180 34 1105 9 1058 0 c 0
 1000 -11 917 -15 826 -15 c 0
 740 -15 669 -14 623 -5 c 0
 575 4 489 17 489 70 c 0
 489 94.1171875 510 114 538 114 c 0
 561 114 590 86 657 86 c 0
 686 86 717 105 731 131 c 0
 762 189 788 307 823 591 c 2
 897 1198 l 2
 903 1250 894 1266 841 1281 c 0
EndSplineSet
EndChar

StartChar: Y.swsh
Encoding: 1114123 -1 123
Width: 1722
VWidth: 1920
Flags: HMW
LayerCount: 2
Fore
SplineSet
1143 548 m 0
 1114 308 1104 167 1124 113 c 0
 1133 89 1157 86 1177 86 c 0
 1221 86 1246 105 1275 105 c 0
 1299 105 1307 89.1953125 1307 70 c 0
 1307 30 1245 6 1198 -3 c 0
 1140 -14 1067 -15 976 -15 c 0
 890 -15 817 -14 771 -5 c 0
 723 4 677 22 677 51 c 0
 677 76.1171875 698 95 726 95 c 0
 749 95 781 79 818 79 c 0
 837 79 859 89 872 115 c 0
 902 173 916 296 946 541 c 0
 1006 1030 858 1304 588 1304 c 0
 401 1304 216 1189 216 906 c 0
 216 753.66796875 304 660 428 660 c 0
 490 660 497 786 572 786 c 0
 638 786 658 737.427734375 658 700 c 0
 658 603 570 566 454 566 c 0
 264 566 125 666.874023438 125 906 c 0
 125 1279 403 1430 658 1430 c 0
 900 1430 1072 1283 1134 1012 c 0
 1153 929 1143 929 1189 1020 c 0
 1304 1249 1467 1424 1633 1424 c 0
 1720 1424 1764 1384.40722656 1764 1324 c 0
 1764 1262 1716 1233 1669 1233 c 0
 1589 1233 1611 1311 1553 1311 c 0
 1492 1311 1212 1090 1143 548 c 0
EndSplineSet
EndChar

StartChar: less
Encoding: 60 60 124
Width: 1025
Flags: HMW
LayerCount: 2
Fore
SplineSet
505 316 m 2
 486 324 l 2
 280 416 176 455 107 486 c 0
 82 497 80 504 80 524 c 2
 80 564 l 2
 80 584 82 591 107 602 c 0
 176 633 279 672 485 764 c 2
 504 772 l 2
 710 864 808 916 877 947 c 0
 889 952 898 956 905 956 c 0
 927 956 951 886 951 875 c 0
 951 864 940 857 921 849 c 0
 852 818 748 779 542 687 c 2
 523 678 l 2
 377 612 285 573 220 544 c 1
 286 515 377 476 524 410 c 2
 543 401 l 2
 749 309 852 271 921 240 c 0
 940 232 951 224 951 213 c 0
 951 202 927 133 905 133 c 0
 898 133 889 136 877 141 c 0
 808 172 711 224 505 316 c 2
EndSplineSet
EndChar

StartChar: greater
Encoding: 62 62 125
Width: 1025
Flags: HMW
LayerCount: 2
Fore
SplineSet
520 316 m 2
 314 224 217 172 148 141 c 0
 136 136 127 133 120 133 c 0
 98 133 74 202 74 213 c 0
 74 224 85 232 104 240 c 0
 173 271 276 309 482 401 c 2
 501 410 l 2
 648 476 739 515 805 544 c 1
 740 573 648 612 502 678 c 2
 483 687 l 2
 277 779 173 818 104 849 c 0
 85 857 74 864 74 875 c 0
 74 886 98 956 120 956 c 0
 127 956 136 952 148 947 c 0
 217 916 315 864 521 772 c 2
 540 764 l 2
 746 672 849 633 918 602 c 0
 943 591 945 584 945 564 c 2
 945 524 l 2
 945 504 943 497 918 486 c 0
 849 455 745 416 539 324 c 2
 520 316 l 2
EndSplineSet
EndChar

StartChar: asciicircum
Encoding: 94 94 126
Width: 983
Flags: HMW
LayerCount: 2
Fore
SplineSet
720 985 m 6
 812 779 864 682 895 613 c 4
 900 601 903 592 903 585 c 4
 903 563 834 539 823 539 c 4
 812 539 804 550 796 569 c 4
 765 638 727 741 635 947 c 6
 626 966 l 6
 560 1113 521 1204 492 1270 c 5
 463 1205 424 1113 358 967 c 6
 349 948 l 6
 257 742 218 638 187 569 c 4
 179 550 172 539 161 539 c 4
 150 539 80 563 80 585 c 4
 80 592 84 601 89 613 c 4
 120 682 172 780 264 986 c 6
 272 1005 l 6
 364 1211 403 1314 434 1383 c 4
 445 1408 452 1410 472 1410 c 6
 512 1410 l 6
 532 1410 539 1408 550 1383 c 4
 581 1314 620 1210 712 1004 c 6
 720 985 l 6
EndSplineSet
EndChar

StartChar: gravecomb
Encoding: 768 768 127
Width: 0
VWidth: 1920
Flags: HMW
AnchorPoint: "top" -59 920 mark 0
LayerCount: 2
Fore
SplineSet
-129 1138 m 4
 -184 1181 -231 1198 -275 1233 c 4
 -298.801757812 1251.93359375 -305 1271 -305 1297 c 4
 -305 1361 -252 1404 -207 1404 c 4
 -180 1404 -154.203125 1369.83789062 -135 1346 c 4
 -106 1310 -93.8564453125 1278.04589844 -45 1212 c 4
 9 1139 42 1107 42 1075 c 4
 42 1056 33 1045 10 1045 c 4
 -28 1045 -48 1075 -129 1138 c 4
EndSplineSet
EndChar

StartChar: acutecomb
Encoding: 769 769 129
Width: 0
VWidth: 1920
Flags: HMW
AnchorPoint: "top" -299 920 mark 0
LayerCount: 2
Fore
SplineSet
-184 1138 m 4
 -265 1075 -285 1045 -323 1045 c 4
 -346 1045 -355 1056 -355 1075 c 4
 -355 1107 -322 1139 -268 1212 c 4
 -219.143554688 1278.04589844 -207 1310 -178 1346 c 4
 -158.796875 1369.83789062 -133 1404 -106 1404 c 4
 -61 1404 -8 1361 -8 1297 c 4
 -8 1271 -14.1982421875 1251.93359375 -38 1233 c 4
 -82 1198 -129 1181 -184 1138 c 4
EndSplineSet
EndChar

StartChar: uni0302
Encoding: 770 770 130
Width: 0
VWidth: 1920
Flags: HMW
AnchorPoint: "top" -326 1024.73 mark 0
LayerCount: 2
Fore
SplineSet
-407 1195 m 4
 -481 1141 -518 1107 -545 1107 c 4
 -567 1107 -579 1117 -577 1133 c 4
 -575 1148 -565 1166 -544 1188 c 6
 -394 1345 l 6
 -356 1385 -321 1404 -289 1404 c 4
 -261 1404 -234 1392 -212 1362 c 6
 -97 1203 l 6
 -75 1173 -65 1151 -67 1133 c 4
 -69 1117 -83 1107 -105 1107 c 4
 -132 1107 -161 1141 -222 1195 c 4
 -256 1225 -280 1247 -306 1266 c 5
 -337 1247 -365 1225 -407 1195 c 4
EndSplineSet
EndChar

StartChar: tildecomb
Encoding: 771 771 131
Width: 0
VWidth: 1920
Flags: HMW
AnchorPoint: "top" -326 1024.73 mark 0
LayerCount: 2
Fore
SplineSet
-142 1297 m 4
 -102 1297 -85 1319 -75 1352 c 4
 -58 1410 -51 1432 -20 1432 c 4
 8 1432 16 1407 13 1384 c 4
 2 1293 -71 1164 -188 1164 c 4
 -338 1164 -326 1299 -396 1299 c 4
 -436 1299 -453 1277 -463 1244 c 4
 -480 1186 -486 1164 -518 1164 c 4
 -536 1164 -555 1179 -551 1212 c 4
 -540 1303 -467 1432 -350 1432 c 4
 -200 1432 -212 1297 -142 1297 c 4
EndSplineSet
EndChar

StartChar: asciitilde
Encoding: 126 126 132
Width: 1002
VWidth: 1920
Flags: HMW
LayerCount: 2
Fore
SplineSet
305 579 m 0
 235 579 193 526 171 464 c 0
 151 405 137 384 105 384 c 0
 87 384 70 398.540039062 70 442 c 0
 70 533 174 682 321 682 c 0
 511 682 544 507 684 507 c 4
 754 507 806 560 828 622 c 0
 848 681 860 702 892 702 c 0
 920 702 931 667 931 634 c 0
 931 550.399414062 825 404 671 404 c 0
 481 404 445 579 305 579 c 0
EndSplineSet
EndChar

StartChar: uni0304
Encoding: 772 772 136
Width: 0
VWidth: 1920
Flags: HMW
AnchorPoint: "top" -282 1024.73 mark 0
LayerCount: 2
Fore
SplineSet
-265 1195 m 6
 -361 1195 -411 1191 -487 1191 c 4
 -514 1191 -527 1194 -524 1215 c 6
 -516 1275 l 6
 -513 1296 -500 1299 -473 1299 c 4
 -397 1299 -349 1296 -253 1296 c 6
 -232 1296 l 6
 -116 1296 -85 1299 -9 1299 c 4
 18 1299 31 1296 28 1275 c 6
 20 1215 l 6
 17 1194 4 1191 -23 1191 c 4
 -99 1191 -128 1195 -244 1195 c 6
 -265 1195 l 6
EndSplineSet
EndChar

StartChar: uni0306
Encoding: 774 774 138
Width: 0
VWidth: 1920
Flags: HMW
AnchorPoint: "top" -326 1024.73 mark 0
LayerCount: 2
Fore
SplineSet
-313 1122 m 4
 -509 1122 -529 1280 -515 1393 c 4
 -513 1409 -505 1420 -489 1420 c 4
 -473 1420 -470 1403 -466 1387 c 4
 -449 1312 -408 1252 -297 1252 c 4
 -186 1252 -131 1312 -96 1387 c 4
 -89 1403 -81 1420 -65 1420 c 4
 -49 1420 -43 1409 -45 1393 c 4
 -59 1280 -117 1122 -313 1122 c 4
EndSplineSet
EndChar

StartChar: uni0307
Encoding: 775 775 139
Width: 0
VWidth: 1920
Flags: HMW
AnchorPoint: "top" -256 1024.73 mark 0
LayerCount: 2
Fore
SplineSet
-338 1301 m 0
 -338 1363 -288 1413 -226 1413 c 0
 -164 1413 -114 1363 -114 1301 c 0
 -114 1239 -164 1189 -226 1189 c 0
 -288 1189 -338 1239 -338 1301 c 0
EndSplineSet
EndChar

StartChar: uni0308
Encoding: 776 776 140
Width: 0
VWidth: 1920
Flags: HMW
AnchorPoint: "top" -476 1024.73 mark 0
LayerCount: 2
Fore
SplineSet
-358 1301 m 0
 -358 1363 -308 1413 -246 1413 c 0
 -184 1413 -134 1363 -134 1301 c 0
 -134 1239 -184 1189 -246 1189 c 0
 -308 1189 -358 1239 -358 1301 c 0
-738 1301 m 0
 -738 1363 -688 1413 -626 1413 c 0
 -564 1413 -514 1363 -514 1301 c 0
 -514 1239 -564 1189 -626 1189 c 0
 -688 1189 -738 1239 -738 1301 c 0
EndSplineSet
EndChar

StartChar: uni030A
Encoding: 778 778 141
Width: 0
VWidth: 1920
Flags: HMW
AnchorPoint: "top" -256 924.729 mark 0
LayerCount: 2
Fore
SplineSet
-357.364054941 1161.16613725 m 0
 -357.364054941 1106.80302411 -329.404364267 1073 -270 1073 c 0
 -251.271622878 1073 -154.635945059 1079.09225548 -154.635945059 1204.83386275 c 4
 -154.635945059 1259.19697589 -182.595635733 1293 -242 1293 c 0
 -260.728377122 1293 -357.364054941 1286.90774452 -357.364054941 1161.16613725 c 0
-235 1353 m 0
 -126.310359224 1353 -54.7291876219 1290.00190117 -54.7291876219 1203.28855047 c 0
 -54.7291876219 1100.40059373 -148.291090857 1013 -277 1013 c 4
 -385.689640776 1013 -457.270812378 1075.99809883 -457.270812378 1162.71144953 c 0
 -457.270812378 1265.59940627 -363.708909143 1353 -235 1353 c 0
EndSplineSet
EndChar

StartChar: uni030B
Encoding: 779 779 142
Width: 0
VWidth: 1920
Flags: HMW
AnchorPoint: "top" -505.5 920 mark 0
LayerCount: 2
Fore
SplineSet
-527.5 1138 m 0
 -592.299804688 1075 -608.299804688 1045 -638.700195312 1045 c 0
 -657.099609375 1045 -664.299804688 1056 -664.299804688 1075 c 0
 -664.299804688 1107 -637.900390625 1139 -594.700195312 1212 c 0
 -555.615234375 1278.04589844 -545.900390625 1310 -522.700195312 1346 c 0
 -507.337890625 1369.83789062 -486.700195312 1404 -465.099609375 1404 c 0
 -429.099609375 1404 -386.700195312 1361 -386.700195312 1297 c 0
 -386.700195312 1271 -391.658203125 1251.93359375 -410.700195312 1233 c 0
 -445.900390625 1198 -483.5 1181 -527.5 1138 c 0
-239.5 1138 m 0
 -304.299804688 1075 -320.299804688 1045 -350.700195312 1045 c 0
 -369.099609375 1045 -376.299804688 1056 -376.299804688 1075 c 0
 -376.299804688 1107 -349.900390625 1139 -306.700195312 1212 c 0
 -267.615234375 1278.04589844 -257.900390625 1310 -234.700195312 1346 c 0
 -219.337890625 1369.83789062 -198.700195312 1404 -177.099609375 1404 c 0
 -141.099609375 1404 -98.7001953125 1361 -98.7001953125 1297 c 0
 -98.7001953125 1271 -103.658203125 1251.93359375 -122.700195312 1233 c 0
 -157.900390625 1198 -195.5 1181 -239.5 1138 c 0
EndSplineSet
EndChar

StartChar: uni030F
Encoding: 783 783 143
Width: 0
VWidth: 1920
Flags: HMW
AnchorPoint: "top" -317.5 920 mark 0
LayerCount: 2
Fore
SplineSet
-235.5 1138 m 0
 -279.5 1181 -317.099609375 1198 -352.299804688 1233 c 0
 -371.341796875 1251.93359375 -376.299804688 1271 -376.299804688 1297 c 0
 -376.299804688 1361 -333.900390625 1404 -297.900390625 1404 c 0
 -276.299804688 1404 -255.662109375 1369.83789062 -240.299804688 1346 c 0
 -217.099609375 1310 -207.384765625 1278.04589844 -168.299804688 1212 c 0
 -125.099609375 1139 -98.7001953125 1107 -98.7001953125 1075 c 0
 -98.7001953125 1056 -105.900390625 1045 -124.299804688 1045 c 0
 -154.700195312 1045 -170.700195312 1075 -235.5 1138 c 0
-523.5 1138 m 0
 -567.5 1181 -605.099609375 1198 -640.299804688 1233 c 0
 -659.341796875 1251.93359375 -664.299804688 1271 -664.299804688 1297 c 0
 -664.299804688 1361 -621.900390625 1404 -585.900390625 1404 c 0
 -564.299804688 1404 -543.662109375 1369.83789062 -528.299804688 1346 c 0
 -505.099609375 1310 -495.384765625 1278.04589844 -456.299804688 1212 c 0
 -413.099609375 1139 -386.700195312 1107 -386.700195312 1075 c 0
 -386.700195312 1056 -393.900390625 1045 -412.299804688 1045 c 0
 -442.700195312 1045 -458.700195312 1075 -523.5 1138 c 0
EndSplineSet
EndChar

StartChar: uni030C
Encoding: 780 780 144
Width: 0
VWidth: 1920
Flags: HMW
AnchorPoint: "top" -326 1024.73 mark 0
LayerCount: 2
Fore
SplineSet
-197 1316 m 4
 -123 1370 -86 1404 -59 1404 c 4
 -37 1404 -25 1394 -27 1378 c 4
 -29 1363 -39 1345 -60 1323 c 6
 -210 1166 l 6
 -248 1126 -283 1107 -315 1107 c 4
 -343 1107 -370 1120 -392 1150 c 6
 -507 1308 l 6
 -529 1338 -539 1360 -537 1378 c 4
 -535 1394 -521 1404 -499 1404 c 4
 -472 1404 -443 1370 -382 1316 c 4
 -348 1286 -324 1265 -298 1246 c 5
 -267 1265 -239 1286 -197 1316 c 4
EndSplineSet
EndChar

StartChar: uni0311
Encoding: 785 785 145
Width: 0
VWidth: 1920
Flags: HMW
AnchorPoint: "top" -326 1024.73 mark 0
LayerCount: 2
Fore
SplineSet
-277 1420 m 4
 -81 1420 -61 1261 -75 1148 c 4
 -77 1132 -85 1122 -101 1122 c 4
 -117 1122 -120 1138 -124 1154 c 4
 -141 1229 -182 1290 -293 1290 c 4
 -404 1290 -459 1229 -494 1154 c 4
 -501 1138 -509 1122 -525 1122 c 4
 -541 1122 -547 1132 -545 1148 c 4
 -531 1261 -473 1420 -277 1420 c 4
EndSplineSet
EndChar

StartChar: uni0312
Encoding: 786 786 146
Width: 0
Flags: HMW
AnchorPoint: "top" -634 920 mark 0
LayerCount: 2
Fore
SplineSet
-499 1331 m 0
 -499 1319 -513 1314 -529 1302 c 0
 -567 1273 -598 1231 -598 1207 c 0
 -598 1172 -512 1187 -512 1097 c 0
 -512 1043 -544 1011 -598 1011 c 0
 -652 1011 -693 1050 -693 1124 c 0
 -693 1250 -588 1370 -537 1370 c 0
 -520 1370 -499 1348 -499 1331 c 0
EndSplineSet
EndChar

StartChar: dotbelowcomb
Encoding: 803 803 147
Width: 0
VWidth: 1920
Flags: HMW
AnchorPoint: "bottom" -255 0 mark 0
LayerCount: 2
Fore
SplineSet
-368 -239 m 0
 -368 -177 -318 -127 -256 -127 c 0
 -194 -127 -144 -177 -144 -239 c 0
 -144 -301 -194 -351 -256 -351 c 0
 -318 -351 -368 -301 -368 -239 c 0
EndSplineSet
EndChar

StartChar: uni0326
Encoding: 806 806 148
Width: 0
Flags: HMW
AnchorPoint: "bottom" -255 0 mark 0
LayerCount: 2
Fore
SplineSet
-384 -531 m 4
 -384 -516 -365 -505 -344 -492 c 4
 -318 -476 -250 -417 -250 -387 c 4
 -250 -342.794921875 -375 -352.801757812 -375 -250 c 4
 -375 -183 -325 -140 -258 -140 c 4
 -190 -140 -133 -191 -133 -293 c 4
 -133 -451 -300 -571 -354 -571 c 4
 -366 -571 -384 -545 -384 -531 c 4
EndSplineSet
EndChar

StartChar: uni0327
Encoding: 807 807 149
Width: 0
Flags: HMW
AnchorPoint: "bottom" -255 0 mark 0
LayerCount: 2
Fore
SplineSet
-320 -440 m 0
 -452 -440 -506 -372 -506 -326 c 4
 -506 -303.796396689 -486 -291 -472 -291 c 0
 -457 -291 -445 -300 -437 -320 c 0
 -423 -360 -394 -374 -352 -374 c 0
 -261.835280303 -374 -237 -294.011362169 -237 -250 c 4
 -237 -201 -266.532721293 -178 -305 -178 c 0
 -322 -178 -339 -180 -352 -180 c 0
 -369 -180 -383 -176 -383 -154 c 0
 -383 -134.895026825 -370 -129 -350 -100 c 2
 -282 10 l 1
 -212 10 l 1
 -313 -136 l 1
 -295 -130 -272 -124 -249 -124 c 0
 -184.061063846 -124 -100 -166 -100 -255 c 4
 -100 -330.00666637 -156.797067792 -440 -320 -440 c 0
EndSplineSet
EndChar

StartChar: uni0328
Encoding: 808 808 150
Width: 0
Flags: HMW
AnchorPoint: "ogonek" -181 0 mark 0
LayerCount: 2
Fore
SplineSet
-143 38 m 1
 -119 0 l 17
 -207 -47 -326 -115 -328 -284 c 0
 -328 -330 -312 -360 -255 -360 c 8
 -179 -360 -156 -286 -122 -286 c 0
 -108 -286 -103 -293 -103 -310 c 0
 -103 -360 -205 -442 -325 -442 c 0
 -433 -442 -493 -390 -493 -296 c 0
 -493 -116 -329 -43 -143 38 c 1
EndSplineSet
EndChar

StartChar: minute
Encoding: 8242 8242 166
Width: 569
VWidth: 1920
Flags: HMW
LayerCount: 2
Fore
SplineSet
159 799 m 0
 136 799 133 814 133 844 c 0
 133 874.784179688 143.602539062 915.873046875 153.543945312 980 c 0
 161.912109375 1033.97851562 195 1271.82910156 205 1342 c 0
 214.170446611 1406.34984778 267 1453 334 1453 c 0
 389 1453 414 1415 414 1380 c 0
 414 1281.19433594 295.951171875 1060.36914062 255.293945312 947 c 0
 211.856445312 825.87890625 184.833984375 799 159 799 c 0
EndSplineSet
EndChar

StartChar: Eth
Encoding: 208 208 186
Width: 1594
VWidth: 1920
Flags: HMW
LayerCount: 2
Fore
SplineSet
393 685 m 6
 297 685 207 681 131 681 c 4
 104 681 91 684 94 705 c 6
 102 765 l 6
 105 786 118 789 145 789 c 4
 221 789 309 786 405 786 c 6
 426 786 l 6
 542 786 613 789 689 789 c 4
 716 789 729 786 726 765 c 6
 718 705 l 6
 715 684 702 681 675 681 c 4
 599 681 530 685 414 685 c 6
 393 685 l 6
EndSplineSet
Refer: 4 68 N 1 0 0 1 0 0 2
EndChar

StartChar: dotlessi
Encoding: 305 305 187
Width: 541
VWidth: 1920
Flags: HMW
AnchorPoint: "top" 321 880 basechar 0
LayerCount: 2
Fore
SplineSet
210 435 m 0
 236 555 250 644 250 688 c 0
 250 731 237 745 213 745 c 0
 195 745 177 741 160 726 c 0
 134 703 110 667 110 643 c 0
 110 620 113 588 106 570 c 0
 100 555 88 552 79 552 c 0
 53 552 40 570 40 597 c 0
 40 761 212 855 317 855 c 0
 358 855 395 805 395 758 c 0
 395 704 386 679 348 429 c 0
 332 323 310 202 310 143 c 0
 310 99 325 75 370 75 c 0
 432 75 477 174 480 218 c 0
 482 249 494 267 511 267 c 0
 530 267 551 251 551 226 c 0
 551 190 529 96 446 30 c 0
 412 3 368 -25 310 -25 c 0
 221 -25 162 39 162 121 c 0
 162 198 174 271 210 435 c 0
EndSplineSet
EndChar

StartChar: kgreenlandic
Encoding: 312 312 188
Width: 965
VWidth: 1920
Flags: HMW
LayerCount: 2
Fore
SplineSet
239 591 m 0
 245.078125 628.987304688 250 644 250 688 c 0
 250 731 237 745 213 745 c 0
 195 745 177 741 160 726 c 0
 134 703 110 667 110 643 c 0
 110 620 113 588 106 570 c 0
 100 555 88 552 79 552 c 0
 53 552 40 570 40 597 c 0
 40 761 212 855 317 855 c 0
 358 855 395 815 395 768 c 0
 395 744 371 684 371 605 c 0
 371 592.909179688 371 590 378 590 c 0
 388 590 414 629 428 647 c 0
 513 757 591 851 675 851 c 0
 792 851 866 760 866 651 c 0
 866 537 786 397 666 354 c 0
 651 349 635 347 635 341 c 0
 635 333 657 319 667 305 c 0
 729 221 767 103 793 29 c 0
 799 11 806 -4 825 -4 c 0
 862 -4 899 96 913 147 c 0
 917 163 918 175 932 175 c 0
 961 175 975 170 975 139 c 0
 975 8 816 -122 732 -122 c 0
 693 -122 670 -98 658 -72 c 0
 637 -26 642 47 583 155 c 0
 529 254 481 320 454 320 c 0
 437 320 379 319 361 319 c 0
 338 319 337 304 331 270 c 0
 320 206 313 145 313 67 c 0
 313 16 294 3 266 2 c 0
 206 1 198 -12 167 -12 c 0
 149 -12 144 -3 144 16 c 0
 144 108 203 366 239 591 c 0
373 452 m 0
 373 429 388 393 492 393 c 0
 677 393 715 534 715 597 c 0
 715 650 679 714 628 714 c 0
 556 714 373 537 373 452 c 0
EndSplineSet
EndChar

StartChar: multiply
Encoding: 215 215 189
Width: 1222
Flags: HMW
LayerCount: 2
Fore
SplineSet
615 581 m 2
 739 705 815 791 869 845 c 0
 888 864 899 871 914 856 c 2
 956 814 l 2
 971 799 964 788 945 769 c 0
 891 715 805 639 681 515 c 2
 627 461 l 2
 503 337 405 229 351 175 c 0
 332 156 321 149 306 164 c 2
 264 206 l 2
 249 221 256 232 275 251 c 0
 329 305 437 403 561 527 c 2
 615 581 l 2
681 505 m 2
 805 381 891 305 945 251 c 0
 964 232 971 221 956 206 c 2
 914 164 l 2
 899 149 888 156 869 175 c 0
 815 229 739 315 615 439 c 2
 561 493 l 2
 437 617 329 715 275 769 c 0
 256 788 249 799 264 814 c 2
 306 856 l 2
 321 871 332 864 351 845 c 0
 405 791 503 683 627 559 c 2
 681 505 l 2
EndSplineSet
EndChar

StartChar: Dcroat
Encoding: 272 272 190
Width: 1594
VWidth: 1920
Flags: HMW
LayerCount: 2
Fore
SplineSet
393 685 m 6
 297 685 207 681 131 681 c 4
 104 681 91 684 94 705 c 6
 102 765 l 6
 105 786 118 789 145 789 c 4
 221 789 309 786 405 786 c 6
 426 786 l 6
 542 786 613 789 689 789 c 4
 716 789 729 786 726 765 c 6
 718 705 l 6
 715 684 702 681 675 681 c 4
 599 681 530 685 414 685 c 6
 393 685 l 6
EndSplineSet
Refer: 4 68 N 1 0 0 1 0 0 2
EndChar

StartChar: percent
Encoding: 37 37 197
Width: 1580
Flags: HMW
LayerCount: 2
Fore
SplineSet
1505 371 m 260
 1505 151 1334 -35 1159 -35 c 260
 1024 -35 902 57 902 292 c 260
 902 514 1077 685 1241 685 c 260
 1382 685 1505 600 1505 371 c 260
1158 37 m 260
 1246 37 1360 204 1360 418 c 260
 1360 539 1323 615 1248 615 c 260
 1148 615 1047 447 1047 235 c 260
 1047 105 1078 37 1158 37 c 260
758 968 m 260
 758 748 587 563 412 563 c 260
 277 563 155 654 155 889 c 260
 155 1111 330 1283 494 1283 c 260
 635 1283 758 1197 758 968 c 260
412 634 m 260
 500 634 613 801 613 1015 c 260
 613 1136 576 1212 501 1212 c 260
 401 1212 300 1045 300 833 c 260
 300 703 332 634 412 634 c 260
830 566 m 6
 662 326 540 143 449 13 c 4
 435 -7 427 -15 412 -4 c 6
 367 26 l 6
 352 37 356 48 370 68 c 4
 461 198 593 375 761 615 c 6
 800 671 l 6
 968 911 1105 1117 1196 1247 c 4
 1210 1267 1219 1275 1234 1264 c 6
 1278 1234 l 6
 1293 1223 1290 1212 1276 1192 c 4
 1185 1062 1038 863 870 623 c 6
 830 566 l 6
EndSplineSet
EndChar

StartChar: cent
Encoding: 162 162 201
Width: 833
VWidth: 1920
Flags: HMW
LayerCount: 2
Fore
SplineSet
570 855 m 0
 719 855 823 766 823 684 c 0
 823 639 776 600 735 600 c 0
 671 600 651 631 624 693 c 0
 615 714 594 757 482 757 c 0
 374 757 228 639 228 424 c 0
 228 228.997435914 351 64 505 64 c 0
 644 64 719 169 764 169 c 0
 780 169 789 162 789 146 c 0
 789 84 618 -25 414 -25 c 0
 196 -25 75 108.997536961 75 312 c 0
 75 619 325 855 570 855 c 0
469 26 m 6
 467 3 468 -44 468 -56 c 4
 468 -106 410 -120 368 -120 c 4
 347 -120 331 -104 331 -83 c 4
 331 -51 360 -47 372 72 c 6
 447 820 l 6
 451 862 455 913 455 935 c 4
 455 961 484 978 545 978 c 4
 569 978 582 968 582 956 c 4
 582 934 561 912 556 859 c 6
 469 26 l 6
EndSplineSet
EndChar

StartChar: exclamdown
Encoding: 161 161 202
Width: 569
VWidth: 1920
Flags: HMW
LayerCount: 2
Fore
SplineSet
479 732 m 4
 479 670 429 620 367 620 c 4
 305 620 255 670 255 732 c 4
 255 794 305 844 367 844 c 4
 429 844 479 794 479 732 c 4
271 -429 m 4
 251 -536 216 -601 149 -601 c 4
 89 -601 65 -548 65 -471 c 4
 65 -360 244 227 265 344 c 4
 274 396 283 441 319 441 c 4
 346 441 349 396 345 344 c 4
 339 260 291 -320 271 -429 c 4
EndSplineSet
EndChar

StartChar: AE
Encoding: 198 198 203
Width: 1920
VWidth: 1920
Flags: HMW
LayerCount: 2
Fore
SplineSet
1194 1401 m 0
 1316 1401 1510 1406 1629 1406 c 0
 1792 1406 1811 1436 1858 1436 c 0
 1901 1436 1937 1339 1937 1209 c 0
 1937 1114 1919 1088 1873 1088 c 0
 1844 1088 1835 1103 1835 1120 c 0
 1835 1136 1842 1156 1842 1183 c 0
 1842 1255 1787 1306 1704 1319 c 0
 1642 1329 1553 1331 1491 1331 c 0
 1356 1331 1266 1323 1249 1244 c 0
 1235 1181 1208 1041 1198 868 c 0
 1195 821 1199 806 1227 800 c 0
 1254 794 1317 795 1382 797 c 0
 1513 801 1555 810 1555 882 c 0
 1555 930 1558 960 1591 960 c 0
 1621 960 1629 936 1629 886 c 0
 1629 842 1622 774 1615 716 c 0
 1595 561 1584 533 1540 533 c 0
 1520 533 1508 547 1508 566 c 0
 1508 587 1521 616 1521 649 c 0
 1521 711 1484 715 1385 715 c 0
 1190 715 1186 706 1177 651 c 0
 1169 602 1158 521 1149 446 c 0
 1133 316 1123 245 1123 165 c 0
 1123 123 1157 99 1181 94 c 0
 1226 85 1336 80 1432 80 c 0
 1517 80 1605 83 1658 95 c 0
 1725 110 1761 149 1787 203 c 0
 1819 269 1822 323 1852 323 c 0
 1883 323 1904 306 1904 278 c 0
 1904 205 1830 -30 1781 -30 c 0
 1745 -30 1755 -3 1697 -3 c 0
 1580 -3 1409 -3 1324 -3 c 0
 1237 -3 1141 -1 1057 -1 c 0
 971 -1 903 -3 818 -3 c 0
 747 -3 718 17 718 51 c 0
 718 80.2745623366 740 89 766 89 c 0
 786 89 828 83 857 83 c 0
 910 83 929 135 964 378 c 0
 975 451 981 507 990 564 c 0
 993 581 993 581 974 582 c 0
 961 583 923 583 900 583 c 0
 831 583 703 574 654 568 c 0
 617 563 592 542 566 506 c 2
 382 253 l 2
 327 178 310 132.213203436 310 111 c 0
 310 75 332 63 366 63 c 0
 390 63 420 75 439 75 c 0
 451 75 466 67.1953125 466 44 c 0
 466 -10 385 -15 252 -15 c 0
 61 -15 -30 2.9892578125 -30 51 c 0
 -30 74 -14 89 9 89 c 0
 32 89 54 78 86 78 c 0
 150 78 185 145 383 402 c 2
 757 886 l 2
 885 1052 1043 1208.43945312 1043 1281 c 0
 1043 1311 1022 1320 994 1320 c 0
 971 1320 942 1312 923 1312 c 0
 899 1312 887 1326.83974432 887 1355 c 0
 887 1389 922 1405 989 1405 c 0
 1057 1405 1092 1401 1194 1401 c 0
1009 699 m 0
 1014 735 1018 774 1024 820 c 0
 1035 912 1049 1034 1056 1099 c 0
 1057 1109 1055 1115 1047 1115 c 0
 1019 1115 987 1062 951 1014 c 2
 763 763 l 2
 744 737 712 710 712 692 c 0
 712 672.786796564 722 671 738 671 c 0
 753 671 854 684 936 684 c 0
 959 684 978 684 992 683 c 0
 1006 682 1007 682 1009 699 c 0
EndSplineSet
EndChar

StartChar: sterling
Encoding: 163 163 208
Width: 1596
Flags: HMW
LayerCount: 2
Fore
SplineSet
344 598 m 0
 344 622 355 635 383 665 c 0
 397 680 410 688 431 688 c 0
 494 688 1055 673 1108 673 c 0
 1200 673 1219 689 1274 689 c 0
 1293 689 1306 672 1306 653 c 0
 1306 629 1298 618 1281 587 c 0
 1272 570 1258 561 1239 561 c 0
 1211 561 1162 580 1099 580 c 2
 554 580 l 2
 474 580 388 570 373 570 c 0
 359 570 344 580 344 598 c 0
1410 1510 m 0
 1510 1510 1562 1465 1562 1401 c 4
 1562 1344 1523 1301 1463 1301 c 0
 1393 1301 1354 1393 1290 1393 c 0
 1256 1393 1185.12109375 1353.62402344 1132 1176 c 0
 1004 748 882.418945312 535.578125 763 405 c 0
 664.216796875 296.986328125 611 257 568 232 c 0
 530.755859375 210.346679688 519.068359375 180.024414062 647 171 c 0
 888 154 1158 57 1320 57 c 0
 1366.13574219 57 1398 74 1398 108 c 0
 1398 142 1362 157 1362 217 c 0
 1362 271.125 1393.85742188 300 1450 300 c 0
 1507 300 1540 258 1540 194 c 0
 1540 80 1339 -84 1079 -84 c 0
 809 -84 568 27 465 67 c 0
 431.649414062 79.951171875 382 93 346 72 c 0
 280.80859375 33.9716796875 184 -13 96 -13 c 0
 68 -13 34 7 34 36 c 0
 34 114 221 200 402 208 c 0
 445.247070312 209.911132812 457 228 501 275 c 0
 560.955078125 339.041992188 577 368 634 452 c 0
 698.237304688 546.666015625 827.588867188 874.0078125 904 1036 c 0
 1004 1248 1220 1510 1410 1510 c 0
EndSplineSet
EndChar

StartChar: yen
Encoding: 165 165 209
Width: 1462
VWidth: 1920
Flags: HMW
LayerCount: 2
Fore
SplineSet
686 475 m 6
 490 475 371 471 295 471 c 4
 268 471 255 474 258 495 c 6
 265 555 l 6
 268 576 281 579 308 579 c 4
 384 579 503 576 699 576 c 6
 720 576 l 6
 946 576 1036 579 1112 579 c 4
 1139 579 1152 576 1149 555 c 6
 1142 495 l 6
 1139 474 1126 471 1099 471 c 4
 1023 471 933 475 707 475 c 6
 686 475 l 6
712 685 m 6
 516 685 397 681 321 681 c 4
 294 681 281 684 284 705 c 6
 291 765 l 6
 294 786 307 789 334 789 c 4
 410 789 529 786 725 786 c 6
 746 786 l 6
 972 786 1062 789 1138 789 c 4
 1165 789 1178 786 1175 765 c 6
 1168 705 l 6
 1165 684 1152 681 1125 681 c 4
 1049 681 959 685 733 685 c 6
 712 685 l 6
EndSplineSet
Refer: 25 89 N 1 0 0 1 0 0 2
EndChar

StartChar: brokenbar
Encoding: 166 166 210
Width: 428
VWidth: 1920
Flags: MW
LayerCount: 2
Fore
SplineSet
261 -14 m 2
 261 -90 268 -244 268 -320 c 0
 268 -347 265 -360 244 -360 c 2
 184 -360 l 2
 163 -360 160 -347 160 -320 c 0
 160 -244 167 -90 167 -14 c 2
 167 13 l 2
 167 89 160 244 160 320 c 4
 160 347 163 360 184 360 c 6
 244 360 l 6
 265 360 268 347 268 320 c 4
 268 244 261 89 261 13 c 2
 261 -14 l 2
261 1026 m 2
 261 950 268 796 268 720 c 0
 268 693 265 680 244 680 c 2
 184 680 l 2
 163 680 160 693 160 720 c 0
 160 796 167 950 167 1026 c 2
 167 1053 l 2
 167 1129 160 1284 160 1360 c 0
 160 1387 163 1400 184 1400 c 2
 244 1400 l 2
 265 1400 268 1387 268 1360 c 0
 268 1284 261 1129 261 1053 c 2
 261 1026 l 2
EndSplineSet
EndChar

StartChar: plusminus
Encoding: 177 177 211
Width: 1222
Flags: MW
LayerCount: 2
Fore
SplineSet
576 8 m 6
 330 8 246 1 170 1 c 4
 143 1 130 4 130 25 c 6
 130 85 l 6
 130 106 143 109 170 109 c 4
 246 109 330 102 576 102 c 6
 597 102 l 6
 843 102 958 109 1034 109 c 4
 1061 109 1074 106 1074 85 c 6
 1074 25 l 6
 1074 4 1061 1 1034 1 c 4
 958 1 843 8 597 8 c 6
 576 8 l 6
657 726 m 2
 657 550 664 436 664 360 c 0
 664 333 661 320 640 320 c 2
 580 320 l 2
 559 320 556 333 556 360 c 0
 556 436 563 550 563 726 c 2
 563 803 l 2
 563 979 556 1124 556 1200 c 0
 556 1227 559 1240 580 1240 c 2
 640 1240 l 2
 661 1240 664 1227 664 1200 c 0
 664 1124 657 979 657 803 c 2
 657 726 l 2
130 748 m 0
 130 772 141 785 169 815 c 0
 183 830 196 838 217 838 c 0
 280 838 841 823 894 823 c 0
 986 823 1005 839 1060 839 c 0
 1079 839 1092 822 1092 803 c 0
 1092 779 1084 768 1067 737 c 0
 1058 720 1044 711 1025 711 c 0
 997 711 948 730 885 730 c 2
 340 730 l 2
 260 730 174 720 159 720 c 0
 145 720 130 730 130 748 c 0
EndSplineSet
EndChar

StartChar: copyright
Encoding: 169 169 212
Width: 1572
Flags: MW
LayerCount: 2
Fore
SplineSet
531.200195312 700 m 0
 531.200195312 505.5 644.5 389.5 786 389.5 c 4
 913.318359375 389.5 988.203125 471.828125 1028.66601562 568.43359375 c 1
 1145.14355469 517.842773438 l 1
 1103.78027344 379.952148438 983.249023438 259 796 259 c 4
 563 259 366.400390625 431 366.400390625 700 c 0
 366.400390625 969 563 1141 796 1141 c 4
 983.416015625 1141 1114.06152344 1009.86523438 1155.35839844 871.743164062 c 1
 1028.8828125 831.153320312 l 1
 988.471679688 918.01953125 913.475585938 1010.5 786 1010.5 c 4
 644.5 1010.5 531.200195312 894.5 531.200195312 700 c 0
141.599609375 700 m 0
 141.599609375 326.5 421.5 28.5 786 28.5 c 0
 1150.5 28.5 1430.40039062 326.5 1430.40039062 700 c 0
 1430.40039062 1073.5 1150.5 1371.5 786 1371.5 c 0
 421.5 1371.5 141.599609375 1073.5 141.599609375 700 c 0
70 700 m 0
 70 1115 381 1435 786 1435 c 0
 1191 1435 1502 1115 1502 700 c 0
 1502 285 1191 -35 786 -35 c 0
 381 -35 70 285 70 700 c 0
EndSplineSet
EndChar

StartChar: registered
Encoding: 174 174 213
Width: 1572
Flags: MW
LayerCount: 2
Fore
SplineSet
70 700 m 0
 70 1115 381 1435 786 1435 c 0
 1191 1435 1502 1115 1502 700 c 0
 1502 285 1191 -35 786 -35 c 0
 381 -35 70 285 70 700 c 0
141.599609375 700 m 0
 141.599609375 326.5 421.5 28.5 786 28.5 c 0
 1150.5 28.5 1430.40039062 326.5 1430.40039062 700 c 0
 1430.40039062 1073.5 1150.5 1371.5 786 1371.5 c 0
 421.5 1371.5 141.599609375 1073.5 141.599609375 700 c 0
502 284 m 1
 502 1116 l 1
 845.758789062 1116 l 2
 1008.75878906 1116 1105.35839844 1024 1105.35839844 865 c 0
 1105.35839844 728.930664062 1040.03222656 668.11328125 948.657226562 635.528320312 c 1
 1158 284 l 1
 997 284 l 1
 816.188476562 608 l 1
 636 608 l 1
 636 284 l 1
 502 284 l 1
960.55859375 855 m 0
 960.55859375 949.5 917.258789062 995.5 815.758789062 995.5 c 2
 636 995.5 l 1
 636 718.5 l 1
 815.758789062 718.5 l 2
 917.258789062 718.5 960.55859375 760.5 960.55859375 855 c 0
EndSplineSet
EndChar

StartChar: uni00AD
Encoding: 173 173 214
Width: 569
Flags: HMW
LayerCount: 2
Fore
SplineSet
94 446 m 4
 94 470 120 523 148 553 c 4
 162 568 175 576 196 576 c 4
 259 576 285 561 338 561 c 4
 430 561 449 577 504 577 c 4
 523 577 536 560 536 541 c 4
 536 517 523 478 506 447 c 4
 497 430 483 421 464 421 c 4
 414 421 342 434 206 434 c 4
 182 434 138 418 123 418 c 4
 109 418 94 428 94 446 c 4
EndSplineSet
EndChar

StartChar: logicalnot
Encoding: 172 172 215
Width: 1164
VWidth: 2048
Flags: MW
LayerCount: 2
Fore
SplineSet
556 568 m 2
 280 568 246 561 170 561 c 0
 143 561 130 564 130 585 c 2
 130 645 l 2
 130 666 143 669 170 669 c 0
 246 669 280 662 556 662 c 2
 577 662 l 2
 846 662 914 669 988 669 c 0
 1031 669 1034 658 1034 630 c 0
 1034 554 1027 485 1027 409 c 0
 1027 317 1034 281 1034 200 c 0
 1034 173 1031 160 1010 160 c 2
 950 160 l 2
 929 160 926 173 926 200 c 0
 926 276 933 334 933 410 c 0
 933 474 930 516 928 562 c 1
 865 564 775 568 577 568 c 2
 556 568 l 2
EndSplineSet
EndChar

StartChar: degree
Encoding: 176 176 217
Width: 700
VWidth: 1920
Flags: HMW
LayerCount: 2
Fore
SplineSet
262 1115 m 4
 262 992.599609375 346.599609375 908 460 908 c 4
 573.400390625 908 658 992.599609375 658 1115 c 4
 658 1237.40039062 573.400390625 1322 460 1322 c 4
 346.599609375 1322 262 1237.40039062 262 1115 c 4
160 1115 m 4
 160 1285 290 1415 460 1415 c 4
 630 1415 760 1285 760 1115 c 4
 760 945 630 815 460 815 c 4
 290 815 160 945 160 1115 c 4
EndSplineSet
EndChar

StartChar: questiondown
Encoding: 191 191 218
Width: 858
VWidth: 1920
Flags: HMW
LayerCount: 2
Fore
SplineSet
653 732 m 4
 653 670 603 620 541 620 c 4
 479 620 429 670 429 732 c 4
 429 794 479 844 541 844 c 4
 603 844 653 794 653 732 c 4
573 480 m 4
 629 480 661 450 661 406 c 4
 661 202 256 -15 256 -262 c 4
 256 -379 377 -478 451 -478 c 4
 555 -478 610 -382 610 -297 c 4
 610 -234 590 -216 532 -216 c 4
 503 -216 479 -200 479 -177 c 4
 479 -127 503 -83 572 -83 c 4
 651 -83 731 -169 731 -249 c 4
 731 -419 556 -604 348 -604 c 4
 230 -604 89 -441 89 -280 c 4
 89 -69 533 202 533 341 c 4
 533 364 521 380 496 380 c 4
 456 380 442 323 407 323 c 4
 381 323 364 341 364 369 c 4
 364 450 487 480 573 480 c 4
EndSplineSet
EndChar

StartChar: currency
Encoding: 164 164 220
Width: 1208
VWidth: 1920
Flags: HMW
LayerCount: 2
Fore
SplineSet
328 695 m 4
 303 488 429 345 620 345 c 4
 811 345 972 488 997 695 c 4
 1022 902 897 1045 706 1045 c 4
 515 1045 353 902 328 695 c 4
420 1060 m 5
 505 1121 610 1156 720 1156 c 4
 830 1156 924 1120 995 1059 c 5
 1078 1136 1151 1202 1177 1225 c 4
 1198 1244 1211 1251 1224 1236 c 6
 1261 1194 l 6
 1274 1179 1265 1168 1244 1149 c 4
 1218 1126 1144 1062 1059 988 c 5
 1113 909 1138 808 1124 695 c 4
 1110 585 1063 486 992 408 c 5
 1057 336 1114 274 1134 251 c 4
 1151 232 1156 221 1139 206 c 6
 1092 164 l 6
 1075 149 1066 156 1049 175 c 4
 1029 198 975 261 912 335 c 5
 825 272 720 234 607 234 c 4
 494 234 397 272 326 335 c 5
 244 260 176 197 151 175 c 4
 130 156 117 149 104 164 c 6
 67 206 l 6
 54 221 63 232 84 251 c 4
 109 273 179 335 263 408 c 5
 212 486 188 585 202 695 c 4
 216 808 266 909 339 988 c 5
 271 1063 214 1126 194 1149 c 4
 177 1168 172 1179 189 1194 c 6
 236 1236 l 6
 253 1251 262 1244 279 1225 c 4
 299 1202 354 1137 420 1060 c 5
EndSplineSet
EndChar

StartChar: section
Encoding: 167 167 221
Width: 654
VWidth: 1920
Flags: HMW
LayerCount: 2
Fore
SplineSet
163 171 m 4
 163 156.963867188 161 148 161 129 c 4
 161 86.98828125 227 47 286 47 c 4
 418 47 469 126.994140625 469 211 c 4
 469 315 392 391 322 455 c 4
 205 562 146 640.962890625 146 762 c 4
 146 869.62890625 198.490234375 954.180664062 287.946289062 998 c 4
 306.559570312 1007.1171875 306.559570312 1007.1171875 291.68359375 1040 c 4
 274.579101562 1077.80664062 266 1117.84472656 266 1164 c 4
 266 1324 382 1433 563 1433 c 4
 658 1433 720 1374 720 1295 c 4
 720 1247.98925781 683 1224 658 1224 c 4
 624 1224 610 1243 584 1283 c 4
 550 1333 520 1351 480 1351 c 4
 406 1351 371 1305 371 1251 c 4
 371 1196.99121094 406 1135 502 1025 c 4
 616 895 714 844 714 676 c 4
 714 576.235351562 661.930664062 486.584960938 586 434.465820312 c 4
 561.4921875 417.643554688 561.4921875 417.643554688 570.153320312 398 c 4
 585.33203125 363.578125 594 323.962890625 594 274 c 4
 594 116.971679688 465 -25 277 -25 c 4
 220 -25 155 -19 106 17 c 4
 56 54 18 110.9921875 18 179 c 4
 18 239 60 275 93 275 c 4
 130 275 163 239 163 171 c 4
543.525390625 496 m 4
 575.243164062 526.821289062 589 569.369140625 589 613 c 4
 589 717 512 793 442 857 c 4
 413.985351562 882.620117188 389.296875 906.6328125 367.946289062 930 c 4
 348.177734375 951.63671875 348.177734375 951.63671875 321 943.998046875 c 4
 273.639648438 930.686523438 251 892.430664062 251 849 c 4
 251 794.991210938 286 733 382 623 c 4
 423.10546875 576.125 462.131835938 539.521484375 495.232421875 504 c 4
 522.09375 475.174804688 522.09375 475.174804688 543.525390625 496 c 4
EndSplineSet
EndChar

StartChar: dagger
Encoding: 8224 8224 222
Width: 912
Flags: HMW
LayerCount: 2
Fore
SplineSet
313 916 m 4
 345 916 393 901 409 883 c 12
 425 865 427 838 421 792 c 4
 392 556 386 478 384 368 c 4
 382 212 389 56 386 0 c 4
 383 -56 416 -68 438 0 c 12
 460 68 503 218 528 360 c 4
 554 504 564 567 609 806 c 4
 613 826 612 848 640 848 c 4
 672 848 727 826 810 826 c 4
 869 826 922 860 930 924 c 4
 935 968 910 992 868 992 c 4
 798 992 802 904 743 904 c 4
 671 904 606 926 590 952 c 4
 577 973 578 998 581 1020 c 12
 584 1042 619 1054 625 1100 c 4
 630 1138 582 1145 584 1159 c 4
 586 1173 614 1188 618 1220 c 4
 622 1252 588 1266 590 1286 c 4
 591 1296 619 1309 623 1338 c 4
 625 1358 614 1380 586 1380 c 12
 558 1380 536 1358 534 1338 c 12
 532 1318 550 1299 548 1283 c 12
 546 1267 500 1256 496 1220 c 4
 492 1184 522 1169 521 1157 c 4
 520 1145 475 1132 471 1096 c 4
 465 1050 503 1038 500 1010 c 12
 497 982 479 954 447 954 c 12
 415 954 346 990 260 990 c 12
 174 990 128 948 123 904 c 4
 118 860 145 834 189 834 c 4
 265 834 251 916 313 916 c 4
EndSplineSet
EndChar

StartChar: daggerdbl
Encoding: 8225 8225 223
Width: 912
Flags: HMW
LayerCount: 2
Fore
SplineSet
509 665 m 4
 513 565 515 440 497 295 c 6
 494 267 l 6
 491 243 491 242 511 226 c 4
 523 216 538 209 556 209 c 4
 615 209 602 300 672 300 c 4
 702 300 720 280 716 245 c 4
 709 190 668 149 602 149 c 4
 566 149 531 163 504 178 c 4
 470 196 458 181 453 143 c 6
 449 108 l 6
 446 87 466 81 462 47 c 4
 458 13 437 10 435 -10 c 4
 433 -28 421 -38 406 -38 c 4
 391 -38 383 -28 385 -10 c 4
 388 13 368 13 372 47 c 4
 376 81 396 86 399 108 c 6
 403 139 l 6
 408 182 408 183 373 214 c 4
 359 227 337 240 311 240 c 4
 252 240 265 149 195 149 c 4
 165 149 147 169 151 204 c 4
 158 259 199 300 265 300 c 4
 300 300 334 287 361 272 c 4
 383 260 394 266 396 286 c 6
 397 295 l 6
 415 440 443 565 471 665 c 4
 477 685 508 685 509 665 c 4
478 722 m 4
 474 822 477 947 495 1092 c 6
 498 1120 l 6
 501 1144 501 1145 481 1161 c 4
 469 1171 454 1178 436 1178 c 4
 377 1178 390 1087 320 1087 c 4
 290 1087 272 1107 276 1142 c 4
 283 1197 324 1238 390 1238 c 4
 426 1238 461 1224 488 1209 c 4
 522 1191 534 1206 539 1244 c 6
 543 1279 l 6
 546 1300 526 1306 530 1340 c 4
 534 1374 555 1377 557 1397 c 4
 559 1415 571 1425 586 1425 c 4
 601 1425 609 1415 607 1397 c 4
 604 1374 624 1374 620 1340 c 4
 616 1306 596 1301 593 1279 c 6
 589 1248 l 6
 584 1205 584 1204 619 1173 c 4
 633 1160 655 1147 681 1147 c 4
 740 1147 727 1238 797 1238 c 4
 827 1238 845 1218 841 1183 c 4
 834 1128 793 1087 727 1087 c 4
 692 1087 658 1100 631 1115 c 4
 609 1127 598 1121 596 1101 c 6
 595 1092 l 6
 577 947 544 822 516 722 c 4
 510 702 479 702 478 722 c 4
EndSplineSet
EndChar

StartChar: Thorn
Encoding: 222 222 224
Width: 1267
VWidth: 1920
Flags: HMW
LayerCount: 2
Fore
SplineSet
694 389 m 0
 860 389 1026 463 1052 673 c 0
 1077 873 984 1029 782 1029 c 0
 617 1029 596 994 582 962 c 0
 572 939 551 819 542 744 c 2
 533 668 l 2
 527 616 510 469 509 444 c 0
 509 416 576 389 694 389 c 0
341 591 m 2
 379 901 l 2
 422 1248 402 1320 337 1320 c 0
 302 1320 279 1304 259 1304 c 0
 239 1304 228 1318 230 1338 c 0
 234 1372 255 1385 302 1395 c 0
 366 1408 434 1415 525 1415 c 0
 611 1415 684 1412 729 1405 c 0
 781 1397 808 1380 804 1349 c 0
 802 1332 779 1312 751 1312 c 0
 728 1312 716 1330 679 1330 c 0
 642 1330 609 1300 589 1138 c 0
 585 1109 592 1101 615 1101 c 0
 661 1101 735 1107 812 1107 c 0
 1089 1107 1283 1006 1250 736 c 0
 1215 452 935 312 701 312 c 0
 560 312 525 337 508 337 c 0
 498 337 492 332 489 307 c 0
 484 269 473 159 490 113 c 0
 499 89 513 86 533 86 c 0
 577 86 596 105 625 105 c 0
 649 105 659 87 656 64 c 0
 652 30 615 16 568 7 c 0
 510 -4 436 -15 345 -15 c 0
 259 -15 187 -14 141 -5 c 0
 93 4 61 12 65 45 c 0
 67 62 85 85 113 85 c 0
 136 85 157 72 194 72 c 0
 213 72 232 82 246 108 c 0
 277 166 306 307 341 591 c 2
EndSplineSet
EndChar

StartChar: Oslash
Encoding: 216 216 225
Width: 1590
VWidth: 1920
Flags: HMW
LayerCount: 2
Fore
SplineSet
557.106445312 329.665039062 m 6
 347.557617188 79.9345703125 311.78125 26.408203125 262.9296875 -31.810546875 c 4
 245.57421875 -52.494140625 234.919921875 -60.5244140625 218.833007812 -47.025390625 c 6
 172.870117188 -8.458984375 l 6
 156.783203125 5.0400390625 162.841796875 16.9267578125 180.197265625 37.6103515625 c 4
 229.048828125 95.8291015625 275.549804688 140.356445312 485.098632812 390.086914062 c 6
 1035.96679688 1046.58691406 l 6
 1245.515625 1296.31738281 1301.21875 1373.59179688 1350.0703125 1431.81054688 c 4
 1367.42578125 1452.49414062 1378.08007812 1460.52441406 1394.16699219 1447.02539062 c 6
 1440.12988281 1408.45898438 l 6
 1456.21679688 1394.95996094 1450.15820312 1383.07324219 1432.80273438 1362.38964844 c 4
 1383.95117188 1304.17089844 1317.52441406 1235.89550781 1107.97558594 986.165039062 c 6
 557.106445312 329.665039062 l 6
EndSplineSet
Refer: 15 79 N 1 0 0 1 0 0 2
EndChar

StartChar: germandbls
Encoding: 223 223 227
Width: 1059
VWidth: 1920
Flags: HMW
LayerCount: 2
Fore
SplineSet
1029 313 m 256
 1029 443 957.255859375 508.155273438 769 617 c 0
 644.09375 689.217773438 602 713 602 780 c 0
 602 929 891 1032 891 1215 c 4
 891 1315 788 1420 561 1420 c 0
 374 1420 216 1297 216 1082 c 0
 216 999 219 953 222 869 c 0
 223 840 219 840 209 840 c 0
 162 840 154 850 129 850 c 0
 103 850 80 784 80 762 c 0
 80 734 86 730 104 730 c 0
 128 730 144 757 201 757 c 0
 225 757 225 749 223 726 c 2
 203 496 l 2
 169 100 139 -44 107 -249 c 0
 101 -284 80 -289 69 -289 c 0
 63 -289 60 -286 50 -286 c 0
 34 -286 20 -295 20 -314 c 0
 20 -351 36 -365 124 -365 c 0
 169 -365 198 -361 218 -351 c 0
 246 -337 253 -306 257 -269 c 0
 280 -58 303 139 326 363 c 2
 356 660 l 2
 360 697 363 739 363 780 c 0
 363 804 362 828 359 851 c 0
 339 1020 330 1070 330 1163 c 0
 330 1260 423 1360 561 1360 c 0
 702 1360 734 1275 734 1191 c 4
 734 1022 495 949 495 726 c 0
 495 595 556 552 734 439 c 0
 857.748046875 360.44140625 905 328 905 231 c 256
 905 141 843 35 711 35 c 256
 652 35 584 68 584 103 c 0
 584 119 586 126 586 138 c 0
 586 195 550 225 513 225 c 0
 480 225 440 195 440 145 c 0
 440 88 481 41 532 10 c 0
 581 -20 647 -25 704 -25 c 256
 892 -25 1029 142 1029 313 c 256
EndSplineSet
EndChar

StartChar: ae
Encoding: 230 230 228
Width: 1026
VWidth: 1920
Flags: HMW
LayerCount: 2
Fore
SplineSet
592 402 m 0
 619 383 638 382 672 382 c 0
 729 382 787 445 819 532 c 0
 831 563 845 597 845 633 c 0
 845 679 822 705 784 730 c 0
 765 743 740 754 716 754 c 0
 673 754 643 708 618 646 c 0
 594 584 575 507 575 438 c 0
 575 415 575 413 592 402 c 0
814 855 m 0
 846 855 875 844 898 824 c 0
 939 788 967 735 967 656 c 0
 967 593 920 487 856 424 c 0
 786 355 717 316 628 316 c 0
 576 316 564 313 564 283 c 0
 564 220 584 140 626 95 c 0
 657 62 703 50 757 50 c 0
 844 50 925 84 961 175 c 0
 974 207 981 216 994 216 c 0
 1006 216 1014 213 1020 210 c 0
 1032 204 1036 196 1036 182 c 0
 1036 132 916 -25 706 -25 c 0
 623.56365095 -25 534.314897712 7.92662024326 477.835105965 73.7798607298 c 1
 411.706733296 12.0964726898 335.216479295 -25 259 -25 c 0
 115 -25 50 60 50 228 c 0
 50 605 306 855 488 855 c 0
 530.881242257 855 578.192702193 821.382465853 614.23631116 763.858914603 c 1
 671.711945613 820.025578197 739.378983504 855 814 855 c 0
460 785 m 0
 339 785 204 459 204 243 c 0
 204 163 263 84 346 84 c 0
 379.239243368 84 412.736011892 99.2583654814 444.219634113 125.119403165 c 1
 428.872346083 157.001351391 420 193.961550336 420 236 c 0
 420 317 429 406 456 491 c 0
 481.632349698 570.79102406 519.058195032 646.821803136 565.804341766 708.563595804 c 1
 540.587325612 753.951128394 505.196116198 785.000000038 460 785 c 0
EndSplineSet
EndChar

StartChar: eth
Encoding: 240 240 238
Width: 759
Flags: HMW
LayerCount: 2
Fore
SplineSet
412 1178 m 2
 333 1123 262 1069 200 1025 c 0
 178 1010 166 1004 154 1021 c 2
 119 1071 l 2
 107 1088 116 1098 138 1113 c 0
 200 1157 275 1205 354 1260 c 2
 371 1273 l 2
 466 1340 522 1381 584 1425 c 0
 606 1440 618 1446 630 1429 c 2
 665 1379 l 2
 677 1362 668 1352 646 1337 c 0
 584 1293 524 1257 429 1190 c 2
 412 1178 l 2
376 49 m 260
 543 49 597 349 597 514 c 260
 597 719 505 784 438 784 c 260
 389 784 338 765 306 719 c 4
 234 616 201 438 201 293 c 260
 201 224 203 162 225 124 c 4
 257 70 321 49 376 49 c 260
50 271 m 4
 50 459 116 644 232 754 c 4
 302 820 397 855 499 855 c 4
 547.968856385 855 547.968856385 855 536.277657785 887.999990808 c 4
 466.325942623 1085.44817695 313.500773356 1261.39926011 109 1339 c 4
 83 1349 72 1360 74 1374 c 4
 76 1391 97 1407 124 1407 c 4
 182 1407 237 1378 289 1353 c 4
 492.553589284 1254.28416159 748.999833332 1033.21973515 749 546 c 4
 749 265 579 -25 319 -25 c 4
 167 -25 50 97 50 271 c 4
EndSplineSet
EndChar

StartChar: divide
Encoding: 247 247 245
Width: 1222
Flags: MW
LayerCount: 2
Fore
SplineSet
480 132 m 0
 480 199 529 241 586 241 c 0
 643 241 690 199 690 132 c 0
 690 66 643 23 586 23 c 0
 529 23 480 66 480 132 c 0
480 888 m 0
 480 955 529 997 586 997 c 0
 643 997 690 955 690 888 c 0
 690 822 643 779 586 779 c 0
 529 779 480 822 480 888 c 0
576 463 m 2
 330 463 246 456 170 456 c 0
 143 456 130 459 130 480 c 2
 130 540 l 2
 130 561 143 564 170 564 c 0
 246 564 330 557 576 557 c 2
 597 557 l 2
 843 557 958 564 1034 564 c 0
 1061 564 1074 561 1074 540 c 2
 1074 480 l 2
 1074 459 1061 456 1034 456 c 0
 958 456 843 463 597 463 c 2
 576 463 l 2
EndSplineSet
EndChar

StartChar: oslash
Encoding: 248 248 246
Width: 1184
VWidth: 1920
Flags: HMW
LayerCount: 2
Fore
SplineSet
326.606445312 329.665039062 m 2
 119.846679688 80.6201171875 81.28125 26.408203125 32.4296875 -31.810546875 c 0
 15.07421875 -52.494140625 4.419921875 -60.5244140625 -11.6669921875 -47.025390625 c 2
 -57.6298828125 -8.458984375 l 2
 -73.716796875 5.0400390625 -67.658203125 16.9267578125 -50.302734375 37.6103515625 c 0
 -1.451171875 95.8291015625 47.83984375 141.041015625 254.598632812 390.086914062 c 2
 341 493 l 6
 550.548828125 742.73046875 606.251953125 820.004882812 655.103515625 878.223632812 c 4
 672.458984375 898.907226562 683.11328125 906.9375 699.200195312 893.438476562 c 6
 745.163085938 854.872070312 l 6
 761.25 841.373046875 755.19140625 829.486328125 737.8359375 808.802734375 c 4
 688.984375 750.583984375 622.557617188 682.30859375 413.008789062 432.578125 c 6
 326.606445312 329.665039062 l 2
EndSplineSet
Refer: 34 111 N 1 0 0 1 0 0 2
EndChar

StartChar: thorn
Encoding: 254 254 252
Width: 867
VWidth: 1920
Flags: HMW
LayerCount: 2
Fore
SplineSet
137 194 m 2
 200 883 l 2
 222.3984375 1127.96386719 237 1251 225 1293 c 0
 220 1310 204 1317 185 1317 c 0
 156 1317 106 1294 76 1294 c 0
 56 1294 43 1308 43 1328 c 0
 43 1349 68 1367 118 1376 c 0
 185 1388 353 1420 384 1420 c 0
 397 1420 406 1410 406 1383 c 0
 406 1307 367 1217 329 894 c 2
 308.47265625 718.912109375 l 2
 301.540039062 659.780273438 291.930664062 610 300 610 c 0
 307 610 346 679 380 717 c 0
 438 783 532 865 623 865 c 0
 727 865 857 758 857 654 c 0
 857 370 711 -15 394 -15 c 0
 336 -15 308 16 290 53 c 0
 278 79 271 90 266 90 c 0
 259 90 259.197265625 84.9755859375 257 67 c 2
 246 -23 l 2
 230.60546875 -148.952148438 227.848632812 -218.061523438 241 -250 c 0
 248 -267 264 -274 295 -274 c 0
 310 -274 330 -268 345 -268 c 0
 366 -268 377 -280 377 -299 c 0
 377 -327 341 -344 273 -344 c 0
 234 -344 152 -343 93 -335 c 0
 -44 -317 -80 -293 -80 -257 c 0
 -80 -232 -63 -221 -44 -221 c 0
 -19 -221 4 -245 29 -245 c 0
 60 -245 67 -214 73 -189 c 0
 89.357421875 -120.842773438 116.819335938 -26.708984375 137 194 c 2
549 757 m 0
 410 757 294 500 294 305 c 0
 294 218 327 51 431 51 c 0
 584 51 704 382 704 596 c 0
 704 684 659 757 549 757 c 0
EndSplineSet
EndChar

StartChar: dcroat
Encoding: 273 273 270
Width: 1214
VWidth: 1920
Flags: HMW
LayerCount: 2
Fore
SplineSet
668 1055 m 6
 572 1055 482 1051 406 1051 c 4
 379 1051 366 1054 369 1075 c 6
 377 1135 l 6
 380 1156 393 1159 420 1159 c 4
 496 1159 584 1156 680 1156 c 6
 701 1156 l 6
 817 1156 888 1159 964 1159 c 4
 991 1159 1004 1156 1001 1135 c 6
 993 1075 l 6
 990 1054 977 1051 950 1051 c 4
 874 1051 805 1055 689 1055 c 6
 668 1055 l 6
EndSplineSet
Refer: 36 100 N 1 0 0 1 0 0 2
EndChar

StartChar: Hbar
Encoding: 294 294 291
Width: 1617
VWidth: 1920
Flags: HMW
LayerCount: 2
Fore
SplineSet
336 1015 m 6
 240 1015 150 1011 74 1011 c 4
 47 1011 34 1014 37 1035 c 6
 45 1095 l 6
 48 1116 61 1119 88 1119 c 4
 164 1119 252 1116 348 1116 c 6
 1229 1116 l 6
 1345 1116 1416 1119 1492 1119 c 4
 1519 1119 1532 1116 1529 1095 c 6
 1521 1035 l 6
 1518 1014 1505 1011 1478 1011 c 4
 1402 1011 1333 1015 1217 1015 c 6
 336 1015 l 6
EndSplineSet
Refer: 8 72 N 1 0 0 1 0 0 2
EndChar

StartChar: hbar
Encoding: 295 295 292
Width: 1240
VWidth: 1920
Flags: HMW
LayerCount: 2
Fore
SplineSet
267 1055 m 6
 171 1055 81 1051 5 1051 c 4
 -22 1051 -35 1054 -32 1075 c 6
 -24 1135 l 6
 -21 1156 -8 1159 19 1159 c 4
 95 1159 183 1156 279 1156 c 6
 300 1156 l 6
 416 1156 487 1159 563 1159 c 4
 590 1159 603 1156 600 1135 c 6
 592 1075 l 6
 589 1054 576 1051 549 1051 c 4
 473 1051 404 1055 288 1055 c 6
 267 1055 l 6
EndSplineSet
Refer: 42 104 N 1 0 0 1 0 0 2
EndChar

StartChar: uni0237
Encoding: 567 567 306
Width: 536
VWidth: 1920
Flags: HMW
AnchorPoint: "top" 291 880 basechar 0
LayerCount: 2
Fore
SplineSet
289 505 m 6
 305 671 276 736 234 736 c 4
 214 736 174 660 168 592 c 4
 163 537 155 522 125 522 c 4
 101 522 84 540 84 570 c 4
 84 666 206 845 304 845 c 4
 365 845 443 761 443 704 c 4
 443 628 433 599 415 444 c 6
 381 154 l 6
 365 21 379 -119 350 -199 c 4
 316 -291 258 -355 178 -355 c 4
 91 -355 40 -306 40 -246 c 4
 40 -203 79 -177 122 -177 c 4
 147 -177 167.608703081 -188.575674757 180 -207 c 4
 193.54296875 -227.13671875 189 -281 219 -281 c 4
 233 -281 233 -268 233 -251 c 4
 233 -160 240 4 257 180 c 6
 289 505 l 6
EndSplineSet
EndChar

StartChar: Ldot
Encoding: 319 319 315
Width: 1374
VWidth: 1920
Flags: HMW
LayerCount: 2
Fore
SplineSet
730 1063 m 4
 730 1140 793 1203 870 1203 c 4
 947 1203 1010 1140 1010 1063 c 4
 1010 986 947 923 870 923 c 4
 793 923 730 986 730 1063 c 4
EndSplineSet
Refer: 12 76 N 1 0 0 1 0 0 2
EndChar

StartChar: ldot
Encoding: 320 320 316
Width: 644
VWidth: 2048
Flags: HMW
LayerCount: 2
Fore
SplineSet
421 863 m 0
 421 940 484 1003 561 1003 c 0
 638 1003 701 940 701 863 c 0
 701 786 638 723 561 723 c 0
 484 723 421 786 421 863 c 0
  Spiro
    421 863 o
    440.149 933.456 o
    490.544 983.851 o
    561 1003 o
    631.456 983.851 o
    681.851 933.456 o
    701 863 o
    681.851 792.544 o
    631.456 742.149 o
    561 723 o
    490.544 742.149 o
    440.149 792.544 o
    0 0 z
  EndSpiro
EndSplineSet
Refer: 28 108 N 1 0 0 1 0 0 2
EndChar

StartChar: Lslash
Encoding: 321 321 317
Width: 1374
VWidth: 1920
Flags: HMW
LayerCount: 2
Fore
SplineSet
362 848 m 6
 277 793 200 739 132 695 c 4
 108 680 95 674 85 691 c 6
 56 741 l 6
 46 758 56 768 80 783 c 4
 148 827 229 875 314 930 c 6
 333 943 l 6
 436 1010 496 1051 564 1095 c 4
 588 1110 601 1116 611 1099 c 6
 640 1049 l 6
 650 1032 640 1022 616 1007 c 4
 548 963 484 927 381 860 c 6
 362 848 l 6
EndSplineSet
Refer: 12 76 N 1 0 0 1 0 0 2
EndChar

StartChar: lslash
Encoding: 322 322 318
Width: 644
VWidth: 1920
Flags: HMW
LayerCount: 2
Fore
SplineSet
236 848 m 6
 151 793 74 739 6 695 c 4
 -18 680 -31 674 -41 691 c 6
 -69 741 l 6
 -79 758 -69 768 -45 783 c 4
 23 827 104 875 189 930 c 6
 207 943 l 6
 310 1010 371 1051 439 1095 c 4
 463 1110 476 1116 486 1099 c 6
 514 1049 l 6
 524 1032 514 1022 490 1007 c 4
 422 963 358 927 255 860 c 6
 236 848 l 6
EndSplineSet
Refer: 28 108 N 1 0 0 1 0 0 2
EndChar

StartChar: Eng
Encoding: 330 330 326
Width: 1595
VWidth: 1920
Flags: HMW
LayerCount: 2
Fore
SplineSet
304 551 m 2
 338 823 l 2
 369.492307692 1074.93846154 367 1232 329 1297 c 0
 316.678710938 1318.07617188 302 1332 272 1332 c 0
 217 1332 194 1307 165 1307 c 0
 145 1307 127 1318 127 1338 c 0
 127 1370 170 1382 207 1390 c 0
 269 1403 411 1415 472 1415 c 0
 538 1415 550.666992188 1395.83007812 573 1359 c 2
 1183 366 l 2
 1201.328125 335.7734375 1211 320 1232 320 c 0
 1256 320 1266.34570312 407.20703125 1285 566 c 2
 1326 915 l 2
 1357.04101562 1179.22363281 1340 1335 1275 1335 c 0
 1230 1335 1201 1316 1172 1316 c 0
 1152 1316 1140 1323 1140 1343 c 0
 1140 1384 1201 1415 1397 1415 c 0
 1610 1415 1651 1387 1651 1348 c 0
 1651 1329 1636 1321 1618 1321 c 0
 1585 1321 1558 1338 1511 1338 c 0
 1451 1338 1439.89233784 1261.13187742 1408 993 c 0
 1374.78193403 716.832438335 1341.32863969 428.650375462 1309 154 c 0
 1293 21 1307 -119 1278 -199 c 0
 1244 -291 1186 -355 1106 -355 c 0
 1019 -355 968 -306 968 -246 c 0
 968 -203 1007 -177 1050 -177 c 0
 1075 -177 1095.60839844 -188.575195312 1108 -207 c 0
 1121.54296875 -227.13671875 1117 -281 1147 -281 c 0
 1161 -281 1161 -268 1161 -251 c 0
 1161 -193.533637836 1170.12988281 -118 1170.12988281 -16.6279296875 c 0
 1170.12988281 -9.95313923236 1162.16133556 5.06663557692 1158 12 c 2
 526 1085 l 2
 506.407226562 1117.64453125 496 1141 475 1141 c 0
 453 1141 421.854492188 989.015625 403 816 c 2
 369 504 l 2
 331.518554688 160.052734375 353 62 418 62 c 0
 463 62 478 76 507 76 c 0
 525 76 533 64 533 52 c 0
 533 14 470 -15 304 -15 c 0
 141 -15 31 -1 31 54 c 0
 31 70 45 79 63 79 c 0
 86 79 109 64 146 64 c 0
 206 64 253.292307692 145.338461538 304 551 c 2
EndSplineSet
EndChar

StartChar: eng
Encoding: 331 331 327
Width: 958
VWidth: 1920
Flags: HMW
LayerCount: 2
Fore
SplineSet
637 844 m 0
 696 844 807 784 848 716 c 0
 869 681 878 642 878 593 c 0
 878 509 840 317 821 154 c 0
 805 21 819 -119 790 -199 c 0
 756 -291 698 -355 618 -355 c 0
 531 -355 480 -306 480 -246 c 0
 480 -203 519 -177 562 -177 c 0
 587 -177 608 -189 620 -207 c 0
 634 -227 629 -281 659 -281 c 0
 673 -281 673 -268 673 -251 c 0
 673 -160 680 4 697 180 c 0
 722 431 722 431 722 587 c 0
 722 663 687 720 602 720 c 0
 528 720 485 588 445 472 c 0
 415 385 386 237 371 59 c 0
 369 32 373 -2 343 -2 c 0
 333 -2 295 -2 280 -2 c 0
 261 -2 243 -5 235 -5 c 0
 214 -5 198 3 198 21 c 0
 198 68 270 226 270 504 c 0
 270 602 257 729 176 729 c 0
 135 729 98 683 98 650 c 0
 98 623 105 622 105 578 c 0
 105 548 85 534 64 534 c 0
 38 534 20 551 20 577 c 0
 20 649 38 701 76 751 c 0
 121 811 225 843 267 843 c 0
 299 843 321 823 343 793 c 0
 373 754 384 637 389 604 c 0
 392 585 399 574 409 574 c 0
 423 574 433 596 435 602 c 0
 477 727 524 844 637 844 c 0
EndSplineSet
EndChar

